<svg width="125" height="95" viewBox="0 0 125 95" fill="none" xmlns="http://www.w3.org/2000/svg">
<path d="M8.39478 84.5874C14.0435 90.9329 20.8989 94.1504 28.7708 94.1504C35.8455 94.1504 41.843 91.6311 46.5981 86.6628C51.323 81.7263 53.7188 75.5947 53.7188 68.438C53.7188 61.6748 51.2988 55.6482 46.5261 50.5251C42.3162 46.0056 37.0127 43.1309 30.7344 41.9592C31.8323 33.6353 39.1909 26.1008 52.6499 19.5359L55.0735 18.3535L45.1367 0.00878323L42.8935 1.14574C14.4314 15.573 -3.53724e-06 35.9624 -1.283e-06 61.7478C-5.05291e-07 70.6438 2.82422 78.3279 8.39478 84.5874ZM42.9993 6.91576L47.9778 16.1057C33.0063 23.9507 25.4211 33.3811 25.4211 44.1633L25.4211 46.4719L27.7148 46.7317C33.8928 47.4309 38.8088 49.8242 42.7437 54.0486C46.6501 58.2422 48.5493 62.9487 48.5493 68.438C48.5493 74.2993 46.6892 79.0913 42.8635 83.0889C39.0688 87.054 34.4587 88.9814 28.7705 88.9814C22.3484 88.9814 16.9465 86.4199 12.2563 81.1509C7.4873 75.7925 5.16894 69.4458 5.16894 61.748C5.16894 49.9299 8.49682 39.2605 15.0596 30.0361C21.3218 21.2349 30.7141 13.4646 42.9993 6.91576Z" fill="#00FFC2"/>
<path d="M78.4575 84.5986C84.1687 90.9363 91.0527 94.1499 98.9187 94.1499C106 94.1499 111.971 91.626 116.663 86.6484C121.316 81.7139 123.675 75.5869 123.675 68.4375C123.675 61.6746 121.255 55.648 116.483 50.5247C112.281 46.0149 107.042 43.1428 100.88 41.9658C101.965 33.6355 109.262 26.0974 122.613 19.5313L125 18.3579L115.311 6.47432e-06L113.045 1.14307C84.4538 15.5696 69.9568 35.96 69.9568 61.7476C69.957 70.6504 72.8174 78.3386 78.4575 84.5986ZM113.12 6.92408L117.963 16.0999C103.1 23.9478 95.5693 33.3804 95.5693 44.1631L95.5693 46.4666L97.8579 46.7307C103.909 47.429 108.765 49.8225 112.701 54.0483C116.607 58.2417 118.506 62.9485 118.506 68.4375C118.506 74.3064 116.673 79.1035 112.903 83.1023C109.173 87.0579 104.599 88.981 98.9187 88.981C92.4902 88.981 87.053 86.4158 82.2978 81.1384C77.4719 75.783 75.126 69.4399 75.126 61.7476C75.126 49.9314 78.4683 39.2634 85.0608 30.04C91.3501 21.2412 100.783 13.4722 113.12 6.92408Z" fill="#00FFC2"/>
</svg>
