<svg xmlns="http://www.w3.org/2000/svg" viewBox="0 0 135.07 51.93"><defs><style>.cls-1{fill:#231f20;}</style></defs><title>Fichier 4</title><g id="Calque_2" data-name="Calque 2"><g id="Layer_1" data-name="Layer 1"><path class="cls-1" d="M12.55,27l-2,3.46A44,44,0,0,1,24.85,45.8h.6A47.5,47.5,0,0,0,12.55,27Z"/><path class="cls-1" d="M14.41,23.76a39.9,39.9,0,0,1,11.93,22h.55c-.32-4.73-2.36-18.09-10.21-25.95l-2.27,3.91Z"/><path class="cls-1" d="M46.48,33.54v0A45.42,45.42,0,0,0,30.28,45.8h.56c.44-.39,1.59-1.22,2.22-1.73a47.46,47.46,0,0,1,14.88-7L53.59,47H30.85V45.8H24.08V47H2.22l9.4-15.86-1.07-.65L0,48.2H24.08V47.05h6.77v1.16h25s-6.65-11.37-6.54-11.39A35.23,35.23,0,0,1,61.43,36l2.72-5.83a39.47,39.47,0,0,0-17.67,3.35Z"/><path class="cls-1" d="M43.13,26.19,28.05,0,19,15.84c2.33,2.47,8.65,10.82,8.79,30h.68c.46-19.66-3.81-29.08-6.32-32.86L28.06,2.52,42.15,27a46.41,46.41,0,0,0-13.1,18.8h.62a51.13,51.13,0,0,1,9-11.1A38.71,38.71,0,0,1,66.85,24.38l3.09-6.64c-11.83-.38-20.54,3.47-26.81,8.45Z"/><path class="cls-1" d="M91.35,17.14a6.19,6.19,0,0,0-7.7,3.31C83,22,83.62,23,85.27,23a9.23,9.23,0,0,0,3.89-1.11L88,24a10.24,10.24,0,0,1-3.63.75c-2.73,0-3.84-1.74-2.75-4.31A9.25,9.25,0,0,1,90,15.05a8.4,8.4,0,0,1,2.4.35Z"/><path class="cls-1" d="M92.74,20.65a2.32,2.32,0,0,1,1.78-1.15c.63,0,.81.47.41,1.15Zm1.56-3h1l3.45-2.38H96.54Zm1.9,4.08c1.29-2,.86-3.5-1.1-3.5a5.8,5.8,0,0,0-4.85,3.45c-.79,1.85-.09,3,1.82,3a8.11,8.11,0,0,0,2.37-.46l1-1.56a8.86,8.86,0,0,1-2.59.64c-.9,0-1.28-.59-.75-1.62Z"/><path class="cls-1" d="M101.61,20.48a1.89,1.89,0,0,1-1.6,1.35c-.53,0-.73-.31-.5-.87.38-.89.95-1.38,1.61-1.38S101.84,19.93,101.61,20.48Zm3.59-2.15h-3.5a4.28,4.28,0,0,0-3.78,2.36,1.37,1.37,0,0,0,.32,1.81,3.69,3.69,0,0,0-.93.31,1.88,1.88,0,0,0-.83.85.89.89,0,0,0,.38,1.16,3,3,0,0,0-2.15,1.4c-.29.7-.07,1.55,2.33,1.55s3.66-1,4.1-2c1-2.39-3.07-1.69-2.77-2.41.12-.26.38-.33,1.28-.33a3.94,3.94,0,0,0,3.59-2.29,2.14,2.14,0,0,0,.19-1h1Zm-7.27,6.86c1,.25,1.56.32,1.36.79s-.67.59-1.71.59-1.3-.21-1.11-.65S97,25.3,97.93,25.19Z"/><path class="cls-1" d="M106.53,20.65a2.35,2.35,0,0,1,1.79-1.15c.63,0,.81.47.41,1.15ZM110,21.72c1.29-2,.86-3.5-1.09-3.5A5.83,5.83,0,0,0,104,21.67c-.78,1.85-.08,3,1.83,3a8.11,8.11,0,0,0,2.37-.46l1-1.56a8.86,8.86,0,0,1-2.59.64c-.9,0-1.28-.59-.75-1.62Z"/><path class="cls-1" d="M114.91,19.68c1.52-.3,2.06.22,1.59,1.31a3.47,3.47,0,0,1-3,2.21.92.92,0,0,1-.51-.12Zm1.45-2.57h-1.87L113.2,19.4a8.32,8.32,0,0,0-2.74,2.47c0,.07,0,.13.05.13.33,0,.62-.57,2-1.34l-4,7.11h1.86l1.79-3.17a2.61,2.61,0,0,0,.79.12A6.51,6.51,0,0,0,118.45,21c.7-1.64.06-2.73-1.58-2.73l-.55,0-.65.09Z"/><path class="cls-1" d="M79.1,35.21a2.76,2.76,0,0,1-.54.07c-1,0-1.43-.56-1-1.48A3.25,3.25,0,0,1,80.94,32Zm6.36-7.95H83.59l-1.74,3.11A7.48,7.48,0,0,0,81,30.3a6,6,0,0,0-5.38,3.49c-.78,1.85.13,3,2.35,3a13.54,13.54,0,0,0,2.24-.21Z"/><path class="cls-1" d="M85.59,32.73a2.35,2.35,0,0,1,1.79-1.15c.63,0,.8.47.41,1.15Zm3.46,1.07c1.29-2,.87-3.5-1.09-3.5a5.82,5.82,0,0,0-4.86,3.45c-.78,1.85-.08,3,1.83,3a8.12,8.12,0,0,0,2.37-.45l1-1.56a9,9,0,0,1-2.58.63c-.9,0-1.29-.59-.75-1.62Z"/><path class="cls-1" d="M78.55,41.62a3.06,3.06,0,0,0-2-.83,2,2,0,0,0-1.77,1c-.57,1.35,2.82,1.53,1.7,4.17a4.85,4.85,0,0,1-4.42,2.88,3.91,3.91,0,0,1-2.82-.9l1-1.64a3.43,3.43,0,0,0,2.26,1,1.91,1.91,0,0,0,1.79-1c.66-1.56-2.73-1.74-1.68-4.21a5.07,5.07,0,0,1,4.52-2.84,3.88,3.88,0,0,1,2.38.74Z"/><path class="cls-1" d="M81.45,46.94a3.3,3.3,0,0,1-1.57.55c-.57,0-.72-.44-.4-1.2A3.61,3.61,0,0,1,83.13,44Zm4.32-4.35a8.29,8.29,0,0,0-2-.21,6.44,6.44,0,0,0-6.16,3.81c-.67,1.57-.22,2.69,1,2.69a4.13,4.13,0,0,0,2.11-.7l-.33.58h1.86Z"/><path class="cls-1" d="M85.84,48.76H84l3.54-6.27h1.86Zm4.53-8a1.65,1.65,0,0,1-1.38,1c-.53,0-.78-.43-.55-1a1.64,1.64,0,0,1,1.37-1C90.35,39.78,90.6,40.21,90.37,40.75Z"/><path class="cls-1" d="M92.58,43.19a4.78,4.78,0,0,1,2.48-.81c1.45,0,1.32,1.21.6,2.5l-2.19,3.88H91.61L93.72,45c.34-.61.48-1.26,0-1.26a3.93,3.93,0,0,0-2,1l-2.28,4H87.58l3.54-6.27H93Z"/><path class="cls-1" d="M101,42.49h1.38l-.83,1.38h-1.38L99,45.9c-.43.7-.57,1.31,0,1.31a3.5,3.5,0,0,0,1.24-.37l-.7,1.64a4.52,4.52,0,0,1-1.77.4c-1.55,0-1.58-1.31-.79-2.62l1.45-2.39H97.06l.82-1.38h1.27l.79-1.33h1.89Z"/><path class="cls-1" d="M104,44.81a2.35,2.35,0,0,1,1.79-1.15c.63,0,.81.47.41,1.15Zm3.47,1.08c1.29-2,.86-3.51-1.1-3.51a5.82,5.82,0,0,0-4.86,3.45c-.78,1.85-.08,3.05,1.83,3.05a8.06,8.06,0,0,0,2.37-.45l1-1.56a9.09,9.09,0,0,1-2.59.63c-.9,0-1.28-.59-.75-1.61Z"/><path class="cls-1" d="M112.16,46.6h-4.31l1.07-1.9h4.32Z"/><path class="cls-1" d="M122,40.92h-3.4l-1.26,2.23h2.94l-.88,1.58h-2.94l-2.3,4h-2l5.32-9.42h5.43Z"/><path class="cls-1" d="M124.91,45.28c-.37.87-1.43,2.08-2.5,2.08-.55,0-1.06-.44-.65-1.39.27-.64,1.26-2.07,2.48-2.07C125,43.9,125.26,44.45,124.91,45.28Zm1.91,0c.76-1.79-.06-2.95-1.86-2.95a6.08,6.08,0,0,0-5.09,3.48c-.72,1.7.1,3,1.88,3A6,6,0,0,0,126.82,45.33Z"/><path class="cls-1" d="M126.51,51.93h-2L128,48.18l.41-5.69h1.86l-.32,3.66,3.21-3.66h1.94Z"/></g></g></svg>