<svg viewBox="0 0 135.07 51.93" xmlns="http://www.w3.org/2000/svg"><g fill="#074a94"><path d="m12.55 27-2 3.46a44 44 0 0 1 14.3 15.34h.6a47.5 47.5 0 0 0 -12.9-18.8z"/><path d="m14.41 23.76a39.9 39.9 0 0 1 11.93 22h.55c-.32-4.73-2.36-18.09-10.21-25.95l-2.27 3.91z"/><path d="m46.48 33.54a45.42 45.42 0 0 0 -16.2 12.26h.56c.44-.39 1.59-1.22 2.22-1.73a47.46 47.46 0 0 1 14.88-7l5.65 9.93h-22.74v-1.2h-6.77v1.2h-21.86l9.4-15.86-1.07-.65-10.55 17.71h24.08v-1.15h6.77v1.16h25s-6.65-11.37-6.54-11.39a35.23 35.23 0 0 1 12.12-.82l2.72-5.83a39.47 39.47 0 0 0 -17.67 3.35z"/><path d="m43.13 26.19-15.08-26.19-9.05 15.84c2.33 2.47 8.65 10.82 8.79 30h.68c.46-19.66-3.81-29.08-6.32-32.86l5.91-10.46 14.09 24.48a46.41 46.41 0 0 0 -13.1 18.8h.62a51.13 51.13 0 0 1 9-11.1 38.71 38.71 0 0 1 28.18-10.32l3.09-6.64c-11.83-.38-20.54 3.47-26.81 8.45z"/><path d="m91.35 17.14a6.19 6.19 0 0 0 -7.7 3.31c-.65 1.55-.03 2.55 1.62 2.55a9.23 9.23 0 0 0 3.89-1.11l-1.16 2.11a10.24 10.24 0 0 1 -3.63.75c-2.73 0-3.84-1.74-2.75-4.31a9.25 9.25 0 0 1 8.38-5.39 8.4 8.4 0 0 1 2.4.35z"/><path d="m92.74 20.65a2.32 2.32 0 0 1 1.78-1.15c.63 0 .81.47.41 1.15zm1.56-3h1l3.45-2.38h-2.21zm1.9 4.08c1.29-2 .86-3.5-1.1-3.5a5.8 5.8 0 0 0 -4.85 3.45c-.79 1.85-.09 3 1.82 3a8.11 8.11 0 0 0 2.37-.46l1-1.56a8.86 8.86 0 0 1 -2.59.64c-.9 0-1.28-.59-.75-1.62z"/><path d="m101.61 20.48a1.89 1.89 0 0 1 -1.6 1.35c-.53 0-.73-.31-.5-.87.38-.89.95-1.38 1.61-1.38s.72.35.49.9zm3.59-2.15h-3.5a4.28 4.28 0 0 0 -3.78 2.36 1.37 1.37 0 0 0 .32 1.81 3.69 3.69 0 0 0 -.93.31 1.88 1.88 0 0 0 -.83.85.89.89 0 0 0 .38 1.16 3 3 0 0 0 -2.15 1.4c-.29.69-.07 1.55 2.33 1.55s3.66-1 4.1-2c1-2.39-3.07-1.69-2.77-2.41.12-.26.38-.33 1.28-.33a3.94 3.94 0 0 0 3.59-2.29 2.14 2.14 0 0 0 .19-1h1zm-7.27 6.86c1 .25 1.56.32 1.36.79s-.67.59-1.71.59-1.3-.21-1.11-.65.53-.62 1.46-.73z"/><path d="m106.53 20.65a2.35 2.35 0 0 1 1.79-1.15c.63 0 .81.47.41 1.15zm3.47 1.07c1.29-2 .86-3.5-1.09-3.5a5.83 5.83 0 0 0 -4.91 3.45c-.78 1.85-.08 3 1.83 3a8.11 8.11 0 0 0 2.37-.46l1-1.56a8.86 8.86 0 0 1 -2.59.64c-.9 0-1.28-.59-.75-1.62z"/><path d="m114.91 19.68c1.52-.3 2.06.22 1.59 1.31a3.47 3.47 0 0 1 -3 2.21.92.92 0 0 1 -.51-.12zm1.45-2.57h-1.87l-1.29 2.29a8.32 8.32 0 0 0 -2.74 2.47c0 .07 0 .13.05.13.33 0 .62-.57 2-1.34l-4 7.11h1.86l1.79-3.17a2.61 2.61 0 0 0 .79.12 6.51 6.51 0 0 0 5.5-3.72c.7-1.64.06-2.73-1.58-2.73h-.55l-.65.09z"/><path d="m79.1 35.21a2.76 2.76 0 0 1 -.54.07c-1 0-1.43-.56-1-1.48a3.25 3.25 0 0 1 3.38-1.8zm6.36-7.95h-1.87l-1.74 3.11a7.48 7.48 0 0 0 -.85-.07 6 6 0 0 0 -5.38 3.49c-.78 1.85.13 3 2.35 3a13.54 13.54 0 0 0 2.24-.21z"/><path d="m85.59 32.73a2.35 2.35 0 0 1 1.79-1.15c.63 0 .8.47.41 1.15zm3.46 1.07c1.29-2 .87-3.5-1.09-3.5a5.82 5.82 0 0 0 -4.86 3.45c-.78 1.85-.08 3 1.83 3a8.12 8.12 0 0 0 2.37-.45l1-1.56a9 9 0 0 1 -2.58.63c-.9 0-1.29-.59-.75-1.62z"/><path d="m78.55 41.62a3.06 3.06 0 0 0 -2-.83 2 2 0 0 0 -1.77 1c-.57 1.35 2.82 1.53 1.7 4.17a4.85 4.85 0 0 1 -4.42 2.88 3.91 3.91 0 0 1 -2.82-.9l1-1.64a3.43 3.43 0 0 0 2.26 1 1.91 1.91 0 0 0 1.79-1c.66-1.56-2.73-1.74-1.68-4.21a5.07 5.07 0 0 1 4.52-2.84 3.88 3.88 0 0 1 2.38.74z"/><path d="m81.45 46.94a3.3 3.3 0 0 1 -1.57.55c-.57 0-.72-.44-.4-1.2a3.61 3.61 0 0 1 3.65-2.29zm4.32-4.35a8.29 8.29 0 0 0 -2-.21 6.44 6.44 0 0 0 -6.16 3.81c-.67 1.57-.22 2.69 1 2.69a4.13 4.13 0 0 0 2.11-.7l-.33.58h1.86z"/><path d="m85.84 48.76h-1.84l3.54-6.27h1.86zm4.53-8a1.65 1.65 0 0 1 -1.38 1c-.53 0-.78-.43-.55-1a1.64 1.64 0 0 1 1.37-1c.54.02.79.45.56.99z"/><path d="m92.58 43.19a4.78 4.78 0 0 1 2.48-.81c1.45 0 1.32 1.21.6 2.5l-2.19 3.88h-1.86l2.11-3.76c.34-.61.48-1.26 0-1.26a3.93 3.93 0 0 0 -2 1l-2.28 4h-1.86l3.54-6.27h1.88z"/><path d="m101 42.49h1.38l-.83 1.38h-1.38l-1.17 2.03c-.43.7-.57 1.31 0 1.31a3.5 3.5 0 0 0 1.24-.37l-.7 1.64a4.52 4.52 0 0 1 -1.77.4c-1.55 0-1.58-1.31-.79-2.62l1.45-2.39h-1.37l.82-1.38h1.27l.79-1.33h1.89z"/><path d="m104 44.81a2.35 2.35 0 0 1 1.79-1.15c.63 0 .81.47.41 1.15zm3.47 1.08c1.29-2 .86-3.51-1.1-3.51a5.82 5.82 0 0 0 -4.86 3.45c-.78 1.85-.08 3.05 1.83 3.05a8.06 8.06 0 0 0 2.37-.45l1-1.56a9.09 9.09 0 0 1 -2.59.63c-.9 0-1.28-.59-.75-1.61z"/><path d="m112.16 46.6h-4.31l1.07-1.9h4.32z"/><path d="m122 40.92h-3.4l-1.26 2.23h2.94l-.88 1.58h-2.94l-2.3 4h-2l5.32-9.42h5.43z"/><path d="m124.91 45.28c-.37.87-1.43 2.08-2.5 2.08-.55 0-1.06-.44-.65-1.39.27-.64 1.26-2.07 2.48-2.07.76 0 1.02.55.67 1.38zm1.91 0c.76-1.79-.06-2.95-1.86-2.95a6.08 6.08 0 0 0 -5.09 3.48c-.72 1.7.1 3 1.88 3a6 6 0 0 0 5.07-3.48z"/><path d="m126.51 51.93h-2l3.49-3.75.41-5.69h1.86l-.32 3.66 3.21-3.66h1.94z"/></g></svg>