<svg width="81" height="81" viewBox="0 0 81 81" fill="none" xmlns="http://www.w3.org/2000/svg">
<path d="M40.5 0C18.1669 0 0 18.1687 0 40.5C0 62.8313 18.1669 81 40.5 81C62.8331 81 81 62.8313 81 40.5C81 18.1687 62.8331 0 40.5 0ZM40.5 77.6251C20.0291 77.6251 3.37495 60.9709 3.37495 40.5C3.37495 20.0291 20.0291 3.37495 40.5 3.37495C60.9709 3.37495 77.6251 20.0291 77.6251 40.5C77.6251 60.9709 60.9709 77.6251 40.5 77.6251Z" fill="#EFEFEF"/>
<path d="M32.9755 23.8935L56.6005 39.081C57.0817 39.3909 57.3751 39.9264 57.3751 40.4999C57.3751 41.0734 57.0817 41.609 56.6005 41.9188L32.9755 57.1063C32.6987 57.2859 32.379 57.3749 32.0626 57.3749C31.7857 57.3749 31.5055 57.3058 31.2551 57.169C30.7112 56.8723 30.375 56.3053 30.375 55.6874V25.3124C30.375 24.6944 30.7112 24.1274 31.2551 23.8308C31.789 23.5375 32.4581 23.5557 32.9755 23.8935Z" fill="#EFEFEF"/>
</svg>
