<svg width="81" height="81" viewBox="0 0 81 81" fill="none" xmlns="http://www.w3.org/2000/svg">
<path d="M40.5 0C18.1669 0 0 18.1687 0 40.5C0 62.8313 18.1669 81 40.5 81C62.8331 81 81 62.8313 81 40.5C81 18.1687 62.8331 0 40.5 0ZM40.5 77.6251C20.0291 77.6251 3.37495 60.9709 3.37495 40.5C3.37495 20.0291 20.0291 3.37495 40.5 3.37495C60.9709 3.37495 77.6251 20.0291 77.6251 40.5C77.6251 60.9709 60.9709 77.6251 40.5 77.6251Z" fill="#4D4D4D"/>
<path d="M56.6005 39.0811L32.9755 23.8936C32.4581 23.5558 31.789 23.5376 31.2551 23.8309C30.7112 24.1276 30.375 24.6946 30.375 25.3125V55.6875C30.375 56.3054 30.7112 56.8724 31.2551 57.1691C31.5055 57.3059 31.7857 57.3751 32.0626 57.3751C32.379 57.3751 32.6987 57.286 32.9755 57.1064L56.6005 41.9189C57.0817 41.6092 57.3751 41.0735 57.3751 40.5C57.3751 39.9265 57.0817 39.391 56.6005 39.0811ZM33.7499 52.5959V28.4041L52.5663 40.5L33.7499 52.5959Z" fill="#4D4D4D"/>
</svg>
