<svg width="360" height="200" viewBox="0 0 360 200" fill="none" xmlns="http://www.w3.org/2000/svg">
<path d="M131.8 55.8C131.1 62.9 130.75 69.3 130.75 75C130.75 80 130.9 84.1 131.2 87.3H127.75C126.95 79.6 125.95 73.9 124.75 70.2C123.55 66.4 121.45 63.65 118.45 61.95C115.45 60.15 110.85 59.25 104.65 59.25H96.55V144.6C96.55 148.8 96.95 151.85 97.75 153.75C98.55 155.65 99.95 156.95 101.95 157.65C103.95 158.35 107.2 158.8 111.7 159V162C106.5 161.7 99.15 161.55 89.65 161.55C79.65 161.55 72.25 161.7 67.45 162V159C71.95 158.8 75.2 158.35 77.2 157.65C79.2 156.95 80.6 155.65 81.4 153.75C82.2 151.85 82.6 148.8 82.6 144.6V59.25H74.5C68.3 59.25 63.7 60.15 60.7 61.95C57.7 63.65 55.6 66.4 54.4 70.2C53.2 73.9 52.2 79.6 51.4 87.3H47.95C48.25 84.1 48.4 80 48.4 75C48.4 69.3 48.05 62.9 47.35 55.8C55.65 56.1 69.75 56.25 89.65 56.25C109.45 56.25 123.5 56.1 131.8 55.8ZM180.714 58.8C177.114 59 174.464 59.4 172.764 60C171.164 60.6 170.064 61.75 169.464 63.45C168.864 65.15 168.564 67.9 168.564 71.7V146.1C168.564 149.9 168.864 152.65 169.464 154.35C170.064 156.05 171.164 157.2 172.764 157.8C174.464 158.4 177.114 158.8 180.714 159V162C176.114 161.7 169.764 161.55 161.664 161.55C153.064 161.55 146.664 161.7 142.464 162V159C146.064 158.8 148.664 158.4 150.264 157.8C151.964 157.2 153.114 156.05 153.714 154.35C154.314 152.65 154.614 149.9 154.614 146.1V71.7C154.614 67.9 154.314 65.15 153.714 63.45C153.114 61.75 151.964 60.6 150.264 60C148.664 59.4 146.064 59 142.464 58.8V55.8C146.664 56.1 153.064 56.25 161.664 56.25C169.664 56.25 176.014 56.1 180.714 55.8V58.8ZM311.344 58.8C307.744 59 305.094 59.4 303.394 60C301.794 60.6 300.694 61.75 300.094 63.45C299.494 65.15 299.194 67.9 299.194 71.7V146.1C299.194 149.9 299.494 152.65 300.094 154.35C300.694 156.05 301.794 157.2 303.394 157.8C305.094 158.4 307.744 158.8 311.344 159V162C306.744 161.7 300.394 161.55 292.294 161.55C283.694 161.55 277.294 161.7 273.094 162V159C276.694 158.8 279.294 158.4 280.894 157.8C282.594 157.2 283.744 156.05 284.344 154.35C284.944 152.65 285.244 149.9 285.244 146.1V65.7L249.094 162.75H246.694L208.894 65.4V144.6C208.894 148.5 209.194 151.4 209.794 153.3C210.494 155.2 211.794 156.6 213.694 157.5C215.594 158.3 218.544 158.8 222.544 159V162C218.944 161.7 213.844 161.55 207.244 161.55C201.244 161.55 196.594 161.7 193.294 162V159C196.794 158.8 199.394 158.3 201.094 157.5C202.794 156.6 203.944 155.2 204.544 153.3C205.144 151.3 205.444 148.4 205.444 144.6V71.7C205.444 67.9 205.144 65.15 204.544 63.45C203.944 61.75 202.794 60.6 201.094 60C199.494 59.4 196.894 59 193.294 58.8V55.8C196.594 56.1 201.244 56.25 207.244 56.25C212.444 56.25 216.694 56.1 219.994 55.8L252.994 142.65L285.244 56.25H292.294C300.394 56.25 306.744 56.1 311.344 55.8V58.8Z" fill="black"/>
<path d="M11.216 186.84H7.504V197H5.96V186.84H2.24V185.536H11.216V186.84ZM16.052 192.064C16.052 191.733 16.004 191.432 15.908 191.16C15.8173 190.883 15.6813 190.645 15.5 190.448C15.324 190.245 15.108 190.091 14.852 189.984C14.596 189.872 14.3053 189.816 13.98 189.816C13.2973 189.816 12.756 190.016 12.356 190.416C11.9613 190.811 11.716 191.36 11.62 192.064H16.052ZM17.204 195.864C17.028 196.077 16.8173 196.264 16.572 196.424C16.3267 196.579 16.0627 196.707 15.78 196.808C15.5027 196.909 15.2147 196.984 14.916 197.032C14.6173 197.085 14.3213 197.112 14.028 197.112C13.468 197.112 12.9507 197.019 12.476 196.832C12.0067 196.64 11.5987 196.363 11.252 196C10.9107 195.632 10.644 195.179 10.452 194.64C10.26 194.101 10.164 193.483 10.164 192.784C10.164 192.219 10.2493 191.691 10.42 191.2C10.596 190.709 10.8467 190.285 11.172 189.928C11.4973 189.565 11.8947 189.283 12.364 189.08C12.8333 188.872 13.3613 188.768 13.948 188.768C14.4333 188.768 14.8813 188.851 15.292 189.016C15.708 189.176 16.0653 189.411 16.364 189.72C16.668 190.024 16.9053 190.403 17.076 190.856C17.2467 191.304 17.332 191.816 17.332 192.392C17.332 192.616 17.308 192.765 17.26 192.84C17.212 192.915 17.1213 192.952 16.988 192.952H11.572C11.588 193.464 11.6573 193.909 11.78 194.288C11.908 194.667 12.084 194.984 12.308 195.24C12.532 195.491 12.7987 195.68 13.108 195.808C13.4173 195.931 13.764 195.992 14.148 195.992C14.5053 195.992 14.812 195.952 15.068 195.872C15.3293 195.787 15.5533 195.696 15.74 195.6C15.9267 195.504 16.0813 195.416 16.204 195.336C16.332 195.251 16.4413 195.208 16.532 195.208C16.6493 195.208 16.74 195.253 16.804 195.344L17.204 195.864ZM24.7211 190.336C24.6785 190.395 24.6358 190.44 24.5931 190.472C24.5505 190.504 24.4918 190.52 24.4171 190.52C24.3371 190.52 24.2491 190.488 24.1531 190.424C24.0571 190.355 23.9371 190.28 23.7931 190.2C23.6545 190.12 23.4811 190.048 23.2731 189.984C23.0705 189.915 22.8198 189.88 22.5211 189.88C22.1211 189.88 21.7691 189.952 21.4651 190.096C21.1611 190.235 20.9051 190.437 20.6971 190.704C20.4945 190.971 20.3398 191.293 20.2331 191.672C20.1318 192.051 20.0811 192.475 20.0811 192.944C20.0811 193.435 20.1371 193.872 20.2491 194.256C20.3611 194.635 20.5185 194.955 20.7211 195.216C20.9291 195.472 21.1771 195.669 21.4651 195.808C21.7585 195.941 22.0865 196.008 22.4491 196.008C22.7958 196.008 23.0811 195.968 23.3051 195.888C23.5291 195.803 23.7131 195.709 23.8571 195.608C24.0065 195.507 24.1291 195.416 24.2251 195.336C24.3265 195.251 24.4251 195.208 24.5211 195.208C24.6385 195.208 24.7291 195.253 24.7931 195.344L25.1931 195.864C25.0171 196.083 24.8171 196.269 24.5931 196.424C24.3691 196.579 24.1265 196.709 23.8651 196.816C23.6091 196.917 23.3398 196.992 23.0571 197.04C22.7745 197.088 22.4865 197.112 22.1931 197.112C21.6865 197.112 21.2145 197.019 20.7771 196.832C20.3451 196.645 19.9691 196.376 19.6491 196.024C19.3291 195.667 19.0785 195.229 18.8971 194.712C18.7158 194.195 18.6251 193.605 18.6251 192.944C18.6251 192.341 18.7078 191.784 18.8731 191.272C19.0438 190.76 19.2891 190.32 19.6091 189.952C19.9345 189.579 20.3318 189.288 20.8011 189.08C21.2758 188.872 21.8198 188.768 22.4331 188.768C23.0038 188.768 23.5051 188.861 23.9371 189.048C24.3745 189.229 24.7611 189.488 25.0971 189.824L24.7211 190.336ZM28.1538 189.976C28.5004 189.608 28.8844 189.315 29.3058 189.096C29.7271 188.877 30.2124 188.768 30.7618 188.768C31.2044 188.768 31.5938 188.843 31.9298 188.992C32.2711 189.136 32.5538 189.344 32.7778 189.616C33.0071 189.883 33.1804 190.205 33.2978 190.584C33.4151 190.963 33.4738 191.381 33.4738 191.84V197H32.0418V191.84C32.0418 191.227 31.9004 190.752 31.6178 190.416C31.3404 190.075 30.9164 189.904 30.3458 189.904C29.9244 189.904 29.5298 190.005 29.1618 190.208C28.7991 190.411 28.4631 190.685 28.1538 191.032V197H26.7218V185.216H28.1538V189.976ZM36.9876 190.072C37.1636 189.875 37.3503 189.696 37.5476 189.536C37.745 189.376 37.953 189.24 38.1716 189.128C38.3956 189.011 38.6303 188.923 38.8756 188.864C39.1263 188.8 39.3956 188.768 39.6836 188.768C40.1263 188.768 40.5156 188.843 40.8516 188.992C41.193 189.136 41.4756 189.344 41.6996 189.616C41.929 189.883 42.1023 190.205 42.2196 190.584C42.337 190.963 42.3956 191.381 42.3956 191.84V197H40.9636V191.84C40.9636 191.227 40.8223 190.752 40.5396 190.416C40.2623 190.075 39.8383 189.904 39.2676 189.904C38.8463 189.904 38.4516 190.005 38.0836 190.208C37.721 190.411 37.385 190.685 37.0756 191.032V197H35.6436V188.896H36.4996C36.7023 188.896 36.8276 188.995 36.8756 189.192L36.9876 190.072ZM46.0695 188.896V197H44.6455V188.896H46.0695ZM46.3735 186.352C46.3735 186.491 46.3442 186.621 46.2855 186.744C46.2322 186.861 46.1575 186.968 46.0615 187.064C45.9708 187.155 45.8615 187.227 45.7335 187.28C45.6108 187.333 45.4802 187.36 45.3415 187.36C45.2028 187.36 45.0722 187.333 44.9495 187.28C44.8322 187.227 44.7282 187.155 44.6375 187.064C44.5468 186.968 44.4748 186.861 44.4215 186.744C44.3682 186.621 44.3415 186.491 44.3415 186.352C44.3415 186.213 44.3682 186.083 44.4215 185.96C44.4748 185.832 44.5468 185.723 44.6375 185.632C44.7282 185.536 44.8322 185.461 44.9495 185.408C45.0722 185.355 45.2028 185.328 45.3415 185.328C45.4802 185.328 45.6108 185.355 45.7335 185.408C45.8615 185.461 45.9708 185.536 46.0615 185.632C46.1575 185.723 46.2322 185.832 46.2855 185.96C46.3442 186.083 46.3735 186.213 46.3735 186.352ZM53.6893 190.816C53.4333 190.475 53.1479 190.232 52.8333 190.088C52.5186 189.939 52.1693 189.864 51.7853 189.864C51.0333 189.864 50.4546 190.133 50.0493 190.672C49.6439 191.211 49.4413 191.979 49.4413 192.976C49.4413 193.504 49.4866 193.957 49.5773 194.336C49.6679 194.709 49.8013 195.019 49.9773 195.264C50.1533 195.504 50.3693 195.68 50.6253 195.792C50.8813 195.904 51.1719 195.96 51.4973 195.96C51.9666 195.96 52.3746 195.853 52.7213 195.64C53.0733 195.427 53.3959 195.125 53.6893 194.736V190.816ZM55.1133 188.896V199.744H53.6893V195.792C53.3533 196.187 52.9666 196.507 52.5293 196.752C52.0919 196.992 51.5933 197.112 51.0333 197.112C50.5693 197.112 50.1479 197.024 49.7693 196.848C49.3906 196.667 49.0679 196.403 48.8013 196.056C48.5346 195.709 48.3293 195.277 48.1853 194.76C48.0413 194.243 47.9693 193.648 47.9693 192.976C47.9693 192.379 48.0493 191.824 48.2093 191.312C48.3693 190.795 48.5986 190.347 48.8973 189.968C49.1959 189.589 49.5613 189.293 49.9933 189.08C50.4306 188.861 50.9213 188.752 51.4653 188.752C51.9933 188.752 52.4413 188.845 52.8093 189.032C53.1773 189.219 53.5026 189.48 53.7853 189.816L53.8813 189.192C53.9346 188.995 54.0626 188.896 54.2653 188.896H55.1133ZM64.0264 188.896V197H63.1784C62.9757 197 62.8477 196.901 62.7944 196.704L62.6824 195.832C62.3304 196.221 61.9357 196.536 61.4984 196.776C61.061 197.011 60.5597 197.128 59.9944 197.128C59.5517 197.128 59.1597 197.056 58.8184 196.912C58.4824 196.763 58.1997 196.555 57.9704 196.288C57.741 196.021 57.5677 195.699 57.4504 195.32C57.3384 194.941 57.2824 194.523 57.2824 194.064V188.896H58.7064V194.064C58.7064 194.677 58.845 195.152 59.1224 195.488C59.405 195.824 59.8344 195.992 60.4104 195.992C60.8317 195.992 61.2237 195.893 61.5864 195.696C61.9544 195.493 62.293 195.216 62.6024 194.864V188.896H64.0264ZM71.7083 192.064C71.7083 191.733 71.6603 191.432 71.5643 191.16C71.4736 190.883 71.3376 190.645 71.1563 190.448C70.9803 190.245 70.7643 190.091 70.5083 189.984C70.2523 189.872 69.9616 189.816 69.6363 189.816C68.9536 189.816 68.4123 190.016 68.0123 190.416C67.6176 190.811 67.3723 191.36 67.2763 192.064H71.7083ZM72.8603 195.864C72.6843 196.077 72.4736 196.264 72.2283 196.424C71.9829 196.579 71.7189 196.707 71.4363 196.808C71.1589 196.909 70.8709 196.984 70.5723 197.032C70.2736 197.085 69.9776 197.112 69.6843 197.112C69.1243 197.112 68.6069 197.019 68.1323 196.832C67.6629 196.64 67.2549 196.363 66.9083 196C66.5669 195.632 66.3003 195.179 66.1083 194.64C65.9163 194.101 65.8203 193.483 65.8203 192.784C65.8203 192.219 65.9056 191.691 66.0763 191.2C66.2523 190.709 66.5029 190.285 66.8283 189.928C67.1536 189.565 67.5509 189.283 68.0203 189.08C68.4896 188.872 69.0176 188.768 69.6043 188.768C70.0896 188.768 70.5376 188.851 70.9483 189.016C71.3643 189.176 71.7216 189.411 72.0203 189.72C72.3243 190.024 72.5616 190.403 72.7323 190.856C72.9029 191.304 72.9883 191.816 72.9883 192.392C72.9883 192.616 72.9643 192.765 72.9163 192.84C72.8683 192.915 72.7776 192.952 72.6443 192.952H67.2283C67.2443 193.464 67.3136 193.909 67.4363 194.288C67.5643 194.667 67.7403 194.984 67.9643 195.24C68.1883 195.491 68.4549 195.68 68.7643 195.808C69.0736 195.931 69.4203 195.992 69.8043 195.992C70.1616 195.992 70.4683 195.952 70.7243 195.872C70.9856 195.787 71.2096 195.696 71.3963 195.6C71.5829 195.504 71.7376 195.416 71.8603 195.336C71.9883 195.251 72.0976 195.208 72.1883 195.208C72.3056 195.208 72.3963 195.253 72.4603 195.344L72.8603 195.864ZM79.4574 190.232C79.3934 190.349 79.2947 190.408 79.1614 190.408C79.0814 190.408 78.9907 190.379 78.8894 190.32C78.788 190.261 78.6627 190.197 78.5134 190.128C78.3694 190.053 78.196 189.987 77.9934 189.928C77.7907 189.864 77.5507 189.832 77.2734 189.832C77.0334 189.832 76.8174 189.864 76.6254 189.928C76.4334 189.987 76.268 190.069 76.1294 190.176C75.996 190.283 75.892 190.408 75.8174 190.552C75.748 190.691 75.7134 190.843 75.7134 191.008C75.7134 191.216 75.772 191.389 75.8894 191.528C76.012 191.667 76.172 191.787 76.3694 191.888C76.5667 191.989 76.7907 192.08 77.0414 192.16C77.292 192.235 77.548 192.317 77.8094 192.408C78.076 192.493 78.3347 192.589 78.5854 192.696C78.836 192.803 79.06 192.936 79.2574 193.096C79.4547 193.256 79.612 193.453 79.7294 193.688C79.852 193.917 79.9134 194.195 79.9134 194.52C79.9134 194.893 79.8467 195.24 79.7134 195.56C79.58 195.875 79.3827 196.149 79.1214 196.384C78.86 196.613 78.54 196.795 78.1614 196.928C77.7827 197.061 77.3454 197.128 76.8494 197.128C76.284 197.128 75.772 197.037 75.3134 196.856C74.8547 196.669 74.4654 196.432 74.1454 196.144L74.4814 195.6C74.524 195.531 74.5747 195.477 74.6334 195.44C74.692 195.403 74.7667 195.384 74.8574 195.384C74.9534 195.384 75.0547 195.421 75.1614 195.496C75.268 195.571 75.396 195.653 75.5454 195.744C75.7 195.835 75.8867 195.917 76.1054 195.992C76.324 196.067 76.596 196.104 76.9214 196.104C77.1987 196.104 77.4414 196.069 77.6494 196C77.8574 195.925 78.0307 195.827 78.1694 195.704C78.308 195.581 78.4094 195.44 78.4734 195.28C78.5427 195.12 78.5774 194.949 78.5774 194.768C78.5774 194.544 78.516 194.36 78.3934 194.216C78.276 194.067 78.1187 193.941 77.9214 193.84C77.724 193.733 77.4974 193.643 77.2414 193.568C76.9907 193.488 76.732 193.405 76.4654 193.32C76.204 193.235 75.9454 193.139 75.6894 193.032C75.4387 192.92 75.2147 192.781 75.0174 192.616C74.82 192.451 74.66 192.248 74.5374 192.008C74.42 191.763 74.3614 191.467 74.3614 191.12C74.3614 190.811 74.4254 190.515 74.5534 190.232C74.6814 189.944 74.868 189.693 75.1134 189.48C75.3587 189.261 75.66 189.088 76.0174 188.96C76.3747 188.832 76.7827 188.768 77.2414 188.768C77.7747 188.768 78.252 188.853 78.6734 189.024C79.1 189.189 79.468 189.419 79.7774 189.712L79.4574 190.232ZM91.033 190.824C90.7663 190.467 90.4783 190.219 90.169 190.08C89.8597 189.936 89.513 189.864 89.129 189.864C88.377 189.864 87.7983 190.133 87.393 190.672C86.9877 191.211 86.785 191.979 86.785 192.976C86.785 193.504 86.8303 193.957 86.921 194.336C87.0117 194.709 87.145 195.019 87.321 195.264C87.497 195.504 87.713 195.68 87.969 195.792C88.225 195.904 88.5157 195.96 88.841 195.96C89.3103 195.96 89.7183 195.853 90.065 195.64C90.417 195.427 90.7397 195.125 91.033 194.736V190.824ZM92.457 185.216V197H91.609C91.4063 197 91.2783 196.901 91.225 196.704L91.097 195.72C90.7503 196.136 90.3557 196.472 89.913 196.728C89.4703 196.984 88.9583 197.112 88.377 197.112C87.913 197.112 87.4917 197.024 87.113 196.848C86.7343 196.667 86.4117 196.403 86.145 196.056C85.8783 195.709 85.673 195.277 85.529 194.76C85.385 194.243 85.313 193.648 85.313 192.976C85.313 192.379 85.393 191.824 85.553 191.312C85.713 190.795 85.9423 190.347 86.241 189.968C86.5397 189.589 86.905 189.293 87.337 189.08C87.7743 188.861 88.265 188.752 88.809 188.752C89.305 188.752 89.729 188.837 90.081 189.008C90.4383 189.173 90.7557 189.405 91.033 189.704V185.216H92.457ZM95.6901 184.768C95.9141 185.147 96.0661 185.547 96.1461 185.968C96.2261 186.389 96.2341 186.805 96.1701 187.216C96.1061 187.627 95.9728 188.021 95.7701 188.4C95.5675 188.779 95.2981 189.115 94.9621 189.408L94.5301 189.128C94.4501 189.08 94.4128 189.019 94.4181 188.944C94.4288 188.864 94.4555 188.8 94.4981 188.752C94.6368 188.581 94.7541 188.376 94.8501 188.136C94.9515 187.891 95.0155 187.629 95.0421 187.352C95.0741 187.069 95.0608 186.779 95.0021 186.48C94.9488 186.181 94.8395 185.893 94.6741 185.616C94.6048 185.504 94.5835 185.405 94.6101 185.32C94.6421 185.229 94.7088 185.163 94.8101 185.12L95.6901 184.768ZM99.632 188.896V197H98.208V188.896H99.632ZM99.936 186.352C99.936 186.491 99.9067 186.621 99.848 186.744C99.7947 186.861 99.72 186.968 99.624 187.064C99.5333 187.155 99.424 187.227 99.296 187.28C99.1733 187.333 99.0427 187.36 98.904 187.36C98.7653 187.36 98.6347 187.333 98.512 187.28C98.3947 187.227 98.2907 187.155 98.2 187.064C98.1093 186.968 98.0373 186.861 97.984 186.744C97.9307 186.621 97.904 186.491 97.904 186.352C97.904 186.213 97.9307 186.083 97.984 185.96C98.0373 185.832 98.1093 185.723 98.2 185.632C98.2907 185.536 98.3947 185.461 98.512 185.408C98.6347 185.355 98.7653 185.328 98.904 185.328C99.0427 185.328 99.1733 185.355 99.296 185.408C99.424 185.461 99.5333 185.536 99.624 185.632C99.72 185.723 99.7947 185.832 99.848 185.96C99.9067 186.083 99.936 186.213 99.936 186.352ZM103.316 190.072C103.492 189.875 103.678 189.696 103.876 189.536C104.073 189.376 104.281 189.24 104.5 189.128C104.724 189.011 104.958 188.923 105.204 188.864C105.454 188.8 105.724 188.768 106.012 188.768C106.454 188.768 106.844 188.843 107.18 188.992C107.521 189.136 107.804 189.344 108.028 189.616C108.257 189.883 108.43 190.205 108.548 190.584C108.665 190.963 108.724 191.381 108.724 191.84V197H107.292V191.84C107.292 191.227 107.15 190.752 106.868 190.416C106.59 190.075 106.166 189.904 105.596 189.904C105.174 189.904 104.78 190.005 104.412 190.208C104.049 190.411 103.713 190.685 103.404 191.032V197H101.972V188.896H102.828C103.03 188.896 103.156 188.995 103.204 189.192L103.316 190.072ZM113.272 197.128C112.632 197.128 112.139 196.949 111.792 196.592C111.451 196.235 111.28 195.72 111.28 195.048V190.088H110.304C110.219 190.088 110.147 190.064 110.088 190.016C110.03 189.963 110 189.883 110 189.776V189.208L111.328 189.04L111.656 186.536C111.672 186.456 111.707 186.392 111.76 186.344C111.819 186.291 111.894 186.264 111.984 186.264H112.704V189.056H115.048V190.088H112.704V194.952C112.704 195.293 112.787 195.547 112.952 195.712C113.118 195.877 113.331 195.96 113.592 195.96C113.742 195.96 113.87 195.941 113.976 195.904C114.088 195.861 114.184 195.816 114.264 195.768C114.344 195.72 114.411 195.677 114.464 195.64C114.523 195.597 114.574 195.576 114.616 195.576C114.691 195.576 114.758 195.621 114.816 195.712L115.232 196.392C114.987 196.621 114.691 196.803 114.344 196.936C113.998 197.064 113.64 197.128 113.272 197.128ZM121.896 192.064C121.896 191.733 121.848 191.432 121.752 191.16C121.661 190.883 121.525 190.645 121.344 190.448C121.168 190.245 120.952 190.091 120.696 189.984C120.44 189.872 120.149 189.816 119.824 189.816C119.141 189.816 118.6 190.016 118.2 190.416C117.805 190.811 117.56 191.36 117.464 192.064H121.896ZM123.048 195.864C122.872 196.077 122.661 196.264 122.416 196.424C122.17 196.579 121.906 196.707 121.624 196.808C121.346 196.909 121.058 196.984 120.76 197.032C120.461 197.085 120.165 197.112 119.872 197.112C119.312 197.112 118.794 197.019 118.32 196.832C117.85 196.64 117.442 196.363 117.096 196C116.754 195.632 116.488 195.179 116.296 194.64C116.104 194.101 116.008 193.483 116.008 192.784C116.008 192.219 116.093 191.691 116.264 191.2C116.44 190.709 116.69 190.285 117.016 189.928C117.341 189.565 117.738 189.283 118.208 189.08C118.677 188.872 119.205 188.768 119.792 188.768C120.277 188.768 120.725 188.851 121.136 189.016C121.552 189.176 121.909 189.411 122.208 189.72C122.512 190.024 122.749 190.403 122.92 190.856C123.09 191.304 123.176 191.816 123.176 192.392C123.176 192.616 123.152 192.765 123.104 192.84C123.056 192.915 122.965 192.952 122.832 192.952H117.416C117.432 193.464 117.501 193.909 117.624 194.288C117.752 194.667 117.928 194.984 118.152 195.24C118.376 195.491 118.642 195.68 118.952 195.808C119.261 195.931 119.608 195.992 119.992 195.992C120.349 195.992 120.656 195.952 120.912 195.872C121.173 195.787 121.397 195.696 121.584 195.6C121.77 195.504 121.925 195.416 122.048 195.336C122.176 195.251 122.285 195.208 122.376 195.208C122.493 195.208 122.584 195.253 122.648 195.344L123.048 195.864ZM122.152 185.408L120.288 187.472C120.213 187.552 120.138 187.611 120.064 187.648C119.994 187.68 119.904 187.696 119.792 187.696H118.944L120.128 185.76C120.202 185.637 120.282 185.549 120.368 185.496C120.458 185.437 120.589 185.408 120.76 185.408H122.152ZM127.749 193.04C128.037 193.04 128.29 193 128.509 192.92C128.728 192.84 128.912 192.728 129.061 192.584C129.21 192.44 129.322 192.269 129.397 192.072C129.472 191.869 129.509 191.648 129.509 191.408C129.509 190.912 129.357 190.517 129.053 190.224C128.754 189.931 128.32 189.784 127.749 189.784C127.173 189.784 126.733 189.931 126.429 190.224C126.13 190.517 125.981 190.912 125.981 191.408C125.981 191.648 126.018 191.869 126.093 192.072C126.173 192.269 126.288 192.44 126.437 192.584C126.586 192.728 126.77 192.84 126.989 192.92C127.208 193 127.461 193.04 127.749 193.04ZM130.317 197.44C130.317 197.243 130.261 197.083 130.149 196.96C130.037 196.837 129.885 196.741 129.693 196.672C129.506 196.603 129.288 196.555 129.037 196.528C128.786 196.496 128.52 196.472 128.237 196.456C127.96 196.44 127.677 196.424 127.389 196.408C127.101 196.392 126.824 196.365 126.557 196.328C126.258 196.467 126.013 196.643 125.821 196.856C125.634 197.064 125.541 197.309 125.541 197.592C125.541 197.773 125.586 197.941 125.677 198.096C125.773 198.256 125.917 198.392 126.109 198.504C126.301 198.621 126.541 198.712 126.829 198.776C127.122 198.845 127.466 198.88 127.861 198.88C128.245 198.88 128.589 198.845 128.893 198.776C129.197 198.707 129.453 198.608 129.661 198.48C129.874 198.352 130.037 198.2 130.149 198.024C130.261 197.848 130.317 197.653 130.317 197.44ZM131.765 189.216V189.744C131.765 189.92 131.653 190.032 131.429 190.08L130.509 190.2C130.69 190.552 130.781 190.941 130.781 191.368C130.781 191.763 130.704 192.123 130.549 192.448C130.4 192.768 130.192 193.043 129.925 193.272C129.658 193.501 129.338 193.677 128.965 193.8C128.592 193.923 128.186 193.984 127.749 193.984C127.37 193.984 127.013 193.939 126.677 193.848C126.506 193.955 126.376 194.069 126.285 194.192C126.194 194.309 126.149 194.429 126.149 194.552C126.149 194.744 126.226 194.891 126.381 194.992C126.541 195.088 126.749 195.157 127.005 195.2C127.261 195.243 127.552 195.269 127.877 195.28C128.208 195.291 128.544 195.309 128.885 195.336C129.232 195.357 129.568 195.397 129.893 195.456C130.224 195.515 130.517 195.611 130.773 195.744C131.029 195.877 131.234 196.061 131.389 196.296C131.549 196.531 131.629 196.835 131.629 197.208C131.629 197.555 131.541 197.891 131.365 198.216C131.194 198.541 130.946 198.829 130.621 199.08C130.296 199.336 129.896 199.539 129.421 199.688C128.952 199.843 128.421 199.92 127.829 199.92C127.237 199.92 126.72 199.861 126.277 199.744C125.834 199.627 125.466 199.469 125.173 199.272C124.88 199.075 124.658 198.845 124.509 198.584C124.365 198.328 124.293 198.059 124.293 197.776C124.293 197.376 124.418 197.037 124.669 196.76C124.92 196.483 125.264 196.261 125.701 196.096C125.461 195.989 125.269 195.848 125.125 195.672C124.986 195.491 124.917 195.248 124.917 194.944C124.917 194.827 124.938 194.707 124.981 194.584C125.024 194.456 125.088 194.331 125.173 194.208C125.264 194.08 125.373 193.96 125.501 193.848C125.629 193.736 125.778 193.637 125.949 193.552C125.549 193.328 125.237 193.032 125.013 192.664C124.789 192.291 124.677 191.859 124.677 191.368C124.677 190.973 124.752 190.616 124.901 190.296C125.056 189.971 125.269 189.696 125.541 189.472C125.813 189.243 126.136 189.067 126.509 188.944C126.888 188.821 127.301 188.76 127.749 188.76C128.101 188.76 128.429 188.8 128.733 188.88C129.037 188.955 129.314 189.067 129.565 189.216H131.765ZM134.589 190.52C134.845 189.965 135.16 189.533 135.533 189.224C135.907 188.909 136.363 188.752 136.901 188.752C137.072 188.752 137.235 188.771 137.389 188.808C137.549 188.845 137.691 188.904 137.813 188.984L137.709 190.048C137.677 190.181 137.597 190.248 137.469 190.248C137.395 190.248 137.285 190.232 137.141 190.2C136.997 190.168 136.835 190.152 136.653 190.152C136.397 190.152 136.168 190.189 135.965 190.264C135.768 190.339 135.589 190.451 135.429 190.6C135.275 190.744 135.133 190.925 135.005 191.144C134.883 191.357 134.771 191.603 134.669 191.88V197H133.237V188.896H134.053C134.208 188.896 134.315 188.925 134.373 188.984C134.432 189.043 134.472 189.144 134.493 189.288L134.589 190.52ZM143.333 193.352C142.677 193.373 142.117 193.427 141.653 193.512C141.194 193.592 140.818 193.699 140.525 193.832C140.237 193.965 140.026 194.123 139.893 194.304C139.765 194.485 139.701 194.688 139.701 194.912C139.701 195.125 139.735 195.309 139.805 195.464C139.874 195.619 139.967 195.747 140.085 195.848C140.207 195.944 140.349 196.016 140.509 196.064C140.674 196.107 140.85 196.128 141.037 196.128C141.287 196.128 141.517 196.104 141.725 196.056C141.933 196.003 142.127 195.928 142.309 195.832C142.495 195.736 142.671 195.621 142.837 195.488C143.007 195.355 143.173 195.203 143.333 195.032V193.352ZM138.733 190.04C139.181 189.608 139.663 189.285 140.181 189.072C140.698 188.859 141.271 188.752 141.901 188.752C142.354 188.752 142.757 188.827 143.109 188.976C143.461 189.125 143.757 189.333 143.997 189.6C144.237 189.867 144.418 190.189 144.541 190.568C144.663 190.947 144.725 191.363 144.725 191.816V197H144.093C143.954 197 143.847 196.979 143.773 196.936C143.698 196.888 143.639 196.797 143.597 196.664L143.437 195.896C143.223 196.093 143.015 196.269 142.812 196.424C142.61 196.573 142.397 196.701 142.173 196.808C141.949 196.909 141.709 196.987 141.453 197.04C141.202 197.099 140.922 197.128 140.613 197.128C140.298 197.128 140.002 197.085 139.725 197C139.447 196.909 139.205 196.776 138.997 196.6C138.794 196.424 138.631 196.203 138.509 195.936C138.391 195.664 138.333 195.344 138.333 194.976C138.333 194.656 138.421 194.349 138.597 194.056C138.773 193.757 139.058 193.493 139.453 193.264C139.847 193.035 140.362 192.848 140.997 192.704C141.631 192.555 142.41 192.469 143.333 192.448V191.816C143.333 191.187 143.197 190.712 142.925 190.392C142.653 190.067 142.255 189.904 141.733 189.904C141.381 189.904 141.085 189.949 140.845 190.04C140.61 190.125 140.405 190.224 140.229 190.336C140.058 190.443 139.909 190.541 139.781 190.632C139.658 190.717 139.535 190.76 139.413 190.76C139.317 190.76 139.234 190.736 139.165 190.688C139.095 190.635 139.037 190.571 138.988 190.496L138.733 190.04ZM154.304 197H152.88V190.088H148.704V194.952C148.704 195.293 148.787 195.547 148.952 195.712C149.118 195.877 149.331 195.96 149.592 195.96C149.742 195.96 149.87 195.941 149.976 195.904C150.088 195.861 150.184 195.816 150.264 195.768C150.344 195.72 150.411 195.677 150.464 195.64C150.523 195.597 150.574 195.576 150.616 195.576C150.691 195.576 150.758 195.621 150.816 195.712L151.232 196.392C150.987 196.621 150.691 196.803 150.344 196.936C149.998 197.064 149.64 197.128 149.272 197.128C148.632 197.128 148.139 196.949 147.792 196.592C147.451 196.235 147.28 195.72 147.28 195.048V190.088H146.304C146.219 190.088 146.147 190.064 146.088 190.016C146.03 189.963 146 189.883 146 189.776V189.208L147.328 189.032L147.656 186.536C147.672 186.456 147.707 186.392 147.76 186.344C147.819 186.291 147.894 186.264 147.984 186.264H148.704V189.056H154.304V197ZM154.656 186.296C154.656 186.435 154.627 186.565 154.568 186.688C154.515 186.805 154.44 186.909 154.344 187C154.254 187.091 154.147 187.163 154.024 187.216C153.902 187.269 153.771 187.296 153.632 187.296C153.494 187.296 153.363 187.269 153.24 187.216C153.123 187.163 153.019 187.091 152.928 187C152.838 186.909 152.766 186.805 152.712 186.688C152.659 186.565 152.632 186.435 152.632 186.296C152.632 186.157 152.659 186.027 152.712 185.904C152.766 185.776 152.838 185.667 152.928 185.576C153.019 185.48 153.123 185.405 153.24 185.352C153.363 185.299 153.494 185.272 153.632 185.272C153.771 185.272 153.902 185.299 154.024 185.352C154.147 185.405 154.254 185.48 154.344 185.576C154.44 185.667 154.515 185.776 154.568 185.904C154.627 186.027 154.656 186.157 154.656 186.296ZM160.06 188.768C160.652 188.768 161.185 188.867 161.66 189.064C162.134 189.261 162.54 189.541 162.876 189.904C163.212 190.267 163.468 190.707 163.644 191.224C163.825 191.736 163.916 192.309 163.916 192.944C163.916 193.584 163.825 194.16 163.644 194.672C163.468 195.184 163.212 195.621 162.876 195.984C162.54 196.347 162.134 196.627 161.66 196.824C161.185 197.016 160.652 197.112 160.06 197.112C159.462 197.112 158.924 197.016 158.444 196.824C157.969 196.627 157.564 196.347 157.228 195.984C156.892 195.621 156.633 195.184 156.452 194.672C156.276 194.16 156.188 193.584 156.188 192.944C156.188 192.309 156.276 191.736 156.452 191.224C156.633 190.707 156.892 190.267 157.228 189.904C157.564 189.541 157.969 189.261 158.444 189.064C158.924 188.867 159.462 188.768 160.06 188.768ZM160.06 196C160.86 196 161.457 195.733 161.852 195.2C162.246 194.661 162.444 193.912 162.444 192.952C162.444 191.987 162.246 191.235 161.852 190.696C161.457 190.157 160.86 189.888 160.06 189.888C159.654 189.888 159.3 189.957 158.996 190.096C158.697 190.235 158.446 190.435 158.244 190.696C158.046 190.957 157.897 191.28 157.796 191.664C157.7 192.043 157.652 192.472 157.652 192.952C157.652 193.912 157.849 194.661 158.244 195.2C158.644 195.733 159.249 196 160.06 196ZM167.066 190.072C167.242 189.875 167.428 189.696 167.626 189.536C167.823 189.376 168.031 189.24 168.25 189.128C168.474 189.011 168.708 188.923 168.954 188.864C169.204 188.8 169.474 188.768 169.762 188.768C170.204 188.768 170.594 188.843 170.93 188.992C171.271 189.136 171.554 189.344 171.778 189.616C172.007 189.883 172.18 190.205 172.298 190.584C172.415 190.963 172.474 191.381 172.474 191.84V197H171.042V191.84C171.042 191.227 170.9 190.752 170.618 190.416C170.34 190.075 169.916 189.904 169.346 189.904C168.924 189.904 168.53 190.005 168.162 190.208C167.799 190.411 167.463 190.685 167.154 191.032V197H165.722V188.896H166.578C166.78 188.896 166.906 188.995 166.954 189.192L167.066 190.072ZM178.737 197V188.896H179.593C179.796 188.896 179.921 188.995 179.969 189.192L180.073 190.024C180.372 189.656 180.708 189.355 181.081 189.12C181.455 188.885 181.887 188.768 182.377 188.768C182.921 188.768 183.361 188.92 183.697 189.224C184.039 189.528 184.284 189.939 184.433 190.456C184.551 190.163 184.7 189.909 184.881 189.696C185.068 189.483 185.276 189.307 185.505 189.168C185.735 189.029 185.977 188.928 186.233 188.864C186.495 188.8 186.759 188.768 187.025 188.768C187.452 188.768 187.831 188.837 188.161 188.976C188.497 189.109 188.78 189.307 189.009 189.568C189.244 189.829 189.423 190.152 189.545 190.536C189.668 190.915 189.729 191.349 189.729 191.84V197H188.297V191.84C188.297 191.205 188.159 190.725 187.881 190.4C187.604 190.069 187.204 189.904 186.681 189.904C186.447 189.904 186.223 189.947 186.009 190.032C185.801 190.112 185.617 190.232 185.457 190.392C185.297 190.552 185.169 190.755 185.073 191C184.983 191.24 184.937 191.52 184.937 191.84V197H183.505V191.84C183.505 191.189 183.375 190.704 183.113 190.384C182.852 190.064 182.471 189.904 181.969 189.904C181.617 189.904 181.292 190 180.993 190.192C180.695 190.379 180.42 190.635 180.169 190.96V197H178.737ZM198.558 188.896V197H197.71C197.507 197 197.379 196.901 197.326 196.704L197.214 195.832C196.862 196.221 196.467 196.536 196.03 196.776C195.592 197.011 195.091 197.128 194.526 197.128C194.083 197.128 193.691 197.056 193.35 196.912C193.014 196.763 192.731 196.555 192.502 196.288C192.272 196.021 192.099 195.699 191.982 195.32C191.87 194.941 191.814 194.523 191.814 194.064V188.896H193.238V194.064C193.238 194.677 193.376 195.152 193.654 195.488C193.936 195.824 194.366 195.992 194.942 195.992C195.363 195.992 195.755 195.893 196.118 195.696C196.486 195.493 196.824 195.216 197.134 194.864V188.896H198.558ZM202.288 185.216V197H200.863V185.216H202.288ZM212.117 197H210.693V190.088H206.517V194.952C206.517 195.293 206.599 195.547 206.765 195.712C206.93 195.877 207.143 195.96 207.405 195.96C207.554 195.96 207.682 195.941 207.789 195.904C207.901 195.861 207.997 195.816 208.077 195.768C208.157 195.72 208.223 195.677 208.277 195.64C208.335 195.597 208.386 195.576 208.429 195.576C208.503 195.576 208.57 195.621 208.629 195.712L209.045 196.392C208.799 196.621 208.503 196.803 208.157 196.936C207.81 197.064 207.453 197.128 207.085 197.128C206.445 197.128 205.951 196.949 205.605 196.592C205.263 196.235 205.093 195.72 205.093 195.048V190.088H204.117C204.031 190.088 203.959 190.064 203.901 190.016C203.842 189.963 203.813 189.883 203.813 189.776V189.208L205.141 189.032L205.469 186.536C205.485 186.456 205.519 186.392 205.573 186.344C205.631 186.291 205.706 186.264 205.797 186.264H206.517V189.056H212.117V197ZM212.469 186.296C212.469 186.435 212.439 186.565 212.381 186.688C212.327 186.805 212.253 186.909 212.157 187C212.066 187.091 211.959 187.163 211.837 187.216C211.714 187.269 211.583 187.296 211.445 187.296C211.306 187.296 211.175 187.269 211.053 187.216C210.935 187.163 210.831 187.091 210.741 187C210.65 186.909 210.578 186.805 210.525 186.688C210.471 186.565 210.445 186.435 210.445 186.296C210.445 186.157 210.471 186.027 210.525 185.904C210.578 185.776 210.65 185.667 210.741 185.576C210.831 185.48 210.935 185.405 211.053 185.352C211.175 185.299 211.306 185.272 211.445 185.272C211.583 185.272 211.714 185.299 211.837 185.352C211.959 185.405 212.066 185.48 212.157 185.576C212.253 185.667 212.327 185.776 212.381 185.904C212.439 186.027 212.469 186.157 212.469 186.296ZM214.456 197V188.896H215.312C215.515 188.896 215.64 188.995 215.688 189.192L215.792 190.024C216.091 189.656 216.427 189.355 216.8 189.12C217.173 188.885 217.605 188.768 218.096 188.768C218.64 188.768 219.08 188.92 219.416 189.224C219.757 189.528 220.003 189.939 220.152 190.456C220.269 190.163 220.419 189.909 220.6 189.696C220.787 189.483 220.995 189.307 221.224 189.168C221.453 189.029 221.696 188.928 221.952 188.864C222.213 188.8 222.477 188.768 222.744 188.768C223.171 188.768 223.549 188.837 223.88 188.976C224.216 189.109 224.499 189.307 224.728 189.568C224.963 189.829 225.141 190.152 225.264 190.536C225.387 190.915 225.448 191.349 225.448 191.84V197H224.016V191.84C224.016 191.205 223.877 190.725 223.6 190.4C223.323 190.069 222.923 189.904 222.4 189.904C222.165 189.904 221.941 189.947 221.728 190.032C221.52 190.112 221.336 190.232 221.176 190.392C221.016 190.552 220.888 190.755 220.792 191C220.701 191.24 220.656 191.52 220.656 191.84V197H219.224V191.84C219.224 191.189 219.093 190.704 218.832 190.384C218.571 190.064 218.189 189.904 217.688 189.904C217.336 189.904 217.011 190 216.712 190.192C216.413 190.379 216.139 190.635 215.888 190.96V197H214.456ZM233.036 192.064C233.036 191.733 232.988 191.432 232.892 191.16C232.802 190.883 232.666 190.645 232.484 190.448C232.308 190.245 232.092 190.091 231.836 189.984C231.58 189.872 231.29 189.816 230.964 189.816C230.282 189.816 229.74 190.016 229.34 190.416C228.946 190.811 228.7 191.36 228.604 192.064H233.036ZM234.188 195.864C234.012 196.077 233.802 196.264 233.556 196.424C233.311 196.579 233.047 196.707 232.764 196.808C232.487 196.909 232.199 196.984 231.9 197.032C231.602 197.085 231.306 197.112 231.012 197.112C230.452 197.112 229.935 197.019 229.46 196.832C228.991 196.64 228.583 196.363 228.236 196C227.895 195.632 227.628 195.179 227.436 194.64C227.244 194.101 227.148 193.483 227.148 192.784C227.148 192.219 227.234 191.691 227.404 191.2C227.58 190.709 227.831 190.285 228.156 189.928C228.482 189.565 228.879 189.283 229.348 189.08C229.818 188.872 230.346 188.768 230.932 188.768C231.418 188.768 231.866 188.851 232.276 189.016C232.692 189.176 233.05 189.411 233.348 189.72C233.652 190.024 233.89 190.403 234.06 190.856C234.231 191.304 234.316 191.816 234.316 192.392C234.316 192.616 234.292 192.765 234.244 192.84C234.196 192.915 234.106 192.952 233.972 192.952H228.556C228.572 193.464 228.642 193.909 228.764 194.288C228.892 194.667 229.068 194.984 229.292 195.24C229.516 195.491 229.783 195.68 230.092 195.808C230.402 195.931 230.748 195.992 231.132 195.992C231.49 195.992 231.796 195.952 232.052 195.872C232.314 195.787 232.538 195.696 232.724 195.6C232.911 195.504 233.066 195.416 233.188 195.336C233.316 195.251 233.426 195.208 233.516 195.208C233.634 195.208 233.724 195.253 233.788 195.344L234.188 195.864ZM233.292 185.408L231.428 187.472C231.354 187.552 231.279 187.611 231.204 187.648C231.135 187.68 231.044 187.696 230.932 187.696H230.084L231.268 185.76C231.343 185.637 231.423 185.549 231.508 185.496C231.599 185.437 231.73 185.408 231.9 185.408H233.292ZM241.346 190.824C241.079 190.467 240.791 190.219 240.482 190.08C240.172 189.936 239.826 189.864 239.442 189.864C238.69 189.864 238.111 190.133 237.706 190.672C237.3 191.211 237.098 191.979 237.098 192.976C237.098 193.504 237.143 193.957 237.234 194.336C237.324 194.709 237.458 195.019 237.634 195.264C237.81 195.504 238.026 195.68 238.282 195.792C238.538 195.904 238.828 195.96 239.154 195.96C239.623 195.96 240.031 195.853 240.378 195.64C240.73 195.427 241.052 195.125 241.346 194.736V190.824ZM242.77 185.216V197H241.922C241.719 197 241.591 196.901 241.538 196.704L241.41 195.72C241.063 196.136 240.668 196.472 240.226 196.728C239.783 196.984 239.271 197.112 238.69 197.112C238.226 197.112 237.804 197.024 237.426 196.848C237.047 196.667 236.724 196.403 236.458 196.056C236.191 195.709 235.986 195.277 235.842 194.76C235.698 194.243 235.626 193.648 235.626 192.976C235.626 192.379 235.706 191.824 235.866 191.312C236.026 190.795 236.255 190.347 236.554 189.968C236.852 189.589 237.218 189.293 237.65 189.08C238.087 188.861 238.578 188.752 239.122 188.752C239.618 188.752 240.042 188.837 240.394 189.008C240.751 189.173 241.068 189.405 241.346 189.704V185.216H242.77ZM246.523 188.896V197H245.099V188.896H246.523ZM246.827 186.352C246.827 186.491 246.797 186.621 246.739 186.744C246.685 186.861 246.611 186.968 246.515 187.064C246.424 187.155 246.315 187.227 246.187 187.28C246.064 187.333 245.933 187.36 245.795 187.36C245.656 187.36 245.525 187.333 245.403 187.28C245.285 187.227 245.181 187.155 245.091 187.064C245 186.968 244.928 186.861 244.875 186.744C244.821 186.621 244.795 186.491 244.795 186.352C244.795 186.213 244.821 186.083 244.875 185.96C244.928 185.832 245 185.723 245.091 185.632C245.181 185.536 245.285 185.461 245.403 185.408C245.525 185.355 245.656 185.328 245.795 185.328C245.933 185.328 246.064 185.355 246.187 185.408C246.315 185.461 246.424 185.536 246.515 185.632C246.611 185.723 246.685 185.832 246.739 185.96C246.797 186.083 246.827 186.213 246.827 186.352ZM253.254 193.352C252.598 193.373 252.038 193.427 251.574 193.512C251.116 193.592 250.74 193.699 250.446 193.832C250.158 193.965 249.948 194.123 249.814 194.304C249.686 194.485 249.622 194.688 249.622 194.912C249.622 195.125 249.657 195.309 249.726 195.464C249.796 195.619 249.889 195.747 250.006 195.848C250.129 195.944 250.27 196.016 250.43 196.064C250.596 196.107 250.772 196.128 250.958 196.128C251.209 196.128 251.438 196.104 251.646 196.056C251.854 196.003 252.049 195.928 252.23 195.832C252.417 195.736 252.593 195.621 252.758 195.488C252.929 195.355 253.094 195.203 253.254 195.032V193.352ZM248.654 190.04C249.102 189.608 249.585 189.285 250.102 189.072C250.62 188.859 251.193 188.752 251.822 188.752C252.276 188.752 252.678 188.827 253.03 188.976C253.382 189.125 253.678 189.333 253.918 189.6C254.158 189.867 254.34 190.189 254.462 190.568C254.585 190.947 254.646 191.363 254.646 191.816V197H254.014C253.876 197 253.769 196.979 253.694 196.936C253.62 196.888 253.561 196.797 253.518 196.664L253.358 195.896C253.145 196.093 252.937 196.269 252.734 196.424C252.532 196.573 252.318 196.701 252.094 196.808C251.87 196.909 251.63 196.987 251.374 197.04C251.124 197.099 250.844 197.128 250.534 197.128C250.22 197.128 249.924 197.085 249.646 197C249.369 196.909 249.126 196.776 248.918 196.6C248.716 196.424 248.553 196.203 248.43 195.936C248.313 195.664 248.254 195.344 248.254 194.976C248.254 194.656 248.342 194.349 248.518 194.056C248.694 193.757 248.98 193.493 249.374 193.264C249.769 193.035 250.284 192.848 250.918 192.704C251.553 192.555 252.332 192.469 253.254 192.448V191.816C253.254 191.187 253.118 190.712 252.846 190.392C252.574 190.067 252.177 189.904 251.654 189.904C251.302 189.904 251.006 189.949 250.766 190.04C250.532 190.125 250.326 190.224 250.15 190.336C249.98 190.443 249.83 190.541 249.702 190.632C249.58 190.717 249.457 190.76 249.334 190.76C249.238 190.76 249.156 190.736 249.086 190.688C249.017 190.635 248.958 190.571 248.91 190.496L248.654 190.04ZM260.781 191.6H264.733V192.808H260.781V191.6ZM285.914 185.536L282.338 197H280.946L278.042 188.256C278.015 188.171 277.988 188.08 277.962 187.984C277.94 187.888 277.916 187.787 277.89 187.68C277.863 187.787 277.836 187.888 277.81 187.984C277.783 188.08 277.756 188.171 277.73 188.256L274.81 197H273.418L269.842 185.536H271.13C271.268 185.536 271.383 185.571 271.474 185.64C271.57 185.709 271.631 185.797 271.658 185.904L274.026 193.872C274.063 194.016 274.098 194.171 274.13 194.336C274.167 194.501 274.202 194.677 274.234 194.864C274.271 194.677 274.308 194.501 274.346 194.336C274.388 194.165 274.434 194.011 274.482 193.872L277.178 185.904C277.21 185.813 277.271 185.731 277.362 185.656C277.458 185.576 277.572 185.536 277.706 185.536H278.154C278.292 185.536 278.404 185.571 278.49 185.64C278.575 185.709 278.639 185.797 278.682 185.904L281.37 193.872C281.418 194.011 281.46 194.16 281.498 194.32C281.54 194.48 281.58 194.648 281.618 194.824C281.644 194.648 281.674 194.48 281.706 194.32C281.738 194.16 281.772 194.011 281.81 193.872L284.186 185.904C284.212 185.808 284.271 185.723 284.362 185.648C284.458 185.573 284.572 185.536 284.706 185.536H285.914ZM291.802 192.064C291.802 191.733 291.754 191.432 291.658 191.16C291.567 190.883 291.431 190.645 291.25 190.448C291.074 190.245 290.858 190.091 290.602 189.984C290.346 189.872 290.055 189.816 289.73 189.816C289.047 189.816 288.506 190.016 288.106 190.416C287.711 190.811 287.466 191.36 287.37 192.064H291.802ZM292.954 195.864C292.778 196.077 292.567 196.264 292.322 196.424C292.077 196.579 291.813 196.707 291.53 196.808C291.253 196.909 290.965 196.984 290.666 197.032C290.367 197.085 290.071 197.112 289.778 197.112C289.218 197.112 288.701 197.019 288.226 196.832C287.757 196.64 287.349 196.363 287.002 196C286.661 195.632 286.394 195.179 286.202 194.64C286.01 194.101 285.914 193.483 285.914 192.784C285.914 192.219 285.999 191.691 286.17 191.2C286.346 190.709 286.597 190.285 286.922 189.928C287.247 189.565 287.645 189.283 288.114 189.08C288.583 188.872 289.111 188.768 289.698 188.768C290.183 188.768 290.631 188.851 291.042 189.016C291.458 189.176 291.815 189.411 292.114 189.72C292.418 190.024 292.655 190.403 292.826 190.856C292.997 191.304 293.082 191.816 293.082 192.392C293.082 192.616 293.058 192.765 293.01 192.84C292.962 192.915 292.871 192.952 292.738 192.952H287.322C287.338 193.464 287.407 193.909 287.53 194.288C287.658 194.667 287.834 194.984 288.058 195.24C288.282 195.491 288.549 195.68 288.858 195.808C289.167 195.931 289.514 195.992 289.898 195.992C290.255 195.992 290.562 195.952 290.818 195.872C291.079 195.787 291.303 195.696 291.49 195.6C291.677 195.504 291.831 195.416 291.954 195.336C292.082 195.251 292.191 195.208 292.282 195.208C292.399 195.208 292.49 195.253 292.554 195.344L292.954 195.864ZM296.263 195.048C296.524 195.4 296.81 195.648 297.119 195.792C297.434 195.936 297.778 196.008 298.151 196.008C298.914 196.008 299.498 195.739 299.903 195.2C300.308 194.661 300.511 193.859 300.511 192.792C300.511 191.8 300.33 191.072 299.967 190.608C299.61 190.139 299.098 189.904 298.431 189.904C297.967 189.904 297.562 190.011 297.215 190.224C296.874 190.437 296.556 190.739 296.263 191.128V195.048ZM296.263 190.064C296.604 189.669 296.988 189.355 297.415 189.12C297.847 188.885 298.343 188.768 298.903 188.768C299.378 188.768 299.804 188.859 300.183 189.04C300.567 189.221 300.892 189.485 301.159 189.832C301.426 190.173 301.628 190.589 301.767 191.08C301.911 191.571 301.983 192.123 301.983 192.736C301.983 193.392 301.903 193.989 301.743 194.528C301.583 195.067 301.351 195.528 301.047 195.912C300.748 196.291 300.383 196.587 299.951 196.8C299.519 197.008 299.034 197.112 298.495 197.112C297.962 197.112 297.511 197.013 297.143 196.816C296.78 196.613 296.463 196.328 296.191 195.96L296.119 196.696C296.076 196.899 295.954 197 295.751 197H294.831V185.216H296.263V190.064ZM313.302 192.064C313.302 191.733 313.254 191.432 313.158 191.16C313.067 190.883 312.931 190.645 312.75 190.448C312.574 190.245 312.358 190.091 312.102 189.984C311.846 189.872 311.555 189.816 311.23 189.816C310.547 189.816 310.006 190.016 309.606 190.416C309.211 190.811 308.966 191.36 308.87 192.064H313.302ZM314.454 195.864C314.278 196.077 314.067 196.264 313.822 196.424C313.577 196.579 313.313 196.707 313.03 196.808C312.753 196.909 312.465 196.984 312.166 197.032C311.867 197.085 311.571 197.112 311.278 197.112C310.718 197.112 310.201 197.019 309.726 196.832C309.257 196.64 308.849 196.363 308.502 196C308.161 195.632 307.894 195.179 307.702 194.64C307.51 194.101 307.414 193.483 307.414 192.784C307.414 192.219 307.499 191.691 307.67 191.2C307.846 190.709 308.097 190.285 308.422 189.928C308.747 189.565 309.145 189.283 309.614 189.08C310.083 188.872 310.611 188.768 311.198 188.768C311.683 188.768 312.131 188.851 312.542 189.016C312.958 189.176 313.315 189.411 313.614 189.72C313.918 190.024 314.155 190.403 314.326 190.856C314.497 191.304 314.582 191.816 314.582 192.392C314.582 192.616 314.558 192.765 314.51 192.84C314.462 192.915 314.371 192.952 314.238 192.952H308.822C308.838 193.464 308.907 193.909 309.03 194.288C309.158 194.667 309.334 194.984 309.558 195.24C309.782 195.491 310.049 195.68 310.358 195.808C310.667 195.931 311.014 195.992 311.398 195.992C311.755 195.992 312.062 195.952 312.318 195.872C312.579 195.787 312.803 195.696 312.99 195.6C313.177 195.504 313.331 195.416 313.454 195.336C313.582 195.251 313.691 195.208 313.782 195.208C313.899 195.208 313.99 195.253 314.054 195.344L314.454 195.864ZM318.757 197.128C318.117 197.128 317.623 196.949 317.277 196.592C316.935 196.235 316.765 195.72 316.765 195.048V190.088H315.789C315.703 190.088 315.631 190.064 315.573 190.016C315.514 189.963 315.485 189.883 315.485 189.776V189.208L316.813 189.04L317.141 186.536C317.157 186.456 317.191 186.392 317.245 186.344C317.303 186.291 317.378 186.264 317.469 186.264H318.189V189.056H320.533V190.088H318.189V194.952C318.189 195.293 318.271 195.547 318.437 195.712C318.602 195.877 318.815 195.96 319.077 195.96C319.226 195.96 319.354 195.941 319.461 195.904C319.573 195.861 319.669 195.816 319.749 195.768C319.829 195.72 319.895 195.677 319.949 195.64C320.007 195.597 320.058 195.576 320.101 195.576C320.175 195.576 320.242 195.621 320.301 195.712L320.717 196.392C320.471 196.621 320.175 196.803 319.829 196.936C319.482 197.064 319.125 197.128 318.757 197.128ZM330.489 193.352C329.833 193.373 329.273 193.427 328.809 193.512C328.35 193.592 327.974 193.699 327.681 193.832C327.393 193.965 327.182 194.123 327.049 194.304C326.921 194.485 326.857 194.688 326.857 194.912C326.857 195.125 326.891 195.309 326.961 195.464C327.03 195.619 327.123 195.747 327.241 195.848C327.363 195.944 327.505 196.016 327.665 196.064C327.83 196.107 328.006 196.128 328.193 196.128C328.443 196.128 328.673 196.104 328.881 196.056C329.089 196.003 329.283 195.928 329.465 195.832C329.651 195.736 329.827 195.621 329.993 195.488C330.163 195.355 330.329 195.203 330.489 195.032V193.352ZM325.889 190.04C326.337 189.608 326.819 189.285 327.337 189.072C327.854 188.859 328.427 188.752 329.057 188.752C329.51 188.752 329.913 188.827 330.265 188.976C330.617 189.125 330.913 189.333 331.153 189.6C331.393 189.867 331.574 190.189 331.697 190.568C331.819 190.947 331.881 191.363 331.881 191.816V197H331.249C331.11 197 331.003 196.979 330.929 196.936C330.854 196.888 330.795 196.797 330.753 196.664L330.593 195.896C330.379 196.093 330.171 196.269 329.969 196.424C329.766 196.573 329.553 196.701 329.329 196.808C329.105 196.909 328.865 196.987 328.609 197.04C328.358 197.099 328.078 197.128 327.769 197.128C327.454 197.128 327.158 197.085 326.881 197C326.603 196.909 326.361 196.776 326.153 196.6C325.95 196.424 325.787 196.203 325.665 195.936C325.547 195.664 325.489 195.344 325.489 194.976C325.489 194.656 325.577 194.349 325.753 194.056C325.929 193.757 326.214 193.493 326.609 193.264C327.003 193.035 327.518 192.848 328.153 192.704C328.787 192.555 329.566 192.469 330.489 192.448V191.816C330.489 191.187 330.353 190.712 330.081 190.392C329.809 190.067 329.411 189.904 328.889 189.904C328.537 189.904 328.241 189.949 328.001 190.04C327.766 190.125 327.561 190.224 327.385 190.336C327.214 190.443 327.065 190.541 326.937 190.632C326.814 190.717 326.691 190.76 326.569 190.76C326.473 190.76 326.39 190.736 326.321 190.688C326.251 190.635 326.193 190.571 326.145 190.496L325.889 190.04ZM335.482 195.048C335.743 195.4 336.029 195.648 336.338 195.792C336.647 195.936 336.994 196.008 337.378 196.008C338.135 196.008 338.717 195.739 339.122 195.2C339.527 194.661 339.73 193.893 339.73 192.896C339.73 192.368 339.682 191.915 339.586 191.536C339.495 191.157 339.362 190.848 339.186 190.608C339.01 190.363 338.794 190.184 338.538 190.072C338.282 189.96 337.991 189.904 337.666 189.904C337.202 189.904 336.794 190.011 336.442 190.224C336.095 190.437 335.775 190.739 335.482 191.128V195.048ZM335.41 190.152C335.751 189.731 336.146 189.392 336.594 189.136C337.042 188.88 337.554 188.752 338.13 188.752C338.599 188.752 339.023 188.843 339.402 189.024C339.781 189.2 340.103 189.464 340.37 189.816C340.637 190.163 340.842 190.595 340.986 191.112C341.13 191.629 341.202 192.224 341.202 192.896C341.202 193.493 341.122 194.051 340.962 194.568C340.802 195.08 340.57 195.525 340.266 195.904C339.967 196.277 339.599 196.573 339.162 196.792C338.73 197.005 338.242 197.112 337.698 197.112C337.202 197.112 336.775 197.029 336.418 196.864C336.066 196.693 335.754 196.459 335.482 196.16V199.744H334.05V188.896H334.906C335.109 188.896 335.234 188.995 335.282 189.192L335.41 190.152ZM344.451 195.048C344.712 195.4 344.997 195.648 345.307 195.792C345.616 195.936 345.963 196.008 346.347 196.008C347.104 196.008 347.685 195.739 348.091 195.2C348.496 194.661 348.699 193.893 348.699 192.896C348.699 192.368 348.651 191.915 348.555 191.536C348.464 191.157 348.331 190.848 348.155 190.608C347.979 190.363 347.763 190.184 347.507 190.072C347.251 189.96 346.96 189.904 346.635 189.904C346.171 189.904 345.763 190.011 345.411 190.224C345.064 190.437 344.744 190.739 344.451 191.128V195.048ZM344.379 190.152C344.72 189.731 345.115 189.392 345.563 189.136C346.011 188.88 346.523 188.752 347.099 188.752C347.568 188.752 347.992 188.843 348.371 189.024C348.749 189.2 349.072 189.464 349.339 189.816C349.605 190.163 349.811 190.595 349.955 191.112C350.099 191.629 350.171 192.224 350.171 192.896C350.171 193.493 350.091 194.051 349.931 194.568C349.771 195.08 349.539 195.525 349.235 195.904C348.936 196.277 348.568 196.573 348.131 196.792C347.699 197.005 347.211 197.112 346.667 197.112C346.171 197.112 345.744 197.029 345.387 196.864C345.035 196.693 344.723 196.459 344.451 196.16V199.744H343.019V188.896H343.875C344.077 188.896 344.203 188.995 344.251 189.192L344.379 190.152ZM356.707 190.232C356.643 190.349 356.545 190.408 356.411 190.408C356.331 190.408 356.241 190.379 356.139 190.32C356.038 190.261 355.913 190.197 355.763 190.128C355.619 190.053 355.446 189.987 355.243 189.928C355.041 189.864 354.801 189.832 354.523 189.832C354.283 189.832 354.067 189.864 353.875 189.928C353.683 189.987 353.518 190.069 353.379 190.176C353.246 190.283 353.142 190.408 353.067 190.552C352.998 190.691 352.963 190.843 352.963 191.008C352.963 191.216 353.022 191.389 353.139 191.528C353.262 191.667 353.422 191.787 353.619 191.888C353.817 191.989 354.041 192.08 354.291 192.16C354.542 192.235 354.798 192.317 355.059 192.408C355.326 192.493 355.585 192.589 355.835 192.696C356.086 192.803 356.31 192.936 356.507 193.096C356.705 193.256 356.862 193.453 356.979 193.688C357.102 193.917 357.163 194.195 357.163 194.52C357.163 194.893 357.097 195.24 356.963 195.56C356.83 195.875 356.633 196.149 356.371 196.384C356.11 196.613 355.79 196.795 355.411 196.928C355.033 197.061 354.595 197.128 354.099 197.128C353.534 197.128 353.022 197.037 352.563 196.856C352.105 196.669 351.715 196.432 351.395 196.144L351.731 195.6C351.774 195.531 351.825 195.477 351.883 195.44C351.942 195.403 352.017 195.384 352.107 195.384C352.203 195.384 352.305 195.421 352.411 195.496C352.518 195.571 352.646 195.653 352.795 195.744C352.95 195.835 353.137 195.917 353.355 195.992C353.574 196.067 353.846 196.104 354.171 196.104C354.449 196.104 354.691 196.069 354.899 196C355.107 195.925 355.281 195.827 355.419 195.704C355.558 195.581 355.659 195.44 355.723 195.28C355.793 195.12 355.827 194.949 355.827 194.768C355.827 194.544 355.766 194.36 355.643 194.216C355.526 194.067 355.369 193.941 355.171 193.84C354.974 193.733 354.747 193.643 354.491 193.568C354.241 193.488 353.982 193.405 353.715 193.32C353.454 193.235 353.195 193.139 352.939 193.032C352.689 192.92 352.465 192.781 352.267 192.616C352.07 192.451 351.91 192.248 351.787 192.008C351.67 191.763 351.611 191.467 351.611 191.12C351.611 190.811 351.675 190.515 351.803 190.232C351.931 189.944 352.118 189.693 352.363 189.48C352.609 189.261 352.91 189.088 353.267 188.96C353.625 188.832 354.033 188.768 354.491 188.768C355.025 188.768 355.502 188.853 355.923 189.024C356.35 189.189 356.718 189.419 357.027 189.712L356.707 190.232Z" fill="black"/>
<line x1="8.74228e-08" y1="173" x2="360" y2="173" stroke="black" stroke-width="2"/>
</svg>
