<svg width="219" height="171" viewBox="0 0 219 171" fill="none" xmlns="http://www.w3.org/2000/svg">
<path d="M73.2 37.2C72.7333 41.9333 72.5 46.2 72.5 50C72.5 53.3333 72.6 56.0667 72.8 58.2H70.5C69.9667 53.0667 69.3 49.2667 68.5 46.8C67.7 44.2667 66.3 42.4333 64.3 41.3C62.3 40.1 59.2333 39.5 55.1 39.5H49.7V96.4C49.7 99.2 49.9667 101.233 50.5 102.5C51.0333 103.767 51.9667 104.633 53.3 105.1C54.6333 105.567 56.8 105.867 59.8 106V108C56.3333 107.8 51.4333 107.7 45.1 107.7C38.4333 107.7 33.5 107.8 30.3 108V106C33.3 105.867 35.4667 105.567 36.8 105.1C38.1333 104.633 39.0667 103.767 39.6 102.5C40.1333 101.233 40.4 99.2 40.4 96.4V39.5H35C30.8667 39.5 27.8 40.1 25.8 41.3C23.8 42.4333 22.4 44.2667 21.6 46.8C20.8 49.2667 20.1333 53.0667 19.6 58.2H17.3C17.5 56.0667 17.6 53.3333 17.6 50C17.6 46.2 17.3667 41.9333 16.9 37.2C22.4333 37.4 31.8333 37.5 45.1 37.5C58.3 37.5 67.6667 37.4 73.2 37.2ZM105.809 39.2C103.409 39.3333 101.643 39.6 100.509 40C99.4427 40.4 98.7094 41.1667 98.3094 42.3C97.9094 43.4333 97.7094 45.2667 97.7094 47.8V97.4C97.7094 99.9333 97.9094 101.767 98.3094 102.9C98.7094 104.033 99.4427 104.8 100.509 105.2C101.643 105.6 103.409 105.867 105.809 106V108C102.743 107.8 98.5094 107.7 93.1094 107.7C87.376 107.7 83.1094 107.8 80.3094 108V106C82.7094 105.867 84.4427 105.6 85.5094 105.2C86.6427 104.8 87.4094 104.033 87.8094 102.9C88.2094 101.767 88.4094 99.9333 88.4094 97.4V47.8C88.4094 45.2667 88.2094 43.4333 87.8094 42.3C87.4094 41.1667 86.6427 40.4 85.5094 40C84.4427 39.6 82.7094 39.3333 80.3094 39.2V37.2C83.1094 37.4 87.376 37.5 93.1094 37.5C98.4427 37.5 102.676 37.4 105.809 37.2V39.2ZM192.896 39.2C190.496 39.3333 188.729 39.6 187.596 40C186.529 40.4 185.796 41.1667 185.396 42.3C184.996 43.4333 184.796 45.2667 184.796 47.8V97.4C184.796 99.9333 184.996 101.767 185.396 102.9C185.796 104.033 186.529 104.8 187.596 105.2C188.729 105.6 190.496 105.867 192.896 106V108C189.829 107.8 185.596 107.7 180.196 107.7C174.463 107.7 170.196 107.8 167.396 108V106C169.796 105.867 171.529 105.6 172.596 105.2C173.729 104.8 174.496 104.033 174.896 102.9C175.296 101.767 175.496 99.9333 175.496 97.4V43.8L151.396 108.5H149.796L124.596 43.6V96.4C124.596 99 124.796 100.933 125.196 102.2C125.663 103.467 126.529 104.4 127.796 105C129.063 105.533 131.029 105.867 133.696 106V108C131.296 107.8 127.896 107.7 123.496 107.7C119.496 107.7 116.396 107.8 114.196 108V106C116.529 105.867 118.263 105.533 119.396 105C120.529 104.4 121.296 103.467 121.696 102.2C122.096 100.867 122.296 98.9333 122.296 96.4V47.8C122.296 45.2667 122.096 43.4333 121.696 42.3C121.296 41.1667 120.529 40.4 119.396 40C118.329 39.6 116.596 39.3333 114.196 39.2V37.2C116.396 37.4 119.496 37.5 123.496 37.5C126.963 37.5 129.796 37.4 131.996 37.2L153.996 95.1L175.496 37.5H180.196C185.596 37.5 189.829 37.4 192.896 37.2V39.2Z" fill="black"/>
<path d="M32.9582 138.84H29.2462V149H27.7022V138.84H23.9822V137.536H32.9582V138.84ZM37.7942 144.064C37.7942 143.733 37.7462 143.432 37.6502 143.16C37.5595 142.883 37.4235 142.645 37.2422 142.448C37.0662 142.245 36.8502 142.091 36.5942 141.984C36.3382 141.872 36.0475 141.816 35.7222 141.816C35.0395 141.816 34.4982 142.016 34.0982 142.416C33.7035 142.811 33.4582 143.36 33.3622 144.064H37.7942ZM38.9462 147.864C38.7702 148.077 38.5595 148.264 38.3142 148.424C38.0689 148.579 37.8049 148.707 37.5222 148.808C37.2449 148.909 36.9569 148.984 36.6582 149.032C36.3595 149.085 36.0635 149.112 35.7702 149.112C35.2102 149.112 34.6929 149.019 34.2182 148.832C33.7489 148.64 33.3409 148.363 32.9942 148C32.6529 147.632 32.3862 147.179 32.1942 146.64C32.0022 146.101 31.9062 145.483 31.9062 144.784C31.9062 144.219 31.9915 143.691 32.1622 143.2C32.3382 142.709 32.5889 142.285 32.9142 141.928C33.2395 141.565 33.6369 141.283 34.1062 141.08C34.5755 140.872 35.1035 140.768 35.6902 140.768C36.1755 140.768 36.6235 140.851 37.0342 141.016C37.4502 141.176 37.8075 141.411 38.1062 141.72C38.4102 142.024 38.6475 142.403 38.8182 142.856C38.9889 143.304 39.0742 143.816 39.0742 144.392C39.0742 144.616 39.0502 144.765 39.0022 144.84C38.9542 144.915 38.8635 144.952 38.7302 144.952H33.3142C33.3302 145.464 33.3995 145.909 33.5222 146.288C33.6502 146.667 33.8262 146.984 34.0502 147.24C34.2742 147.491 34.5409 147.68 34.8502 147.808C35.1595 147.931 35.5062 147.992 35.8902 147.992C36.2475 147.992 36.5542 147.952 36.8102 147.872C37.0715 147.787 37.2955 147.696 37.4822 147.6C37.6689 147.504 37.8235 147.416 37.9462 147.336C38.0742 147.251 38.1835 147.208 38.2742 147.208C38.3915 147.208 38.4822 147.253 38.5462 147.344L38.9462 147.864ZM46.4633 142.336C46.4206 142.395 46.378 142.44 46.3353 142.472C46.2926 142.504 46.234 142.52 46.1593 142.52C46.0793 142.52 45.9913 142.488 45.8953 142.424C45.7993 142.355 45.6793 142.28 45.5353 142.2C45.3966 142.12 45.2233 142.048 45.0153 141.984C44.8126 141.915 44.562 141.88 44.2633 141.88C43.8633 141.88 43.5113 141.952 43.2073 142.096C42.9033 142.235 42.6473 142.437 42.4393 142.704C42.2366 142.971 42.082 143.293 41.9753 143.672C41.874 144.051 41.8233 144.475 41.8233 144.944C41.8233 145.435 41.8793 145.872 41.9913 146.256C42.1033 146.635 42.2606 146.955 42.4633 147.216C42.6713 147.472 42.9193 147.669 43.2073 147.808C43.5006 147.941 43.8286 148.008 44.1913 148.008C44.538 148.008 44.8233 147.968 45.0473 147.888C45.2713 147.803 45.4553 147.709 45.5993 147.608C45.7486 147.507 45.8713 147.416 45.9673 147.336C46.0686 147.251 46.1673 147.208 46.2633 147.208C46.3806 147.208 46.4713 147.253 46.5353 147.344L46.9353 147.864C46.7593 148.083 46.5593 148.269 46.3353 148.424C46.1113 148.579 45.8686 148.709 45.6073 148.816C45.3513 148.917 45.082 148.992 44.7993 149.04C44.5166 149.088 44.2286 149.112 43.9353 149.112C43.4286 149.112 42.9566 149.019 42.5193 148.832C42.0873 148.645 41.7113 148.376 41.3913 148.024C41.0713 147.667 40.8206 147.229 40.6393 146.712C40.458 146.195 40.3673 145.605 40.3673 144.944C40.3673 144.341 40.45 143.784 40.6153 143.272C40.786 142.76 41.0313 142.32 41.3513 141.952C41.6766 141.579 42.074 141.288 42.5433 141.08C43.018 140.872 43.562 140.768 44.1753 140.768C44.746 140.768 45.2473 140.861 45.6793 141.048C46.1166 141.229 46.5033 141.488 46.8393 141.824L46.4633 142.336ZM49.8959 141.976C50.2426 141.608 50.6266 141.315 51.0479 141.096C51.4693 140.877 51.9546 140.768 52.5039 140.768C52.9466 140.768 53.3359 140.843 53.6719 140.992C54.0133 141.136 54.2959 141.344 54.5199 141.616C54.7493 141.883 54.9226 142.205 55.0399 142.584C55.1573 142.963 55.2159 143.381 55.2159 143.84V149H53.7839V143.84C53.7839 143.227 53.6426 142.752 53.3599 142.416C53.0826 142.075 52.6586 141.904 52.0879 141.904C51.6666 141.904 51.2719 142.005 50.9039 142.208C50.5413 142.411 50.2053 142.685 49.8959 143.032V149H48.4639V137.216H49.8959V141.976ZM58.7298 142.072C58.9058 141.875 59.0925 141.696 59.2898 141.536C59.4871 141.376 59.6951 141.24 59.9138 141.128C60.1378 141.011 60.3725 140.923 60.6178 140.864C60.8685 140.8 61.1378 140.768 61.4258 140.768C61.8685 140.768 62.2578 140.843 62.5938 140.992C62.9351 141.136 63.2178 141.344 63.4418 141.616C63.6711 141.883 63.8445 142.205 63.9618 142.584C64.0791 142.963 64.1378 143.381 64.1378 143.84V149H62.7058V143.84C62.7058 143.227 62.5645 142.752 62.2818 142.416C62.0045 142.075 61.5805 141.904 61.0098 141.904C60.5885 141.904 60.1938 142.005 59.8258 142.208C59.4631 142.411 59.1271 142.685 58.8178 143.032V149H57.3858V140.896H58.2418C58.4445 140.896 58.5698 140.995 58.6178 141.192L58.7298 142.072ZM67.8117 140.896V149H66.3877V140.896H67.8117ZM68.1157 138.352C68.1157 138.491 68.0864 138.621 68.0277 138.744C67.9744 138.861 67.8997 138.968 67.8037 139.064C67.713 139.155 67.6037 139.227 67.4757 139.28C67.353 139.333 67.2224 139.36 67.0837 139.36C66.945 139.36 66.8144 139.333 66.6917 139.28C66.5744 139.227 66.4704 139.155 66.3797 139.064C66.289 138.968 66.217 138.861 66.1637 138.744C66.1104 138.621 66.0837 138.491 66.0837 138.352C66.0837 138.213 66.1104 138.083 66.1637 137.96C66.217 137.832 66.289 137.723 66.3797 137.632C66.4704 137.536 66.5744 137.461 66.6917 137.408C66.8144 137.355 66.945 137.328 67.0837 137.328C67.2224 137.328 67.353 137.355 67.4757 137.408C67.6037 137.461 67.713 137.536 67.8037 137.632C67.8997 137.723 67.9744 137.832 68.0277 137.96C68.0864 138.083 68.1157 138.213 68.1157 138.352ZM75.4314 142.816C75.1754 142.475 74.8901 142.232 74.5754 142.088C74.2608 141.939 73.9114 141.864 73.5274 141.864C72.7754 141.864 72.1968 142.133 71.7914 142.672C71.3861 143.211 71.1834 143.979 71.1834 144.976C71.1834 145.504 71.2288 145.957 71.3194 146.336C71.4101 146.709 71.5434 147.019 71.7194 147.264C71.8954 147.504 72.1114 147.68 72.3674 147.792C72.6234 147.904 72.9141 147.96 73.2394 147.96C73.7088 147.96 74.1168 147.853 74.4634 147.64C74.8154 147.427 75.1381 147.125 75.4314 146.736V142.816ZM76.8554 140.896V151.744H75.4314V147.792C75.0954 148.187 74.7088 148.507 74.2714 148.752C73.8341 148.992 73.3354 149.112 72.7754 149.112C72.3114 149.112 71.8901 149.024 71.5114 148.848C71.1328 148.667 70.8101 148.403 70.5434 148.056C70.2768 147.709 70.0714 147.277 69.9274 146.76C69.7834 146.243 69.7114 145.648 69.7114 144.976C69.7114 144.379 69.7914 143.824 69.9514 143.312C70.1114 142.795 70.3408 142.347 70.6394 141.968C70.9381 141.589 71.3034 141.293 71.7354 141.08C72.1728 140.861 72.6634 140.752 73.2074 140.752C73.7354 140.752 74.1834 140.845 74.5514 141.032C74.9194 141.219 75.2448 141.48 75.5274 141.816L75.6234 141.192C75.6768 140.995 75.8048 140.896 76.0074 140.896H76.8554ZM85.7686 140.896V149H84.9206C84.7179 149 84.5899 148.901 84.5366 148.704L84.4246 147.832C84.0726 148.221 83.6779 148.536 83.2406 148.776C82.8032 149.011 82.3019 149.128 81.7366 149.128C81.2939 149.128 80.9019 149.056 80.5606 148.912C80.2246 148.763 79.9419 148.555 79.7126 148.288C79.4832 148.021 79.3099 147.699 79.1926 147.32C79.0806 146.941 79.0246 146.523 79.0246 146.064V140.896H80.4486V146.064C80.4486 146.677 80.5872 147.152 80.8646 147.488C81.1472 147.824 81.5766 147.992 82.1526 147.992C82.5739 147.992 82.9659 147.893 83.3286 147.696C83.6966 147.493 84.0352 147.216 84.3446 146.864V140.896H85.7686ZM93.4504 144.064C93.4504 143.733 93.4024 143.432 93.3064 143.16C93.2158 142.883 93.0798 142.645 92.8984 142.448C92.7224 142.245 92.5064 142.091 92.2504 141.984C91.9944 141.872 91.7038 141.816 91.3784 141.816C90.6958 141.816 90.1544 142.016 89.7544 142.416C89.3598 142.811 89.1144 143.36 89.0184 144.064H93.4504ZM94.6024 147.864C94.4264 148.077 94.2158 148.264 93.9704 148.424C93.7251 148.579 93.4611 148.707 93.1784 148.808C92.9011 148.909 92.6131 148.984 92.3144 149.032C92.0158 149.085 91.7198 149.112 91.4264 149.112C90.8664 149.112 90.3491 149.019 89.8744 148.832C89.4051 148.64 88.9971 148.363 88.6504 148C88.3091 147.632 88.0424 147.179 87.8504 146.64C87.6584 146.101 87.5624 145.483 87.5624 144.784C87.5624 144.219 87.6478 143.691 87.8184 143.2C87.9944 142.709 88.2451 142.285 88.5704 141.928C88.8958 141.565 89.2931 141.283 89.7624 141.08C90.2318 140.872 90.7598 140.768 91.3464 140.768C91.8318 140.768 92.2798 140.851 92.6904 141.016C93.1064 141.176 93.4638 141.411 93.7624 141.72C94.0664 142.024 94.3038 142.403 94.4744 142.856C94.6451 143.304 94.7304 143.816 94.7304 144.392C94.7304 144.616 94.7064 144.765 94.6584 144.84C94.6104 144.915 94.5198 144.952 94.3864 144.952H88.9704C88.9864 145.464 89.0558 145.909 89.1784 146.288C89.3064 146.667 89.4824 146.984 89.7064 147.24C89.9304 147.491 90.1971 147.68 90.5064 147.808C90.8158 147.931 91.1624 147.992 91.5464 147.992C91.9038 147.992 92.2104 147.952 92.4664 147.872C92.7278 147.787 92.9518 147.696 93.1384 147.6C93.3251 147.504 93.4798 147.416 93.6024 147.336C93.7304 147.251 93.8398 147.208 93.9304 147.208C94.0478 147.208 94.1384 147.253 94.2024 147.344L94.6024 147.864ZM101.2 142.232C101.136 142.349 101.037 142.408 100.904 142.408C100.824 142.408 100.733 142.379 100.632 142.32C100.53 142.261 100.405 142.197 100.256 142.128C100.112 142.053 99.9382 141.987 99.7356 141.928C99.5329 141.864 99.2929 141.832 99.0156 141.832C98.7756 141.832 98.5596 141.864 98.3676 141.928C98.1756 141.987 98.0102 142.069 97.8716 142.176C97.7382 142.283 97.6342 142.408 97.5596 142.552C97.4902 142.691 97.4556 142.843 97.4556 143.008C97.4556 143.216 97.5142 143.389 97.6316 143.528C97.7542 143.667 97.9142 143.787 98.1116 143.888C98.3089 143.989 98.5329 144.08 98.7836 144.16C99.0342 144.235 99.2902 144.317 99.5516 144.408C99.8182 144.493 100.077 144.589 100.328 144.696C100.578 144.803 100.802 144.936 101 145.096C101.197 145.256 101.354 145.453 101.472 145.688C101.594 145.917 101.656 146.195 101.656 146.52C101.656 146.893 101.589 147.24 101.456 147.56C101.322 147.875 101.125 148.149 100.864 148.384C100.602 148.613 100.282 148.795 99.9036 148.928C99.5249 149.061 99.0876 149.128 98.5916 149.128C98.0262 149.128 97.5142 149.037 97.0556 148.856C96.5969 148.669 96.2076 148.432 95.8876 148.144L96.2236 147.6C96.2662 147.531 96.3169 147.477 96.3756 147.44C96.4342 147.403 96.5089 147.384 96.5996 147.384C96.6956 147.384 96.7969 147.421 96.9036 147.496C97.0102 147.571 97.1382 147.653 97.2876 147.744C97.4422 147.835 97.6289 147.917 97.8476 147.992C98.0662 148.067 98.3382 148.104 98.6636 148.104C98.9409 148.104 99.1836 148.069 99.3916 148C99.5996 147.925 99.7729 147.827 99.9116 147.704C100.05 147.581 100.152 147.44 100.216 147.28C100.285 147.12 100.32 146.949 100.32 146.768C100.32 146.544 100.258 146.36 100.136 146.216C100.018 146.067 99.8609 145.941 99.6636 145.84C99.4662 145.733 99.2396 145.643 98.9836 145.568C98.7329 145.488 98.4742 145.405 98.2076 145.32C97.9462 145.235 97.6876 145.139 97.4316 145.032C97.1809 144.92 96.9569 144.781 96.7596 144.616C96.5622 144.451 96.4022 144.248 96.2796 144.008C96.1622 143.763 96.1036 143.467 96.1036 143.12C96.1036 142.811 96.1676 142.515 96.2956 142.232C96.4236 141.944 96.6102 141.693 96.8556 141.48C97.1009 141.261 97.4022 141.088 97.7596 140.96C98.1169 140.832 98.5249 140.768 98.9836 140.768C99.5169 140.768 99.9942 140.853 100.416 141.024C100.842 141.189 101.21 141.419 101.52 141.712L101.2 142.232ZM112.775 142.824C112.509 142.467 112.221 142.219 111.911 142.08C111.602 141.936 111.255 141.864 110.871 141.864C110.119 141.864 109.541 142.133 109.135 142.672C108.73 143.211 108.527 143.979 108.527 144.976C108.527 145.504 108.573 145.957 108.663 146.336C108.754 146.709 108.887 147.019 109.063 147.264C109.239 147.504 109.455 147.68 109.711 147.792C109.967 147.904 110.258 147.96 110.583 147.96C111.053 147.96 111.461 147.853 111.807 147.64C112.159 147.427 112.482 147.125 112.775 146.736V142.824ZM114.199 137.216V149H113.351C113.149 149 113.021 148.901 112.967 148.704L112.839 147.72C112.493 148.136 112.098 148.472 111.655 148.728C111.213 148.984 110.701 149.112 110.119 149.112C109.655 149.112 109.234 149.024 108.855 148.848C108.477 148.667 108.154 148.403 107.887 148.056C107.621 147.709 107.415 147.277 107.271 146.76C107.127 146.243 107.055 145.648 107.055 144.976C107.055 144.379 107.135 143.824 107.295 143.312C107.455 142.795 107.685 142.347 107.983 141.968C108.282 141.589 108.647 141.293 109.079 141.08C109.517 140.861 110.007 140.752 110.551 140.752C111.047 140.752 111.471 140.837 111.823 141.008C112.181 141.173 112.498 141.405 112.775 141.704V137.216H114.199ZM117.432 136.768C117.656 137.147 117.808 137.547 117.888 137.968C117.968 138.389 117.976 138.805 117.912 139.216C117.848 139.627 117.715 140.021 117.512 140.4C117.31 140.779 117.04 141.115 116.704 141.408L116.272 141.128C116.192 141.08 116.155 141.019 116.16 140.944C116.171 140.864 116.198 140.8 116.24 140.752C116.379 140.581 116.496 140.376 116.592 140.136C116.694 139.891 116.758 139.629 116.784 139.352C116.816 139.069 116.803 138.779 116.744 138.48C116.691 138.181 116.582 137.893 116.416 137.616C116.347 137.504 116.326 137.405 116.352 137.32C116.384 137.229 116.451 137.163 116.552 137.12L117.432 136.768ZM121.374 140.896V149H119.95V140.896H121.374ZM121.678 138.352C121.678 138.491 121.649 138.621 121.59 138.744C121.537 138.861 121.462 138.968 121.366 139.064C121.276 139.155 121.166 139.227 121.038 139.28C120.916 139.333 120.785 139.36 120.646 139.36C120.508 139.36 120.377 139.333 120.254 139.28C120.137 139.227 120.033 139.155 119.942 139.064C119.852 138.968 119.78 138.861 119.726 138.744C119.673 138.621 119.646 138.491 119.646 138.352C119.646 138.213 119.673 138.083 119.726 137.96C119.78 137.832 119.852 137.723 119.942 137.632C120.033 137.536 120.137 137.461 120.254 137.408C120.377 137.355 120.508 137.328 120.646 137.328C120.785 137.328 120.916 137.355 121.038 137.408C121.166 137.461 121.276 137.536 121.366 137.632C121.462 137.723 121.537 137.832 121.59 137.96C121.649 138.083 121.678 138.213 121.678 138.352ZM125.058 142.072C125.234 141.875 125.421 141.696 125.618 141.536C125.815 141.376 126.023 141.24 126.242 141.128C126.466 141.011 126.701 140.923 126.946 140.864C127.197 140.8 127.466 140.768 127.754 140.768C128.197 140.768 128.586 140.843 128.922 140.992C129.263 141.136 129.546 141.344 129.77 141.616C129.999 141.883 130.173 142.205 130.29 142.584C130.407 142.963 130.466 143.381 130.466 143.84V149H129.034V143.84C129.034 143.227 128.893 142.752 128.61 142.416C128.333 142.075 127.909 141.904 127.338 141.904C126.917 141.904 126.522 142.005 126.154 142.208C125.791 142.411 125.455 142.685 125.146 143.032V149H123.714V140.896H124.57C124.773 140.896 124.898 140.995 124.946 141.192L125.058 142.072ZM135.014 149.128C134.374 149.128 133.881 148.949 133.534 148.592C133.193 148.235 133.022 147.72 133.022 147.048V142.088H132.046C131.961 142.088 131.889 142.064 131.83 142.016C131.772 141.963 131.742 141.883 131.742 141.776V141.208L133.07 141.04L133.398 138.536C133.414 138.456 133.449 138.392 133.502 138.344C133.561 138.291 133.636 138.264 133.726 138.264H134.446V141.056H136.79V142.088H134.446V146.952C134.446 147.293 134.529 147.547 134.694 147.712C134.86 147.877 135.073 147.96 135.334 147.96C135.484 147.96 135.612 147.941 135.718 147.904C135.83 147.861 135.926 147.816 136.006 147.768C136.086 147.72 136.153 147.677 136.206 147.64C136.265 147.597 136.316 147.576 136.358 147.576C136.433 147.576 136.5 147.621 136.558 147.712L136.974 148.392C136.729 148.621 136.433 148.803 136.086 148.936C135.74 149.064 135.382 149.128 135.014 149.128ZM143.638 144.064C143.638 143.733 143.59 143.432 143.494 143.16C143.403 142.883 143.267 142.645 143.086 142.448C142.91 142.245 142.694 142.091 142.438 141.984C142.182 141.872 141.891 141.816 141.566 141.816C140.883 141.816 140.342 142.016 139.942 142.416C139.547 142.811 139.302 143.36 139.206 144.064H143.638ZM144.79 147.864C144.614 148.077 144.403 148.264 144.158 148.424C143.913 148.579 143.649 148.707 143.366 148.808C143.089 148.909 142.801 148.984 142.502 149.032C142.203 149.085 141.907 149.112 141.614 149.112C141.054 149.112 140.537 149.019 140.062 148.832C139.593 148.64 139.185 148.363 138.838 148C138.497 147.632 138.23 147.179 138.038 146.64C137.846 146.101 137.75 145.483 137.75 144.784C137.75 144.219 137.835 143.691 138.006 143.2C138.182 142.709 138.433 142.285 138.758 141.928C139.083 141.565 139.481 141.283 139.95 141.08C140.419 140.872 140.947 140.768 141.534 140.768C142.019 140.768 142.467 140.851 142.878 141.016C143.294 141.176 143.651 141.411 143.95 141.72C144.254 142.024 144.491 142.403 144.662 142.856C144.833 143.304 144.918 143.816 144.918 144.392C144.918 144.616 144.894 144.765 144.846 144.84C144.798 144.915 144.707 144.952 144.574 144.952H139.158C139.174 145.464 139.243 145.909 139.366 146.288C139.494 146.667 139.67 146.984 139.894 147.24C140.118 147.491 140.385 147.68 140.694 147.808C141.003 147.931 141.35 147.992 141.734 147.992C142.091 147.992 142.398 147.952 142.654 147.872C142.915 147.787 143.139 147.696 143.326 147.6C143.513 147.504 143.667 147.416 143.79 147.336C143.918 147.251 144.027 147.208 144.118 147.208C144.235 147.208 144.326 147.253 144.39 147.344L144.79 147.864ZM143.894 137.408L142.03 139.472C141.955 139.552 141.881 139.611 141.806 139.648C141.737 139.68 141.646 139.696 141.534 139.696H140.686L141.87 137.76C141.945 137.637 142.025 137.549 142.11 137.496C142.201 137.437 142.331 137.408 142.502 137.408H143.894ZM149.491 145.04C149.779 145.04 150.032 145 150.251 144.92C150.47 144.84 150.654 144.728 150.803 144.584C150.952 144.44 151.064 144.269 151.139 144.072C151.214 143.869 151.251 143.648 151.251 143.408C151.251 142.912 151.099 142.517 150.795 142.224C150.496 141.931 150.062 141.784 149.491 141.784C148.915 141.784 148.475 141.931 148.171 142.224C147.872 142.517 147.723 142.912 147.723 143.408C147.723 143.648 147.76 143.869 147.835 144.072C147.915 144.269 148.03 144.44 148.179 144.584C148.328 144.728 148.512 144.84 148.731 144.92C148.95 145 149.203 145.04 149.491 145.04ZM152.059 149.44C152.059 149.243 152.003 149.083 151.891 148.96C151.779 148.837 151.627 148.741 151.435 148.672C151.248 148.603 151.03 148.555 150.779 148.528C150.528 148.496 150.262 148.472 149.979 148.456C149.702 148.44 149.419 148.424 149.131 148.408C148.843 148.392 148.566 148.365 148.299 148.328C148 148.467 147.755 148.643 147.563 148.856C147.376 149.064 147.283 149.309 147.283 149.592C147.283 149.773 147.328 149.941 147.419 150.096C147.515 150.256 147.659 150.392 147.851 150.504C148.043 150.621 148.283 150.712 148.571 150.776C148.864 150.845 149.208 150.88 149.603 150.88C149.987 150.88 150.331 150.845 150.635 150.776C150.939 150.707 151.195 150.608 151.403 150.48C151.616 150.352 151.779 150.2 151.891 150.024C152.003 149.848 152.059 149.653 152.059 149.44ZM153.507 141.216V141.744C153.507 141.92 153.395 142.032 153.171 142.08L152.251 142.2C152.432 142.552 152.523 142.941 152.523 143.368C152.523 143.763 152.446 144.123 152.291 144.448C152.142 144.768 151.934 145.043 151.667 145.272C151.4 145.501 151.08 145.677 150.707 145.8C150.334 145.923 149.928 145.984 149.491 145.984C149.112 145.984 148.755 145.939 148.419 145.848C148.248 145.955 148.118 146.069 148.027 146.192C147.936 146.309 147.891 146.429 147.891 146.552C147.891 146.744 147.968 146.891 148.123 146.992C148.283 147.088 148.491 147.157 148.747 147.2C149.003 147.243 149.294 147.269 149.619 147.28C149.95 147.291 150.286 147.309 150.627 147.336C150.974 147.357 151.31 147.397 151.635 147.456C151.966 147.515 152.259 147.611 152.515 147.744C152.771 147.877 152.976 148.061 153.131 148.296C153.291 148.531 153.371 148.835 153.371 149.208C153.371 149.555 153.283 149.891 153.107 150.216C152.936 150.541 152.688 150.829 152.363 151.08C152.038 151.336 151.638 151.539 151.163 151.688C150.694 151.843 150.163 151.92 149.571 151.92C148.979 151.92 148.462 151.861 148.019 151.744C147.576 151.627 147.208 151.469 146.915 151.272C146.622 151.075 146.4 150.845 146.251 150.584C146.107 150.328 146.035 150.059 146.035 149.776C146.035 149.376 146.16 149.037 146.411 148.76C146.662 148.483 147.006 148.261 147.443 148.096C147.203 147.989 147.011 147.848 146.867 147.672C146.728 147.491 146.659 147.248 146.659 146.944C146.659 146.827 146.68 146.707 146.723 146.584C146.766 146.456 146.83 146.331 146.915 146.208C147.006 146.08 147.115 145.96 147.243 145.848C147.371 145.736 147.52 145.637 147.691 145.552C147.291 145.328 146.979 145.032 146.755 144.664C146.531 144.291 146.419 143.859 146.419 143.368C146.419 142.973 146.494 142.616 146.643 142.296C146.798 141.971 147.011 141.696 147.283 141.472C147.555 141.243 147.878 141.067 148.251 140.944C148.63 140.821 149.043 140.76 149.491 140.76C149.843 140.76 150.171 140.8 150.475 140.88C150.779 140.955 151.056 141.067 151.307 141.216H153.507ZM156.332 142.52C156.588 141.965 156.902 141.533 157.276 141.224C157.649 140.909 158.105 140.752 158.644 140.752C158.814 140.752 158.977 140.771 159.132 140.808C159.292 140.845 159.433 140.904 159.556 140.984L159.452 142.048C159.42 142.181 159.34 142.248 159.212 142.248C159.137 142.248 159.028 142.232 158.884 142.2C158.74 142.168 158.577 142.152 158.396 142.152C158.14 142.152 157.91 142.189 157.708 142.264C157.51 142.339 157.332 142.451 157.172 142.6C157.017 142.744 156.876 142.925 156.748 143.144C156.625 143.357 156.513 143.603 156.412 143.88V149H154.98V140.896H155.796C155.95 140.896 156.057 140.925 156.116 140.984C156.174 141.043 156.214 141.144 156.236 141.288L156.332 142.52ZM165.075 145.352C164.419 145.373 163.859 145.427 163.395 145.512C162.936 145.592 162.56 145.699 162.267 145.832C161.979 145.965 161.768 146.123 161.635 146.304C161.507 146.485 161.443 146.688 161.443 146.912C161.443 147.125 161.477 147.309 161.547 147.464C161.616 147.619 161.709 147.747 161.827 147.848C161.949 147.944 162.091 148.016 162.251 148.064C162.416 148.107 162.592 148.128 162.779 148.128C163.029 148.128 163.259 148.104 163.467 148.056C163.675 148.003 163.869 147.928 164.051 147.832C164.237 147.736 164.413 147.621 164.579 147.488C164.749 147.355 164.915 147.203 165.075 147.032V145.352ZM160.475 142.04C160.923 141.608 161.405 141.285 161.923 141.072C162.44 140.859 163.013 140.752 163.643 140.752C164.096 140.752 164.499 140.827 164.851 140.976C165.203 141.125 165.499 141.333 165.739 141.6C165.979 141.867 166.16 142.189 166.283 142.568C166.405 142.947 166.467 143.363 166.467 143.816V149H165.835C165.696 149 165.589 148.979 165.515 148.936C165.44 148.888 165.381 148.797 165.339 148.664L165.179 147.896C164.965 148.093 164.757 148.269 164.555 148.424C164.352 148.573 164.139 148.701 163.915 148.808C163.691 148.909 163.451 148.987 163.195 149.04C162.944 149.099 162.664 149.128 162.355 149.128C162.04 149.128 161.744 149.085 161.467 149C161.189 148.909 160.947 148.776 160.739 148.6C160.536 148.424 160.373 148.203 160.251 147.936C160.133 147.664 160.075 147.344 160.075 146.976C160.075 146.656 160.163 146.349 160.339 146.056C160.515 145.757 160.8 145.493 161.195 145.264C161.589 145.035 162.104 144.848 162.739 144.704C163.373 144.555 164.152 144.469 165.075 144.448V143.816C165.075 143.187 164.939 142.712 164.667 142.392C164.395 142.067 163.997 141.904 163.475 141.904C163.123 141.904 162.827 141.949 162.587 142.04C162.352 142.125 162.147 142.224 161.971 142.336C161.8 142.443 161.651 142.541 161.523 142.632C161.4 142.717 161.277 142.76 161.155 142.76C161.059 142.76 160.976 142.736 160.907 142.688C160.837 142.635 160.779 142.571 160.731 142.496L160.475 142.04ZM176.046 149H174.622V142.088H170.446V146.952C170.446 147.293 170.529 147.547 170.694 147.712C170.86 147.877 171.073 147.96 171.334 147.96C171.484 147.96 171.612 147.941 171.718 147.904C171.83 147.861 171.926 147.816 172.006 147.768C172.086 147.72 172.153 147.677 172.206 147.64C172.265 147.597 172.316 147.576 172.358 147.576C172.433 147.576 172.5 147.621 172.558 147.712L172.974 148.392C172.729 148.621 172.433 148.803 172.086 148.936C171.74 149.064 171.382 149.128 171.014 149.128C170.374 149.128 169.881 148.949 169.534 148.592C169.193 148.235 169.022 147.72 169.022 147.048V142.088H168.046C167.961 142.088 167.889 142.064 167.83 142.016C167.772 141.963 167.742 141.883 167.742 141.776V141.208L169.07 141.032L169.398 138.536C169.414 138.456 169.449 138.392 169.502 138.344C169.561 138.291 169.636 138.264 169.726 138.264H170.446V141.056H176.046V149ZM176.398 138.296C176.398 138.435 176.369 138.565 176.31 138.688C176.257 138.805 176.182 138.909 176.086 139C175.996 139.091 175.889 139.163 175.766 139.216C175.644 139.269 175.513 139.296 175.374 139.296C175.236 139.296 175.105 139.269 174.982 139.216C174.865 139.163 174.761 139.091 174.67 139C174.58 138.909 174.508 138.805 174.454 138.688C174.401 138.565 174.374 138.435 174.374 138.296C174.374 138.157 174.401 138.027 174.454 137.904C174.508 137.776 174.58 137.667 174.67 137.576C174.761 137.48 174.865 137.405 174.982 137.352C175.105 137.299 175.236 137.272 175.374 137.272C175.513 137.272 175.644 137.299 175.766 137.352C175.889 137.405 175.996 137.48 176.086 137.576C176.182 137.667 176.257 137.776 176.31 137.904C176.369 138.027 176.398 138.157 176.398 138.296ZM181.802 140.768C182.394 140.768 182.927 140.867 183.402 141.064C183.876 141.261 184.282 141.541 184.618 141.904C184.954 142.267 185.21 142.707 185.386 143.224C185.567 143.736 185.658 144.309 185.658 144.944C185.658 145.584 185.567 146.16 185.386 146.672C185.21 147.184 184.954 147.621 184.618 147.984C184.282 148.347 183.876 148.627 183.402 148.824C182.927 149.016 182.394 149.112 181.802 149.112C181.204 149.112 180.666 149.016 180.186 148.824C179.711 148.627 179.306 148.347 178.97 147.984C178.634 147.621 178.375 147.184 178.194 146.672C178.018 146.16 177.93 145.584 177.93 144.944C177.93 144.309 178.018 143.736 178.194 143.224C178.375 142.707 178.634 142.267 178.97 141.904C179.306 141.541 179.711 141.261 180.186 141.064C180.666 140.867 181.204 140.768 181.802 140.768ZM181.802 148C182.602 148 183.199 147.733 183.594 147.2C183.988 146.661 184.186 145.912 184.186 144.952C184.186 143.987 183.988 143.235 183.594 142.696C183.199 142.157 182.602 141.888 181.802 141.888C181.396 141.888 181.042 141.957 180.738 142.096C180.439 142.235 180.188 142.435 179.986 142.696C179.788 142.957 179.639 143.28 179.538 143.664C179.442 144.043 179.394 144.472 179.394 144.952C179.394 145.912 179.591 146.661 179.986 147.2C180.386 147.733 180.991 148 181.802 148ZM188.808 142.072C188.984 141.875 189.171 141.696 189.368 141.536C189.565 141.376 189.773 141.24 189.992 141.128C190.216 141.011 190.451 140.923 190.696 140.864C190.947 140.8 191.216 140.768 191.504 140.768C191.947 140.768 192.336 140.843 192.672 140.992C193.013 141.136 193.296 141.344 193.52 141.616C193.749 141.883 193.923 142.205 194.04 142.584C194.157 142.963 194.216 143.381 194.216 143.84V149H192.784V143.84C192.784 143.227 192.643 142.752 192.36 142.416C192.083 142.075 191.659 141.904 191.088 141.904C190.667 141.904 190.272 142.005 189.904 142.208C189.541 142.411 189.205 142.685 188.896 143.032V149H187.464V140.896H188.32C188.523 140.896 188.648 140.995 188.696 141.192L188.808 142.072ZM20.5421 168V159.896H21.3981C21.6007 159.896 21.7261 159.995 21.7741 160.192L21.8781 161.024C22.1767 160.656 22.5127 160.355 22.8861 160.12C23.2594 159.885 23.6914 159.768 24.1821 159.768C24.7261 159.768 25.1661 159.92 25.5021 160.224C25.8434 160.528 26.0887 160.939 26.2381 161.456C26.3554 161.163 26.5047 160.909 26.6861 160.696C26.8727 160.483 27.0807 160.307 27.3101 160.168C27.5394 160.029 27.7821 159.928 28.0381 159.864C28.2994 159.8 28.5634 159.768 28.8301 159.768C29.2567 159.768 29.6354 159.837 29.9661 159.976C30.3021 160.109 30.5847 160.307 30.8141 160.568C31.0487 160.829 31.2274 161.152 31.3501 161.536C31.4727 161.915 31.5341 162.349 31.5341 162.84V168H30.1021V162.84C30.1021 162.205 29.9634 161.725 29.6861 161.4C29.4087 161.069 29.0087 160.904 28.4861 160.904C28.2514 160.904 28.0274 160.947 27.8141 161.032C27.6061 161.112 27.4221 161.232 27.2621 161.392C27.1021 161.552 26.9741 161.755 26.8781 162C26.7874 162.24 26.7421 162.52 26.7421 162.84V168H25.3101V162.84C25.3101 162.189 25.1794 161.704 24.9181 161.384C24.6567 161.064 24.2754 160.904 23.7741 160.904C23.4221 160.904 23.0967 161 22.7981 161.192C22.4994 161.379 22.2247 161.635 21.9741 161.96V168H20.5421ZM40.3623 159.896V168H39.5143C39.3116 168 39.1836 167.901 39.1303 167.704L39.0183 166.832C38.6663 167.221 38.2716 167.536 37.8343 167.776C37.397 168.011 36.8956 168.128 36.3303 168.128C35.8876 168.128 35.4956 168.056 35.1543 167.912C34.8183 167.763 34.5356 167.555 34.3063 167.288C34.077 167.021 33.9036 166.699 33.7863 166.32C33.6743 165.941 33.6183 165.523 33.6183 165.064V159.896H35.0423V165.064C35.0423 165.677 35.181 166.152 35.4583 166.488C35.741 166.824 36.1703 166.992 36.7463 166.992C37.1676 166.992 37.5596 166.893 37.9223 166.696C38.2903 166.493 38.629 166.216 38.9383 165.864V159.896H40.3623ZM44.0922 156.216V168H42.6682V156.216H44.0922ZM53.9214 168H52.4974V161.088H48.3214V165.952C48.3214 166.293 48.4041 166.547 48.5694 166.712C48.7348 166.877 48.9481 166.96 49.2094 166.96C49.3588 166.96 49.4868 166.941 49.5934 166.904C49.7054 166.861 49.8014 166.816 49.8814 166.768C49.9614 166.72 50.0281 166.677 50.0814 166.64C50.1401 166.597 50.1908 166.576 50.2334 166.576C50.3081 166.576 50.3748 166.621 50.4334 166.712L50.8494 167.392C50.6041 167.621 50.3081 167.803 49.9614 167.936C49.6148 168.064 49.2574 168.128 48.8894 168.128C48.2494 168.128 47.7561 167.949 47.4094 167.592C47.0681 167.235 46.8974 166.72 46.8974 166.048V161.088H45.9214C45.8361 161.088 45.7641 161.064 45.7054 161.016C45.6468 160.963 45.6174 160.883 45.6174 160.776V160.208L46.9454 160.032L47.2734 157.536C47.2894 157.456 47.3241 157.392 47.3774 157.344C47.4361 157.291 47.5108 157.264 47.6014 157.264H48.3214V160.056H53.9214V168ZM54.2734 157.296C54.2734 157.435 54.2441 157.565 54.1854 157.688C54.1321 157.805 54.0574 157.909 53.9614 158C53.8708 158.091 53.7641 158.163 53.6414 158.216C53.5188 158.269 53.3881 158.296 53.2494 158.296C53.1108 158.296 52.9801 158.269 52.8574 158.216C52.7401 158.163 52.6361 158.091 52.5454 158C52.4548 157.909 52.3828 157.805 52.3294 157.688C52.2761 157.565 52.2494 157.435 52.2494 157.296C52.2494 157.157 52.2761 157.027 52.3294 156.904C52.3828 156.776 52.4548 156.667 52.5454 156.576C52.6361 156.48 52.7401 156.405 52.8574 156.352C52.9801 156.299 53.1108 156.272 53.2494 156.272C53.3881 156.272 53.5188 156.299 53.6414 156.352C53.7641 156.405 53.8708 156.48 53.9614 156.576C54.0574 156.667 54.1321 156.776 54.1854 156.904C54.2441 157.027 54.2734 157.157 54.2734 157.296ZM56.2608 168V159.896H57.1168C57.3195 159.896 57.4448 159.995 57.4928 160.192L57.5968 161.024C57.8955 160.656 58.2315 160.355 58.6048 160.12C58.9781 159.885 59.4101 159.768 59.9008 159.768C60.4448 159.768 60.8848 159.92 61.2208 160.224C61.5621 160.528 61.8075 160.939 61.9568 161.456C62.0741 161.163 62.2235 160.909 62.4048 160.696C62.5915 160.483 62.7995 160.307 63.0288 160.168C63.2581 160.029 63.5008 159.928 63.7568 159.864C64.0181 159.8 64.2821 159.768 64.5488 159.768C64.9755 159.768 65.3541 159.837 65.6848 159.976C66.0208 160.109 66.3035 160.307 66.5328 160.568C66.7675 160.829 66.9461 161.152 67.0688 161.536C67.1915 161.915 67.2528 162.349 67.2528 162.84V168H65.8208V162.84C65.8208 162.205 65.6821 161.725 65.4048 161.4C65.1275 161.069 64.7275 160.904 64.2048 160.904C63.9701 160.904 63.7461 160.947 63.5328 161.032C63.3248 161.112 63.1408 161.232 62.9808 161.392C62.8208 161.552 62.6928 161.755 62.5968 162C62.5061 162.24 62.4608 162.52 62.4608 162.84V168H61.0288V162.84C61.0288 162.189 60.8981 161.704 60.6368 161.384C60.3755 161.064 59.9941 160.904 59.4928 160.904C59.1408 160.904 58.8155 161 58.5168 161.192C58.2181 161.379 57.9435 161.635 57.6928 161.96V168H56.2608ZM74.8411 163.064C74.8411 162.733 74.7931 162.432 74.6971 162.16C74.6064 161.883 74.4704 161.645 74.2891 161.448C74.1131 161.245 73.8971 161.091 73.6411 160.984C73.3851 160.872 73.0944 160.816 72.7691 160.816C72.0864 160.816 71.5451 161.016 71.1451 161.416C70.7504 161.811 70.5051 162.36 70.4091 163.064H74.8411ZM75.9931 166.864C75.8171 167.077 75.6064 167.264 75.3611 167.424C75.1157 167.579 74.8517 167.707 74.5691 167.808C74.2917 167.909 74.0037 167.984 73.7051 168.032C73.4064 168.085 73.1104 168.112 72.8171 168.112C72.2571 168.112 71.7397 168.019 71.2651 167.832C70.7957 167.64 70.3877 167.363 70.0411 167C69.6997 166.632 69.4331 166.179 69.2411 165.64C69.0491 165.101 68.9531 164.483 68.9531 163.784C68.9531 163.219 69.0384 162.691 69.2091 162.2C69.3851 161.709 69.6357 161.285 69.9611 160.928C70.2864 160.565 70.6837 160.283 71.1531 160.08C71.6224 159.872 72.1504 159.768 72.7371 159.768C73.2224 159.768 73.6704 159.851 74.0811 160.016C74.4971 160.176 74.8544 160.411 75.1531 160.72C75.4571 161.024 75.6944 161.403 75.8651 161.856C76.0357 162.304 76.1211 162.816 76.1211 163.392C76.1211 163.616 76.0971 163.765 76.0491 163.84C76.0011 163.915 75.9104 163.952 75.7771 163.952H70.3611C70.3771 164.464 70.4464 164.909 70.5691 165.288C70.6971 165.667 70.8731 165.984 71.0971 166.24C71.3211 166.491 71.5877 166.68 71.8971 166.808C72.2064 166.931 72.5531 166.992 72.9371 166.992C73.2944 166.992 73.6011 166.952 73.8571 166.872C74.1184 166.787 74.3424 166.696 74.5291 166.6C74.7157 166.504 74.8704 166.416 74.9931 166.336C75.1211 166.251 75.2304 166.208 75.3211 166.208C75.4384 166.208 75.5291 166.253 75.5931 166.344L75.9931 166.864ZM75.0971 156.408L73.2331 158.472C73.1584 158.552 73.0837 158.611 73.0091 158.648C72.9397 158.68 72.8491 158.696 72.7371 158.696H71.8891L73.0731 156.76C73.1477 156.637 73.2277 156.549 73.3131 156.496C73.4037 156.437 73.5344 156.408 73.7051 156.408H75.0971ZM83.1502 161.824C82.8835 161.467 82.5955 161.219 82.2862 161.08C81.9769 160.936 81.6302 160.864 81.2462 160.864C80.4942 160.864 79.9155 161.133 79.5102 161.672C79.1049 162.211 78.9022 162.979 78.9022 163.976C78.9022 164.504 78.9475 164.957 79.0382 165.336C79.1289 165.709 79.2622 166.019 79.4382 166.264C79.6142 166.504 79.8302 166.68 80.0862 166.792C80.3422 166.904 80.6329 166.96 80.9582 166.96C81.4275 166.96 81.8355 166.853 82.1822 166.64C82.5342 166.427 82.8569 166.125 83.1502 165.736V161.824ZM84.5742 156.216V168H83.7262C83.5235 168 83.3955 167.901 83.3422 167.704L83.2142 166.72C82.8675 167.136 82.4729 167.472 82.0302 167.728C81.5875 167.984 81.0755 168.112 80.4942 168.112C80.0302 168.112 79.6089 168.024 79.2302 167.848C78.8515 167.667 78.5289 167.403 78.2622 167.056C77.9955 166.709 77.7902 166.277 77.6462 165.76C77.5022 165.243 77.4302 164.648 77.4302 163.976C77.4302 163.379 77.5102 162.824 77.6702 162.312C77.8302 161.795 78.0595 161.347 78.3582 160.968C78.6569 160.589 79.0222 160.293 79.4542 160.08C79.8915 159.861 80.3822 159.752 80.9262 159.752C81.4222 159.752 81.8462 159.837 82.1982 160.008C82.5555 160.173 82.8729 160.405 83.1502 160.704V156.216H84.5742ZM88.3273 159.896V168H86.9033V159.896H88.3273ZM88.6313 157.352C88.6313 157.491 88.602 157.621 88.5433 157.744C88.49 157.861 88.4153 157.968 88.3193 158.064C88.2286 158.155 88.1193 158.227 87.9913 158.28C87.8686 158.333 87.738 158.36 87.5993 158.36C87.4606 158.36 87.33 158.333 87.2073 158.28C87.09 158.227 86.986 158.155 86.8953 158.064C86.8046 157.968 86.7326 157.861 86.6793 157.744C86.626 157.621 86.5993 157.491 86.5993 157.352C86.5993 157.213 86.626 157.083 86.6793 156.96C86.7326 156.832 86.8046 156.723 86.8953 156.632C86.986 156.536 87.09 156.461 87.2073 156.408C87.33 156.355 87.4606 156.328 87.5993 156.328C87.738 156.328 87.8686 156.355 87.9913 156.408C88.1193 156.461 88.2286 156.536 88.3193 156.632C88.4153 156.723 88.49 156.832 88.5433 156.96C88.602 157.083 88.6313 157.213 88.6313 157.352ZM95.0591 164.352C94.4031 164.373 93.8431 164.427 93.3791 164.512C92.9204 164.592 92.5444 164.699 92.2511 164.832C91.9631 164.965 91.7524 165.123 91.6191 165.304C91.4911 165.485 91.4271 165.688 91.4271 165.912C91.4271 166.125 91.4617 166.309 91.5311 166.464C91.6004 166.619 91.6937 166.747 91.8111 166.848C91.9337 166.944 92.0751 167.016 92.2351 167.064C92.4004 167.107 92.5764 167.128 92.7631 167.128C93.0137 167.128 93.2431 167.104 93.4511 167.056C93.6591 167.003 93.8537 166.928 94.0351 166.832C94.2217 166.736 94.3977 166.621 94.5631 166.488C94.7337 166.355 94.8991 166.203 95.0591 166.032V164.352ZM90.4591 161.04C90.9071 160.608 91.3897 160.285 91.9071 160.072C92.4244 159.859 92.9977 159.752 93.6271 159.752C94.0804 159.752 94.4831 159.827 94.8351 159.976C95.1871 160.125 95.4831 160.333 95.7231 160.6C95.9631 160.867 96.1444 161.189 96.2671 161.568C96.3897 161.947 96.4511 162.363 96.4511 162.816V168H95.8191C95.6804 168 95.5737 167.979 95.4991 167.936C95.4244 167.888 95.3657 167.797 95.3231 167.664L95.1631 166.896C94.9497 167.093 94.7417 167.269 94.5391 167.424C94.3364 167.573 94.1231 167.701 93.8991 167.808C93.6751 167.909 93.4351 167.987 93.1791 168.04C92.9284 168.099 92.6484 168.128 92.3391 168.128C92.0244 168.128 91.7284 168.085 91.4511 168C91.1737 167.909 90.9311 167.776 90.7231 167.6C90.5204 167.424 90.3577 167.203 90.2351 166.936C90.1177 166.664 90.0591 166.344 90.0591 165.976C90.0591 165.656 90.1471 165.349 90.3231 165.056C90.4991 164.757 90.7844 164.493 91.1791 164.264C91.5737 164.035 92.0884 163.848 92.7231 163.704C93.3577 163.555 94.1364 163.469 95.0591 163.448V162.816C95.0591 162.187 94.9231 161.712 94.6511 161.392C94.3791 161.067 93.9817 160.904 93.4591 160.904C93.1071 160.904 92.8111 160.949 92.5711 161.04C92.3364 161.125 92.1311 161.224 91.9551 161.336C91.7844 161.443 91.6351 161.541 91.5071 161.632C91.3844 161.717 91.2617 161.76 91.1391 161.76C91.0431 161.76 90.9604 161.736 90.8911 161.688C90.8217 161.635 90.7631 161.571 90.7151 161.496L90.4591 161.04ZM102.586 162.6H106.538V163.808H102.586V162.6ZM127.718 156.536L124.142 168H122.75L119.846 159.256C119.82 159.171 119.793 159.08 119.766 158.984C119.745 158.888 119.721 158.787 119.694 158.68C119.668 158.787 119.641 158.888 119.614 158.984C119.588 159.08 119.561 159.171 119.534 159.256L116.614 168H115.222L111.646 156.536H112.934C113.073 156.536 113.188 156.571 113.278 156.64C113.374 156.709 113.436 156.797 113.462 156.904L115.83 164.872C115.868 165.016 115.902 165.171 115.934 165.336C115.972 165.501 116.006 165.677 116.038 165.864C116.076 165.677 116.113 165.501 116.15 165.336C116.193 165.165 116.238 165.011 116.286 164.872L118.982 156.904C119.014 156.813 119.076 156.731 119.166 156.656C119.262 156.576 119.377 156.536 119.51 156.536H119.958C120.097 156.536 120.209 156.571 120.294 156.64C120.38 156.709 120.444 156.797 120.486 156.904L123.174 164.872C123.222 165.011 123.265 165.16 123.302 165.32C123.345 165.48 123.385 165.648 123.422 165.824C123.449 165.648 123.478 165.48 123.51 165.32C123.542 165.16 123.577 165.011 123.614 164.872L125.99 156.904C126.017 156.808 126.076 156.723 126.166 156.648C126.262 156.573 126.377 156.536 126.51 156.536H127.718ZM133.607 163.064C133.607 162.733 133.559 162.432 133.463 162.16C133.372 161.883 133.236 161.645 133.055 161.448C132.879 161.245 132.663 161.091 132.407 160.984C132.151 160.872 131.86 160.816 131.535 160.816C130.852 160.816 130.311 161.016 129.911 161.416C129.516 161.811 129.271 162.36 129.175 163.064H133.607ZM134.759 166.864C134.583 167.077 134.372 167.264 134.127 167.424C133.881 167.579 133.617 167.707 133.335 167.808C133.057 167.909 132.769 167.984 132.471 168.032C132.172 168.085 131.876 168.112 131.583 168.112C131.023 168.112 130.505 168.019 130.031 167.832C129.561 167.64 129.153 167.363 128.807 167C128.465 166.632 128.199 166.179 128.007 165.64C127.815 165.101 127.719 164.483 127.719 163.784C127.719 163.219 127.804 162.691 127.975 162.2C128.151 161.709 128.401 161.285 128.727 160.928C129.052 160.565 129.449 160.283 129.919 160.08C130.388 159.872 130.916 159.768 131.503 159.768C131.988 159.768 132.436 159.851 132.847 160.016C133.263 160.176 133.62 160.411 133.919 160.72C134.223 161.024 134.46 161.403 134.631 161.856C134.801 162.304 134.887 162.816 134.887 163.392C134.887 163.616 134.863 163.765 134.815 163.84C134.767 163.915 134.676 163.952 134.543 163.952H129.127C129.143 164.464 129.212 164.909 129.335 165.288C129.463 165.667 129.639 165.984 129.863 166.24C130.087 166.491 130.353 166.68 130.663 166.808C130.972 166.931 131.319 166.992 131.703 166.992C132.06 166.992 132.367 166.952 132.623 166.872C132.884 166.787 133.108 166.696 133.295 166.6C133.481 166.504 133.636 166.416 133.759 166.336C133.887 166.251 133.996 166.208 134.087 166.208C134.204 166.208 134.295 166.253 134.359 166.344L134.759 166.864ZM138.068 166.048C138.329 166.4 138.614 166.648 138.924 166.792C139.238 166.936 139.582 167.008 139.956 167.008C140.718 167.008 141.302 166.739 141.708 166.2C142.113 165.661 142.316 164.859 142.316 163.792C142.316 162.8 142.134 162.072 141.772 161.608C141.414 161.139 140.902 160.904 140.236 160.904C139.772 160.904 139.366 161.011 139.02 161.224C138.678 161.437 138.361 161.739 138.068 162.128V166.048ZM138.068 161.064C138.409 160.669 138.793 160.355 139.22 160.12C139.652 159.885 140.148 159.768 140.708 159.768C141.182 159.768 141.609 159.859 141.988 160.04C142.372 160.221 142.697 160.485 142.964 160.832C143.23 161.173 143.433 161.589 143.572 162.08C143.716 162.571 143.788 163.123 143.788 163.736C143.788 164.392 143.708 164.989 143.548 165.528C143.388 166.067 143.156 166.528 142.852 166.912C142.553 167.291 142.188 167.587 141.756 167.8C141.324 168.008 140.838 168.112 140.3 168.112C139.766 168.112 139.316 168.013 138.948 167.816C138.585 167.613 138.268 167.328 137.996 166.96L137.924 167.696C137.881 167.899 137.758 168 137.556 168H136.636V156.216H138.068V161.064ZM155.107 163.064C155.107 162.733 155.059 162.432 154.963 162.16C154.872 161.883 154.736 161.645 154.555 161.448C154.379 161.245 154.163 161.091 153.907 160.984C153.651 160.872 153.36 160.816 153.035 160.816C152.352 160.816 151.811 161.016 151.411 161.416C151.016 161.811 150.771 162.36 150.675 163.064H155.107ZM156.259 166.864C156.083 167.077 155.872 167.264 155.627 167.424C155.381 167.579 155.117 167.707 154.835 167.808C154.557 167.909 154.269 167.984 153.971 168.032C153.672 168.085 153.376 168.112 153.083 168.112C152.523 168.112 152.005 168.019 151.531 167.832C151.061 167.64 150.653 167.363 150.307 167C149.965 166.632 149.699 166.179 149.507 165.64C149.315 165.101 149.219 164.483 149.219 163.784C149.219 163.219 149.304 162.691 149.475 162.2C149.651 161.709 149.901 161.285 150.227 160.928C150.552 160.565 150.949 160.283 151.419 160.08C151.888 159.872 152.416 159.768 153.003 159.768C153.488 159.768 153.936 159.851 154.347 160.016C154.763 160.176 155.12 160.411 155.419 160.72C155.723 161.024 155.96 161.403 156.131 161.856C156.301 162.304 156.387 162.816 156.387 163.392C156.387 163.616 156.363 163.765 156.315 163.84C156.267 163.915 156.176 163.952 156.043 163.952H150.627C150.643 164.464 150.712 164.909 150.835 165.288C150.963 165.667 151.139 165.984 151.363 166.24C151.587 166.491 151.853 166.68 152.163 166.808C152.472 166.931 152.819 166.992 153.203 166.992C153.56 166.992 153.867 166.952 154.123 166.872C154.384 166.787 154.608 166.696 154.795 166.6C154.981 166.504 155.136 166.416 155.259 166.336C155.387 166.251 155.496 166.208 155.587 166.208C155.704 166.208 155.795 166.253 155.859 166.344L156.259 166.864ZM160.561 168.128C159.921 168.128 159.428 167.949 159.081 167.592C158.74 167.235 158.569 166.72 158.569 166.048V161.088H157.593C157.508 161.088 157.436 161.064 157.377 161.016C157.319 160.963 157.289 160.883 157.289 160.776V160.208L158.617 160.04L158.945 157.536C158.961 157.456 158.996 157.392 159.049 157.344C159.108 157.291 159.183 157.264 159.273 157.264H159.993V160.056H162.337V161.088H159.993V165.952C159.993 166.293 160.076 166.547 160.241 166.712C160.407 166.877 160.62 166.96 160.881 166.96C161.031 166.96 161.159 166.941 161.265 166.904C161.377 166.861 161.473 166.816 161.553 166.768C161.633 166.72 161.7 166.677 161.753 166.64C161.812 166.597 161.863 166.576 161.905 166.576C161.98 166.576 162.047 166.621 162.105 166.712L162.521 167.392C162.276 167.621 161.98 167.803 161.633 167.936C161.287 168.064 160.929 168.128 160.561 168.128ZM172.293 164.352C171.637 164.373 171.077 164.427 170.613 164.512C170.155 164.592 169.779 164.699 169.485 164.832C169.197 164.965 168.987 165.123 168.853 165.304C168.725 165.485 168.661 165.688 168.661 165.912C168.661 166.125 168.696 166.309 168.765 166.464C168.835 166.619 168.928 166.747 169.045 166.848C169.168 166.944 169.309 167.016 169.469 167.064C169.635 167.107 169.811 167.128 169.997 167.128C170.248 167.128 170.477 167.104 170.685 167.056C170.893 167.003 171.088 166.928 171.269 166.832C171.456 166.736 171.632 166.621 171.797 166.488C171.968 166.355 172.133 166.203 172.293 166.032V164.352ZM167.693 161.04C168.141 160.608 168.624 160.285 169.141 160.072C169.659 159.859 170.232 159.752 170.861 159.752C171.315 159.752 171.717 159.827 172.069 159.976C172.421 160.125 172.717 160.333 172.957 160.6C173.197 160.867 173.379 161.189 173.501 161.568C173.624 161.947 173.685 162.363 173.685 162.816V168H173.053C172.915 168 172.808 167.979 172.733 167.936C172.659 167.888 172.6 167.797 172.557 167.664L172.397 166.896C172.184 167.093 171.976 167.269 171.773 167.424C171.571 167.573 171.357 167.701 171.133 167.808C170.909 167.909 170.669 167.987 170.413 168.04C170.163 168.099 169.883 168.128 169.573 168.128C169.259 168.128 168.963 168.085 168.685 168C168.408 167.909 168.165 167.776 167.957 167.6C167.755 167.424 167.592 167.203 167.469 166.936C167.352 166.664 167.293 166.344 167.293 165.976C167.293 165.656 167.381 165.349 167.557 165.056C167.733 164.757 168.019 164.493 168.413 164.264C168.808 164.035 169.323 163.848 169.957 163.704C170.592 163.555 171.371 163.469 172.293 163.448V162.816C172.293 162.187 172.157 161.712 171.885 161.392C171.613 161.067 171.216 160.904 170.693 160.904C170.341 160.904 170.045 160.949 169.805 161.04C169.571 161.125 169.365 161.224 169.189 161.336C169.019 161.443 168.869 161.541 168.741 161.632C168.619 161.717 168.496 161.76 168.373 161.76C168.277 161.76 168.195 161.736 168.125 161.688C168.056 161.635 167.997 161.571 167.949 161.496L167.693 161.04ZM177.287 166.048C177.548 166.4 177.833 166.648 178.143 166.792C178.452 166.936 178.799 167.008 179.183 167.008C179.94 167.008 180.521 166.739 180.927 166.2C181.332 165.661 181.535 164.893 181.535 163.896C181.535 163.368 181.487 162.915 181.391 162.536C181.3 162.157 181.167 161.848 180.991 161.608C180.815 161.363 180.599 161.184 180.343 161.072C180.087 160.96 179.796 160.904 179.471 160.904C179.007 160.904 178.599 161.011 178.247 161.224C177.9 161.437 177.58 161.739 177.287 162.128V166.048ZM177.215 161.152C177.556 160.731 177.951 160.392 178.399 160.136C178.847 159.88 179.359 159.752 179.935 159.752C180.404 159.752 180.828 159.843 181.207 160.024C181.585 160.2 181.908 160.464 182.175 160.816C182.441 161.163 182.647 161.595 182.791 162.112C182.935 162.629 183.007 163.224 183.007 163.896C183.007 164.493 182.927 165.051 182.767 165.568C182.607 166.08 182.375 166.525 182.071 166.904C181.772 167.277 181.404 167.573 180.967 167.792C180.535 168.005 180.047 168.112 179.503 168.112C179.007 168.112 178.58 168.029 178.223 167.864C177.871 167.693 177.559 167.459 177.287 167.16V170.744H175.855V159.896H176.711C176.913 159.896 177.039 159.995 177.087 160.192L177.215 161.152ZM186.255 166.048C186.517 166.4 186.802 166.648 187.111 166.792C187.421 166.936 187.767 167.008 188.151 167.008C188.909 167.008 189.49 166.739 189.895 166.2C190.301 165.661 190.503 164.893 190.503 163.896C190.503 163.368 190.455 162.915 190.359 162.536C190.269 162.157 190.135 161.848 189.959 161.608C189.783 161.363 189.567 161.184 189.311 161.072C189.055 160.96 188.765 160.904 188.439 160.904C187.975 160.904 187.567 161.011 187.215 161.224C186.869 161.437 186.549 161.739 186.255 162.128V166.048ZM186.183 161.152C186.525 160.731 186.919 160.392 187.367 160.136C187.815 159.88 188.327 159.752 188.903 159.752C189.373 159.752 189.797 159.843 190.175 160.024C190.554 160.2 190.877 160.464 191.143 160.816C191.41 161.163 191.615 161.595 191.759 162.112C191.903 162.629 191.975 163.224 191.975 163.896C191.975 164.493 191.895 165.051 191.735 165.568C191.575 166.08 191.343 166.525 191.039 166.904C190.741 167.277 190.373 167.573 189.935 167.792C189.503 168.005 189.015 168.112 188.471 168.112C187.975 168.112 187.549 168.029 187.191 167.864C186.839 167.693 186.527 167.459 186.255 167.16V170.744H184.823V159.896H185.679C185.882 159.896 186.007 159.995 186.055 160.192L186.183 161.152ZM198.512 161.232C198.448 161.349 198.349 161.408 198.216 161.408C198.136 161.408 198.045 161.379 197.944 161.32C197.843 161.261 197.717 161.197 197.568 161.128C197.424 161.053 197.251 160.987 197.048 160.928C196.845 160.864 196.605 160.832 196.328 160.832C196.088 160.832 195.872 160.864 195.68 160.928C195.488 160.987 195.323 161.069 195.184 161.176C195.051 161.283 194.947 161.408 194.872 161.552C194.803 161.691 194.768 161.843 194.768 162.008C194.768 162.216 194.827 162.389 194.944 162.528C195.067 162.667 195.227 162.787 195.424 162.888C195.621 162.989 195.845 163.08 196.096 163.16C196.347 163.235 196.603 163.317 196.864 163.408C197.131 163.493 197.389 163.589 197.64 163.696C197.891 163.803 198.115 163.936 198.312 164.096C198.509 164.256 198.667 164.453 198.784 164.688C198.907 164.917 198.968 165.195 198.968 165.52C198.968 165.893 198.901 166.24 198.768 166.56C198.635 166.875 198.437 167.149 198.176 167.384C197.915 167.613 197.595 167.795 197.216 167.928C196.837 168.061 196.4 168.128 195.904 168.128C195.339 168.128 194.827 168.037 194.368 167.856C193.909 167.669 193.52 167.432 193.2 167.144L193.536 166.6C193.579 166.531 193.629 166.477 193.688 166.44C193.747 166.403 193.821 166.384 193.912 166.384C194.008 166.384 194.109 166.421 194.216 166.496C194.323 166.571 194.451 166.653 194.6 166.744C194.755 166.835 194.941 166.917 195.16 166.992C195.379 167.067 195.651 167.104 195.976 167.104C196.253 167.104 196.496 167.069 196.704 167C196.912 166.925 197.085 166.827 197.224 166.704C197.363 166.581 197.464 166.44 197.528 166.28C197.597 166.12 197.632 165.949 197.632 165.768C197.632 165.544 197.571 165.36 197.448 165.216C197.331 165.067 197.173 164.941 196.976 164.84C196.779 164.733 196.552 164.643 196.296 164.568C196.045 164.488 195.787 164.405 195.52 164.32C195.259 164.235 195 164.139 194.744 164.032C194.493 163.92 194.269 163.781 194.072 163.616C193.875 163.451 193.715 163.248 193.592 163.008C193.475 162.763 193.416 162.467 193.416 162.12C193.416 161.811 193.48 161.515 193.608 161.232C193.736 160.944 193.923 160.693 194.168 160.48C194.413 160.261 194.715 160.088 195.072 159.96C195.429 159.832 195.837 159.768 196.296 159.768C196.829 159.768 197.307 159.853 197.728 160.024C198.155 160.189 198.523 160.419 198.832 160.712L198.512 161.232Z" fill="black"/>
<line x1="8.74228e-08" y1="120" x2="219" y2="120" stroke="black" stroke-width="2"/>
</svg>
