<svg width="233" height="86" viewBox="0 0 233 86" fill="none" xmlns="http://www.w3.org/2000/svg">
<path d="M41.44 19.44C41.1133 22.7533 40.95 25.74 40.95 28.4C40.95 30.7333 41.02 32.6467 41.16 34.14H39.55C39.1767 30.5467 38.71 27.8867 38.15 26.16C37.59 24.3867 36.61 23.1033 35.21 22.31C33.81 21.47 31.6633 21.05 28.77 21.05H24.99V60.88C24.99 62.84 25.1767 64.2633 25.55 65.15C25.9233 66.0367 26.5767 66.6433 27.51 66.97C28.4433 67.2967 29.96 67.5067 32.06 67.6V69C29.6333 68.86 26.2033 68.79 21.77 68.79C17.1033 68.79 13.65 68.86 11.41 69V67.6C13.51 67.5067 15.0267 67.2967 15.96 66.97C16.8933 66.6433 17.5467 66.0367 17.92 65.15C18.2933 64.2633 18.48 62.84 18.48 60.88V21.05H14.7C11.8067 21.05 9.66 21.47 8.26 22.31C6.86 23.1033 5.88 24.3867 5.32 26.16C4.76 27.8867 4.29333 30.5467 3.92 34.14H2.31C2.45 32.6467 2.52 30.7333 2.52 28.4C2.52 25.74 2.35667 22.7533 2.03 19.44C5.90333 19.58 12.4833 19.65 21.77 19.65C31.01 19.65 37.5667 19.58 41.44 19.44ZM64.2666 20.84C62.5866 20.9333 61.3499 21.12 60.5566 21.4C59.8099 21.68 59.2966 22.2167 59.0166 23.01C58.7366 23.8033 58.5966 25.0867 58.5966 26.86V61.58C58.5966 63.3533 58.7366 64.6367 59.0166 65.43C59.2966 66.2233 59.8099 66.76 60.5566 67.04C61.3499 67.32 62.5866 67.5067 64.2666 67.6V69C62.1199 68.86 59.1566 68.79 55.3766 68.79C51.3632 68.79 48.3766 68.86 46.4166 69V67.6C48.0966 67.5067 49.3099 67.32 50.0566 67.04C50.8499 66.76 51.3866 66.2233 51.6666 65.43C51.9466 64.6367 52.0866 63.3533 52.0866 61.58V26.86C52.0866 25.0867 51.9466 23.8033 51.6666 23.01C51.3866 22.2167 50.8499 21.68 50.0566 21.4C49.3099 21.12 48.0966 20.9333 46.4166 20.84V19.44C48.3766 19.58 51.3632 19.65 55.3766 19.65C59.1099 19.65 62.0732 19.58 64.2666 19.44V20.84ZM125.227 20.84C123.547 20.9333 122.311 21.12 121.517 21.4C120.771 21.68 120.257 22.2167 119.977 23.01C119.697 23.8033 119.557 25.0867 119.557 26.86V61.58C119.557 63.3533 119.697 64.6367 119.977 65.43C120.257 66.2233 120.771 66.76 121.517 67.04C122.311 67.32 123.547 67.5067 125.227 67.6V69C123.081 68.86 120.117 68.79 116.337 68.79C112.324 68.79 109.337 68.86 107.377 69V67.6C109.057 67.5067 110.271 67.32 111.017 67.04C111.811 66.76 112.347 66.2233 112.627 65.43C112.907 64.6367 113.047 63.3533 113.047 61.58V24.06L96.1773 69.35H95.0573L77.4173 23.92V60.88C77.4173 62.7 77.5573 64.0533 77.8373 64.94C78.1639 65.8267 78.7706 66.48 79.6573 66.9C80.5439 67.2733 81.9206 67.5067 83.7873 67.6V69C82.1073 68.86 79.7273 68.79 76.6473 68.79C73.8473 68.79 71.6773 68.86 70.1373 69V67.6C71.7706 67.5067 72.9839 67.2733 73.7773 66.9C74.5706 66.48 75.1073 65.8267 75.3873 64.94C75.6673 64.0067 75.8073 62.6533 75.8073 60.88V26.86C75.8073 25.0867 75.6673 23.8033 75.3873 23.01C75.1073 22.2167 74.5706 21.68 73.7773 21.4C73.0306 21.12 71.8173 20.9333 70.1373 20.84V19.44C71.6773 19.58 73.8473 19.65 76.6473 19.65C79.0739 19.65 81.0573 19.58 82.5973 19.44L97.9973 59.97L113.047 19.65H116.337C120.117 19.65 123.081 19.58 125.227 19.44V20.84Z" fill="white"/>
<path d="M158.216 20.84H154.504V31H152.96V20.84H149.24V19.536H158.216V20.84ZM163.052 26.064C163.052 25.7333 163.004 25.432 162.908 25.16C162.817 24.8827 162.681 24.6453 162.5 24.448C162.324 24.2453 162.108 24.0907 161.852 23.984C161.596 23.872 161.305 23.816 160.98 23.816C160.297 23.816 159.756 24.016 159.356 24.416C158.961 24.8107 158.716 25.36 158.62 26.064H163.052ZM164.204 29.864C164.028 30.0773 163.817 30.264 163.572 30.424C163.327 30.5787 163.063 30.7067 162.78 30.808C162.503 30.9093 162.215 30.984 161.916 31.032C161.617 31.0853 161.321 31.112 161.028 31.112C160.468 31.112 159.951 31.0187 159.476 30.832C159.007 30.64 158.599 30.3627 158.252 30C157.911 29.632 157.644 29.1787 157.452 28.64C157.26 28.1013 157.164 27.4827 157.164 26.784C157.164 26.2187 157.249 25.6907 157.42 25.2C157.596 24.7093 157.847 24.2853 158.172 23.928C158.497 23.5653 158.895 23.2827 159.364 23.08C159.833 22.872 160.361 22.768 160.948 22.768C161.433 22.768 161.881 22.8507 162.292 23.016C162.708 23.176 163.065 23.4107 163.364 23.72C163.668 24.024 163.905 24.4027 164.076 24.856C164.247 25.304 164.332 25.816 164.332 26.392C164.332 26.616 164.308 26.7653 164.26 26.84C164.212 26.9147 164.121 26.952 163.988 26.952H158.572C158.588 27.464 158.657 27.9093 158.78 28.288C158.908 28.6667 159.084 28.984 159.308 29.24C159.532 29.4907 159.799 29.68 160.108 29.808C160.417 29.9307 160.764 29.992 161.148 29.992C161.505 29.992 161.812 29.952 162.068 29.872C162.329 29.7867 162.553 29.696 162.74 29.6C162.927 29.504 163.081 29.416 163.204 29.336C163.332 29.2507 163.441 29.208 163.532 29.208C163.649 29.208 163.74 29.2533 163.804 29.344L164.204 29.864ZM171.721 24.336C171.678 24.3947 171.636 24.44 171.593 24.472C171.55 24.504 171.492 24.52 171.417 24.52C171.337 24.52 171.249 24.488 171.153 24.424C171.057 24.3547 170.937 24.28 170.793 24.2C170.654 24.12 170.481 24.048 170.273 23.984C170.07 23.9147 169.82 23.88 169.521 23.88C169.121 23.88 168.769 23.952 168.465 24.096C168.161 24.2347 167.905 24.4373 167.697 24.704C167.494 24.9707 167.34 25.2933 167.233 25.672C167.132 26.0507 167.081 26.4747 167.081 26.944C167.081 27.4347 167.137 27.872 167.249 28.256C167.361 28.6347 167.518 28.9547 167.721 29.216C167.929 29.472 168.177 29.6693 168.465 29.808C168.758 29.9413 169.086 30.008 169.449 30.008C169.796 30.008 170.081 29.968 170.305 29.888C170.529 29.8027 170.713 29.7093 170.857 29.608C171.006 29.5067 171.129 29.416 171.225 29.336C171.326 29.2507 171.425 29.208 171.521 29.208C171.638 29.208 171.729 29.2533 171.793 29.344L172.193 29.864C172.017 30.0827 171.817 30.2693 171.593 30.424C171.369 30.5787 171.126 30.7093 170.865 30.816C170.609 30.9173 170.34 30.992 170.057 31.04C169.774 31.088 169.486 31.112 169.193 31.112C168.686 31.112 168.214 31.0187 167.777 30.832C167.345 30.6453 166.969 30.376 166.649 30.024C166.329 29.6667 166.078 29.2293 165.897 28.712C165.716 28.1947 165.625 27.6053 165.625 26.944C165.625 26.3413 165.708 25.784 165.873 25.272C166.044 24.76 166.289 24.32 166.609 23.952C166.934 23.5787 167.332 23.288 167.801 23.08C168.276 22.872 168.82 22.768 169.433 22.768C170.004 22.768 170.505 22.8613 170.937 23.048C171.374 23.2293 171.761 23.488 172.097 23.824L171.721 24.336ZM175.154 23.976C175.5 23.608 175.884 23.3147 176.306 23.096C176.727 22.8773 177.212 22.768 177.762 22.768C178.204 22.768 178.594 22.8427 178.93 22.992C179.271 23.136 179.554 23.344 179.778 23.616C180.007 23.8827 180.18 24.2053 180.298 24.584C180.415 24.9627 180.474 25.3813 180.474 25.84V31H179.042V25.84C179.042 25.2267 178.9 24.752 178.618 24.416C178.34 24.0747 177.916 23.904 177.346 23.904C176.924 23.904 176.53 24.0053 176.162 24.208C175.799 24.4107 175.463 24.6853 175.154 25.032V31H173.722V19.216H175.154V23.976ZM183.988 24.072C184.164 23.8747 184.35 23.696 184.548 23.536C184.745 23.376 184.953 23.24 185.172 23.128C185.396 23.0107 185.63 22.9227 185.876 22.864C186.126 22.8 186.396 22.768 186.684 22.768C187.126 22.768 187.516 22.8427 187.852 22.992C188.193 23.136 188.476 23.344 188.7 23.616C188.929 23.8827 189.102 24.2053 189.22 24.584C189.337 24.9627 189.396 25.3813 189.396 25.84V31H187.964V25.84C187.964 25.2267 187.822 24.752 187.54 24.416C187.262 24.0747 186.838 23.904 186.268 23.904C185.846 23.904 185.452 24.0053 185.084 24.208C184.721 24.4107 184.385 24.6853 184.076 25.032V31H182.644V22.896H183.5C183.702 22.896 183.828 22.9947 183.876 23.192L183.988 24.072ZM193.07 22.896V31H191.646V22.896H193.07ZM193.374 20.352C193.374 20.4907 193.344 20.6213 193.286 20.744C193.232 20.8613 193.158 20.968 193.062 21.064C192.971 21.1547 192.862 21.2267 192.734 21.28C192.611 21.3333 192.48 21.36 192.342 21.36C192.203 21.36 192.072 21.3333 191.95 21.28C191.832 21.2267 191.728 21.1547 191.638 21.064C191.547 20.968 191.475 20.8613 191.422 20.744C191.368 20.6213 191.342 20.4907 191.342 20.352C191.342 20.2133 191.368 20.0827 191.422 19.96C191.475 19.832 191.547 19.7227 191.638 19.632C191.728 19.536 191.832 19.4613 191.95 19.408C192.072 19.3547 192.203 19.328 192.342 19.328C192.48 19.328 192.611 19.3547 192.734 19.408C192.862 19.4613 192.971 19.536 193.062 19.632C193.158 19.7227 193.232 19.832 193.286 19.96C193.344 20.0827 193.374 20.2133 193.374 20.352ZM200.689 24.816C200.433 24.4747 200.148 24.232 199.833 24.088C199.519 23.9387 199.169 23.864 198.785 23.864C198.033 23.864 197.455 24.1333 197.049 24.672C196.644 25.2107 196.441 25.9787 196.441 26.976C196.441 27.504 196.487 27.9573 196.577 28.336C196.668 28.7093 196.801 29.0187 196.977 29.264C197.153 29.504 197.369 29.68 197.625 29.792C197.881 29.904 198.172 29.96 198.497 29.96C198.967 29.96 199.375 29.8533 199.721 29.64C200.073 29.4267 200.396 29.1253 200.689 28.736V24.816ZM202.113 22.896V33.744H200.689V29.792C200.353 30.1867 199.967 30.5067 199.529 30.752C199.092 30.992 198.593 31.112 198.033 31.112C197.569 31.112 197.148 31.024 196.769 30.848C196.391 30.6667 196.068 30.4027 195.801 30.056C195.535 29.7093 195.329 29.2773 195.185 28.76C195.041 28.2427 194.969 27.648 194.969 26.976C194.969 26.3787 195.049 25.824 195.209 25.312C195.369 24.7947 195.599 24.3467 195.897 23.968C196.196 23.5893 196.561 23.2933 196.993 23.08C197.431 22.8613 197.921 22.752 198.465 22.752C198.993 22.752 199.441 22.8453 199.809 23.032C200.177 23.2187 200.503 23.48 200.785 23.816L200.881 23.192C200.935 22.9947 201.063 22.896 201.265 22.896H202.113ZM211.026 22.896V31H210.178C209.976 31 209.848 30.9013 209.794 30.704L209.682 29.832C209.33 30.2213 208.936 30.536 208.498 30.776C208.061 31.0107 207.56 31.128 206.994 31.128C206.552 31.128 206.16 31.056 205.818 30.912C205.482 30.7627 205.2 30.5547 204.97 30.288C204.741 30.0213 204.568 29.6987 204.45 29.32C204.338 28.9413 204.282 28.5227 204.282 28.064V22.896H205.706V28.064C205.706 28.6773 205.845 29.152 206.122 29.488C206.405 29.824 206.834 29.992 207.41 29.992C207.832 29.992 208.224 29.8933 208.586 29.696C208.954 29.4933 209.293 29.216 209.602 28.864V22.896H211.026ZM218.708 26.064C218.708 25.7333 218.66 25.432 218.564 25.16C218.474 24.8827 218.338 24.6453 218.156 24.448C217.98 24.2453 217.764 24.0907 217.508 23.984C217.252 23.872 216.962 23.816 216.636 23.816C215.954 23.816 215.412 24.016 215.012 24.416C214.618 24.8107 214.372 25.36 214.276 26.064H218.708ZM219.86 29.864C219.684 30.0773 219.474 30.264 219.228 30.424C218.983 30.5787 218.719 30.7067 218.436 30.808C218.159 30.9093 217.871 30.984 217.572 31.032C217.274 31.0853 216.978 31.112 216.684 31.112C216.124 31.112 215.607 31.0187 215.132 30.832C214.663 30.64 214.255 30.3627 213.908 30C213.567 29.632 213.3 29.1787 213.108 28.64C212.916 28.1013 212.82 27.4827 212.82 26.784C212.82 26.2187 212.906 25.6907 213.076 25.2C213.252 24.7093 213.503 24.2853 213.828 23.928C214.154 23.5653 214.551 23.2827 215.02 23.08C215.49 22.872 216.018 22.768 216.604 22.768C217.09 22.768 217.538 22.8507 217.948 23.016C218.364 23.176 218.722 23.4107 219.02 23.72C219.324 24.024 219.562 24.4027 219.732 24.856C219.903 25.304 219.988 25.816 219.988 26.392C219.988 26.616 219.964 26.7653 219.916 26.84C219.868 26.9147 219.778 26.952 219.644 26.952H214.228C214.244 27.464 214.314 27.9093 214.436 28.288C214.564 28.6667 214.74 28.984 214.964 29.24C215.188 29.4907 215.455 29.68 215.764 29.808C216.074 29.9307 216.42 29.992 216.804 29.992C217.162 29.992 217.468 29.952 217.724 29.872C217.986 29.7867 218.21 29.696 218.396 29.6C218.583 29.504 218.738 29.416 218.86 29.336C218.988 29.2507 219.098 29.208 219.188 29.208C219.306 29.208 219.396 29.2533 219.46 29.344L219.86 29.864ZM226.457 24.232C226.393 24.3493 226.295 24.408 226.161 24.408C226.081 24.408 225.991 24.3787 225.889 24.32C225.788 24.2613 225.663 24.1973 225.513 24.128C225.369 24.0533 225.196 23.9867 224.993 23.928C224.791 23.864 224.551 23.832 224.273 23.832C224.033 23.832 223.817 23.864 223.625 23.928C223.433 23.9867 223.268 24.0693 223.129 24.176C222.996 24.2827 222.892 24.408 222.817 24.552C222.748 24.6907 222.713 24.8427 222.713 25.008C222.713 25.216 222.772 25.3893 222.889 25.528C223.012 25.6667 223.172 25.7867 223.369 25.888C223.567 25.9893 223.791 26.08 224.041 26.16C224.292 26.2347 224.548 26.3173 224.809 26.408C225.076 26.4933 225.335 26.5893 225.585 26.696C225.836 26.8027 226.06 26.936 226.257 27.096C226.455 27.256 226.612 27.4533 226.729 27.688C226.852 27.9173 226.913 28.1947 226.913 28.52C226.913 28.8933 226.847 29.24 226.713 29.56C226.58 29.8747 226.383 30.1493 226.121 30.384C225.86 30.6133 225.54 30.7947 225.161 30.928C224.783 31.0613 224.345 31.128 223.849 31.128C223.284 31.128 222.772 31.0373 222.313 30.856C221.855 30.6693 221.465 30.432 221.145 30.144L221.481 29.6C221.524 29.5307 221.575 29.4773 221.633 29.44C221.692 29.4027 221.767 29.384 221.857 29.384C221.953 29.384 222.055 29.4213 222.161 29.496C222.268 29.5707 222.396 29.6533 222.545 29.744C222.7 29.8347 222.887 29.9173 223.105 29.992C223.324 30.0667 223.596 30.104 223.921 30.104C224.199 30.104 224.441 30.0693 224.649 30C224.857 29.9253 225.031 29.8267 225.169 29.704C225.308 29.5813 225.409 29.44 225.473 29.28C225.543 29.12 225.577 28.9493 225.577 28.768C225.577 28.544 225.516 28.36 225.393 28.216C225.276 28.0667 225.119 27.9413 224.921 27.84C224.724 27.7333 224.497 27.6427 224.241 27.568C223.991 27.488 223.732 27.4053 223.465 27.32C223.204 27.2347 222.945 27.1387 222.689 27.032C222.439 26.92 222.215 26.7813 222.017 26.616C221.82 26.4507 221.66 26.248 221.537 26.008C221.42 25.7627 221.361 25.4667 221.361 25.12C221.361 24.8107 221.425 24.5147 221.553 24.232C221.681 23.944 221.868 23.6933 222.113 23.48C222.359 23.2613 222.66 23.088 223.017 22.96C223.375 22.832 223.783 22.768 224.241 22.768C224.775 22.768 225.252 22.8533 225.673 23.024C226.1 23.1893 226.468 23.4187 226.777 23.712L226.457 24.232ZM152.016 50H150.464V38.536H152.016V50ZM155.831 43.072C156.007 42.8747 156.194 42.696 156.391 42.536C156.589 42.376 156.797 42.24 157.015 42.128C157.239 42.0107 157.474 41.9227 157.719 41.864C157.97 41.8 158.239 41.768 158.527 41.768C158.97 41.768 159.359 41.8427 159.695 41.992C160.037 42.136 160.319 42.344 160.543 42.616C160.773 42.8827 160.946 43.2053 161.063 43.584C161.181 43.9627 161.239 44.3813 161.239 44.84V50H159.807V44.84C159.807 44.2267 159.666 43.752 159.383 43.416C159.106 43.0747 158.682 42.904 158.111 42.904C157.69 42.904 157.295 43.0053 156.927 43.208C156.565 43.4107 156.229 43.6853 155.919 44.032V50H154.487V41.896H155.343C155.546 41.896 155.671 41.9947 155.719 42.192L155.831 43.072ZM165.788 50.128C165.148 50.128 164.655 49.9493 164.308 49.592C163.967 49.2347 163.796 48.72 163.796 48.048V43.088H162.82C162.735 43.088 162.663 43.064 162.604 43.016C162.545 42.9627 162.516 42.8827 162.516 42.776V42.208L163.844 42.04L164.172 39.536C164.188 39.456 164.223 39.392 164.276 39.344C164.335 39.2907 164.409 39.264 164.5 39.264H165.22V42.056H167.564V43.088H165.22V47.952C165.22 48.2933 165.303 48.5467 165.468 48.712C165.633 48.8773 165.847 48.96 166.108 48.96C166.257 48.96 166.385 48.9413 166.492 48.904C166.604 48.8613 166.7 48.816 166.78 48.768C166.86 48.72 166.927 48.6773 166.98 48.64C167.039 48.5973 167.089 48.576 167.132 48.576C167.207 48.576 167.273 48.6213 167.332 48.712L167.748 49.392C167.503 49.6213 167.207 49.8027 166.86 49.936C166.513 50.064 166.156 50.128 165.788 50.128ZM174.411 45.064C174.411 44.7333 174.363 44.432 174.267 44.16C174.177 43.8827 174.041 43.6453 173.859 43.448C173.683 43.2453 173.467 43.0907 173.211 42.984C172.955 42.872 172.665 42.816 172.339 42.816C171.657 42.816 171.115 43.016 170.715 43.416C170.321 43.8107 170.075 44.36 169.979 45.064H174.411ZM175.563 48.864C175.387 49.0773 175.177 49.264 174.931 49.424C174.686 49.5787 174.422 49.7067 174.139 49.808C173.862 49.9093 173.574 49.984 173.275 50.032C172.977 50.0853 172.681 50.112 172.387 50.112C171.827 50.112 171.31 50.0187 170.835 49.832C170.366 49.64 169.958 49.3627 169.611 49C169.27 48.632 169.003 48.1787 168.811 47.64C168.619 47.1013 168.523 46.4827 168.523 45.784C168.523 45.2187 168.609 44.6907 168.779 44.2C168.955 43.7093 169.206 43.2853 169.531 42.928C169.857 42.5653 170.254 42.2827 170.723 42.08C171.193 41.872 171.721 41.768 172.307 41.768C172.793 41.768 173.241 41.8507 173.651 42.016C174.067 42.176 174.425 42.4107 174.723 42.72C175.027 43.024 175.265 43.4027 175.435 43.856C175.606 44.304 175.691 44.816 175.691 45.392C175.691 45.616 175.667 45.7653 175.619 45.84C175.571 45.9147 175.481 45.952 175.347 45.952H169.931C169.947 46.464 170.017 46.9093 170.139 47.288C170.267 47.6667 170.443 47.984 170.667 48.24C170.891 48.4907 171.158 48.68 171.467 48.808C171.777 48.9307 172.123 48.992 172.507 48.992C172.865 48.992 173.171 48.952 173.427 48.872C173.689 48.7867 173.913 48.696 174.099 48.6C174.286 48.504 174.441 48.416 174.563 48.336C174.691 48.2507 174.801 48.208 174.891 48.208C175.009 48.208 175.099 48.2533 175.163 48.344L175.563 48.864ZM174.667 38.408L172.803 40.472C172.729 40.552 172.654 40.6107 172.579 40.648C172.51 40.68 172.419 40.696 172.307 40.696H171.459L172.643 38.76C172.718 38.6373 172.798 38.5493 172.883 38.496C172.974 38.4373 173.105 38.408 173.275 38.408H174.667ZM180.265 46.04C180.553 46.04 180.806 46 181.025 45.92C181.243 45.84 181.427 45.728 181.577 45.584C181.726 45.44 181.838 45.2693 181.913 45.072C181.987 44.8693 182.025 44.648 182.025 44.408C182.025 43.912 181.873 43.5173 181.569 43.224C181.27 42.9307 180.835 42.784 180.265 42.784C179.689 42.784 179.249 42.9307 178.945 43.224C178.646 43.5173 178.497 43.912 178.497 44.408C178.497 44.648 178.534 44.8693 178.609 45.072C178.689 45.2693 178.803 45.44 178.953 45.584C179.102 45.728 179.286 45.84 179.505 45.92C179.723 46 179.977 46.04 180.265 46.04ZM182.833 50.44C182.833 50.2427 182.777 50.0827 182.665 49.96C182.553 49.8373 182.401 49.7413 182.209 49.672C182.022 49.6027 181.803 49.5547 181.553 49.528C181.302 49.496 181.035 49.472 180.753 49.456C180.475 49.44 180.193 49.424 179.905 49.408C179.617 49.392 179.339 49.3653 179.073 49.328C178.774 49.4667 178.529 49.6427 178.337 49.856C178.15 50.064 178.057 50.3093 178.057 50.592C178.057 50.7733 178.102 50.9413 178.193 51.096C178.289 51.256 178.433 51.392 178.625 51.504C178.817 51.6213 179.057 51.712 179.345 51.776C179.638 51.8453 179.982 51.88 180.377 51.88C180.761 51.88 181.105 51.8453 181.409 51.776C181.713 51.7067 181.969 51.608 182.177 51.48C182.39 51.352 182.553 51.2 182.665 51.024C182.777 50.848 182.833 50.6533 182.833 50.44ZM184.281 42.216V42.744C184.281 42.92 184.169 43.032 183.945 43.08L183.025 43.2C183.206 43.552 183.297 43.9413 183.297 44.368C183.297 44.7627 183.219 45.1227 183.065 45.448C182.915 45.768 182.707 46.0427 182.441 46.272C182.174 46.5013 181.854 46.6773 181.481 46.8C181.107 46.9227 180.702 46.984 180.265 46.984C179.886 46.984 179.529 46.9387 179.193 46.848C179.022 46.9547 178.891 47.0693 178.801 47.192C178.71 47.3093 178.664 47.4293 178.664 47.552C178.664 47.744 178.742 47.8907 178.897 47.992C179.057 48.088 179.265 48.1573 179.521 48.2C179.777 48.2427 180.067 48.2693 180.393 48.28C180.723 48.2907 181.059 48.3093 181.401 48.336C181.747 48.3573 182.083 48.3973 182.409 48.456C182.739 48.5147 183.033 48.6107 183.289 48.744C183.545 48.8773 183.75 49.0613 183.905 49.296C184.065 49.5307 184.145 49.8347 184.145 50.208C184.145 50.5547 184.057 50.8907 183.881 51.216C183.71 51.5413 183.462 51.8293 183.137 52.08C182.811 52.336 182.411 52.5387 181.937 52.688C181.467 52.8427 180.937 52.92 180.345 52.92C179.753 52.92 179.235 52.8613 178.793 52.744C178.35 52.6267 177.982 52.4693 177.689 52.272C177.395 52.0747 177.174 51.8453 177.025 51.584C176.881 51.328 176.809 51.0587 176.809 50.776C176.809 50.376 176.934 50.0373 177.185 49.76C177.435 49.4827 177.779 49.2613 178.217 49.096C177.977 48.9893 177.785 48.848 177.641 48.672C177.502 48.4907 177.433 48.248 177.433 47.944C177.433 47.8267 177.454 47.7067 177.497 47.584C177.539 47.456 177.603 47.3307 177.689 47.208C177.779 47.08 177.889 46.96 178.017 46.848C178.145 46.736 178.294 46.6373 178.465 46.552C178.065 46.328 177.753 46.032 177.529 45.664C177.305 45.2907 177.193 44.8587 177.193 44.368C177.193 43.9733 177.267 43.616 177.417 43.296C177.571 42.9707 177.785 42.696 178.057 42.472C178.329 42.2427 178.651 42.0667 179.025 41.944C179.403 41.8213 179.817 41.76 180.265 41.76C180.617 41.76 180.945 41.8 181.249 41.88C181.553 41.9547 181.83 42.0667 182.081 42.216H184.281ZM187.105 43.52C187.361 42.9653 187.676 42.5333 188.049 42.224C188.422 41.9093 188.878 41.752 189.417 41.752C189.588 41.752 189.75 41.7707 189.905 41.808C190.065 41.8453 190.206 41.904 190.329 41.984L190.225 43.048C190.193 43.1813 190.113 43.248 189.985 43.248C189.91 43.248 189.801 43.232 189.657 43.2C189.513 43.168 189.35 43.152 189.169 43.152C188.913 43.152 188.684 43.1893 188.481 43.264C188.284 43.3387 188.105 43.4507 187.945 43.6C187.79 43.744 187.649 43.9253 187.521 44.144C187.398 44.3573 187.286 44.6027 187.185 44.88V50H185.753V41.896H186.569C186.724 41.896 186.83 41.9253 186.889 41.984C186.948 42.0427 186.988 42.144 187.009 42.288L187.105 43.52ZM195.848 46.352C195.192 46.3733 194.632 46.4267 194.168 46.512C193.709 46.592 193.333 46.6987 193.04 46.832C192.752 46.9653 192.541 47.1227 192.408 47.304C192.28 47.4853 192.216 47.688 192.216 47.912C192.216 48.1253 192.251 48.3093 192.32 48.464C192.389 48.6187 192.483 48.7467 192.6 48.848C192.723 48.944 192.864 49.016 193.024 49.064C193.189 49.1067 193.365 49.128 193.552 49.128C193.803 49.128 194.032 49.104 194.24 49.056C194.448 49.0027 194.643 48.928 194.824 48.832C195.011 48.736 195.187 48.6213 195.352 48.488C195.523 48.3547 195.688 48.2027 195.848 48.032V46.352ZM191.248 43.04C191.696 42.608 192.179 42.2853 192.696 42.072C193.213 41.8587 193.787 41.752 194.416 41.752C194.869 41.752 195.272 41.8267 195.624 41.976C195.976 42.1253 196.272 42.3333 196.512 42.6C196.752 42.8667 196.933 43.1893 197.056 43.568C197.179 43.9467 197.24 44.3627 197.24 44.816V50H196.608C196.469 50 196.363 49.9787 196.288 49.936C196.213 49.888 196.155 49.7973 196.112 49.664L195.952 48.896C195.739 49.0933 195.531 49.2693 195.328 49.424C195.125 49.5733 194.912 49.7013 194.688 49.808C194.464 49.9093 194.224 49.9867 193.968 50.04C193.717 50.0987 193.437 50.128 193.128 50.128C192.813 50.128 192.517 50.0853 192.24 50C191.963 49.9093 191.72 49.776 191.512 49.6C191.309 49.424 191.147 49.2027 191.024 48.936C190.907 48.664 190.848 48.344 190.848 47.976C190.848 47.656 190.936 47.3493 191.112 47.056C191.288 46.7573 191.573 46.4933 191.968 46.264C192.363 46.0347 192.877 45.848 193.512 45.704C194.147 45.5547 194.925 45.4693 195.848 45.448V44.816C195.848 44.1867 195.712 43.712 195.44 43.392C195.168 43.0667 194.771 42.904 194.248 42.904C193.896 42.904 193.6 42.9493 193.36 43.04C193.125 43.1253 192.92 43.224 192.744 43.336C192.573 43.4427 192.424 43.5413 192.296 43.632C192.173 43.7173 192.051 43.76 191.928 43.76C191.832 43.76 191.749 43.736 191.68 43.688C191.611 43.6347 191.552 43.5707 191.504 43.496L191.248 43.04ZM206.82 50H205.396V43.088H201.22V47.952C201.22 48.2933 201.303 48.5467 201.468 48.712C201.633 48.8773 201.847 48.96 202.108 48.96C202.257 48.96 202.385 48.9413 202.492 48.904C202.604 48.8613 202.7 48.816 202.78 48.768C202.86 48.72 202.927 48.6773 202.98 48.64C203.039 48.5973 203.089 48.576 203.132 48.576C203.207 48.576 203.273 48.6213 203.332 48.712L203.748 49.392C203.503 49.6213 203.207 49.8027 202.86 49.936C202.513 50.064 202.156 50.128 201.788 50.128C201.148 50.128 200.655 49.9493 200.308 49.592C199.967 49.2347 199.796 48.72 199.796 48.048V43.088H198.82C198.735 43.088 198.663 43.064 198.604 43.016C198.545 42.9627 198.516 42.8827 198.516 42.776V42.208L199.844 42.032L200.172 39.536C200.188 39.456 200.223 39.392 200.276 39.344C200.335 39.2907 200.409 39.264 200.5 39.264H201.22V42.056H206.82V50ZM207.172 39.296C207.172 39.4347 207.143 39.5653 207.084 39.688C207.031 39.8053 206.956 39.9093 206.86 40C206.769 40.0907 206.663 40.1627 206.54 40.216C206.417 40.2693 206.287 40.296 206.148 40.296C206.009 40.296 205.879 40.2693 205.756 40.216C205.639 40.1627 205.535 40.0907 205.444 40C205.353 39.9093 205.281 39.8053 205.228 39.688C205.175 39.5653 205.148 39.4347 205.148 39.296C205.148 39.1573 205.175 39.0267 205.228 38.904C205.281 38.776 205.353 38.6667 205.444 38.576C205.535 38.48 205.639 38.4053 205.756 38.352C205.879 38.2987 206.009 38.272 206.148 38.272C206.287 38.272 206.417 38.2987 206.54 38.352C206.663 38.4053 206.769 38.48 206.86 38.576C206.956 38.6667 207.031 38.776 207.084 38.904C207.143 39.0267 207.172 39.1573 207.172 39.296ZM212.575 41.768C213.167 41.768 213.701 41.8667 214.175 42.064C214.65 42.2613 215.055 42.5413 215.391 42.904C215.727 43.2667 215.983 43.7067 216.159 44.224C216.341 44.736 216.431 45.3093 216.431 45.944C216.431 46.584 216.341 47.16 216.159 47.672C215.983 48.184 215.727 48.6213 215.391 48.984C215.055 49.3467 214.65 49.6267 214.175 49.824C213.701 50.016 213.167 50.112 212.575 50.112C211.978 50.112 211.439 50.016 210.959 49.824C210.485 49.6267 210.079 49.3467 209.743 48.984C209.407 48.6213 209.149 48.184 208.967 47.672C208.791 47.16 208.703 46.584 208.703 45.944C208.703 45.3093 208.791 44.736 208.967 44.224C209.149 43.7067 209.407 43.2667 209.743 42.904C210.079 42.5413 210.485 42.2613 210.959 42.064C211.439 41.8667 211.978 41.768 212.575 41.768ZM212.575 49C213.375 49 213.973 48.7333 214.367 48.2C214.762 47.6613 214.959 46.912 214.959 45.952C214.959 44.9867 214.762 44.2347 214.367 43.696C213.973 43.1573 213.375 42.888 212.575 42.888C212.17 42.888 211.815 42.9573 211.511 43.096C211.213 43.2347 210.962 43.4347 210.759 43.696C210.562 43.9573 210.413 44.28 210.311 44.664C210.215 45.0427 210.167 45.472 210.167 45.952C210.167 46.912 210.365 47.6613 210.759 48.2C211.159 48.7333 211.765 49 212.575 49ZM219.581 43.072C219.757 42.8747 219.944 42.696 220.141 42.536C220.339 42.376 220.547 42.24 220.765 42.128C220.989 42.0107 221.224 41.9227 221.469 41.864C221.72 41.8 221.989 41.768 222.277 41.768C222.72 41.768 223.109 41.8427 223.445 41.992C223.787 42.136 224.069 42.344 224.293 42.616C224.523 42.8827 224.696 43.2053 224.813 43.584C224.931 43.9627 224.989 44.3813 224.989 44.84V50H223.557V44.84C223.557 44.2267 223.416 43.752 223.133 43.416C222.856 43.0747 222.432 42.904 221.861 42.904C221.44 42.904 221.045 43.0053 220.677 43.208C220.315 43.4107 219.979 43.6853 219.669 44.032V50H218.237V41.896H219.093C219.296 41.896 219.421 41.9947 219.469 42.192L219.581 43.072ZM162.392 57.536V69H161.032V60.576C161.032 60.464 161.035 60.344 161.04 60.216C161.051 60.088 161.061 59.9573 161.072 59.824L157.136 66.992C157.013 67.232 156.827 67.352 156.576 67.352H156.352C156.101 67.352 155.915 67.232 155.792 66.992L151.776 59.792C151.808 60.0747 151.824 60.336 151.824 60.576V69H150.464V57.536H151.608C151.747 57.536 151.853 57.5493 151.928 57.576C152.003 57.6027 152.075 57.6773 152.144 57.8L156.104 64.856C156.168 64.984 156.229 65.1173 156.288 65.256C156.352 65.3947 156.411 65.536 156.464 65.68C156.517 65.536 156.573 65.3947 156.632 65.256C156.691 65.112 156.755 64.976 156.824 64.848L160.712 57.8C160.776 57.6773 160.845 57.6027 160.92 57.576C161 57.5493 161.109 57.536 161.248 57.536H162.392ZM171.511 60.896V69H170.663C170.46 69 170.332 68.9013 170.279 68.704L170.167 67.832C169.815 68.2213 169.42 68.536 168.983 68.776C168.545 69.0107 168.044 69.128 167.479 69.128C167.036 69.128 166.644 69.056 166.303 68.912C165.967 68.7627 165.684 68.5547 165.455 68.288C165.225 68.0213 165.052 67.6987 164.935 67.32C164.823 66.9413 164.767 66.5227 164.767 66.064V60.896H166.191V66.064C166.191 66.6773 166.329 67.152 166.607 67.488C166.889 67.824 167.319 67.992 167.895 67.992C168.316 67.992 168.708 67.8933 169.071 67.696C169.439 67.4933 169.777 67.216 170.087 66.864V60.896H171.511ZM175.241 57.216V69H173.817V57.216H175.241ZM185.07 69H183.646V62.088H179.47V66.952C179.47 67.2933 179.553 67.5467 179.718 67.712C179.883 67.8773 180.097 67.96 180.358 67.96C180.507 67.96 180.635 67.9413 180.742 67.904C180.854 67.8613 180.95 67.816 181.03 67.768C181.11 67.72 181.177 67.6773 181.23 67.64C181.289 67.5973 181.339 67.576 181.382 67.576C181.457 67.576 181.523 67.6213 181.582 67.712L181.998 68.392C181.753 68.6213 181.457 68.8027 181.11 68.936C180.763 69.064 180.406 69.128 180.038 69.128C179.398 69.128 178.905 68.9493 178.558 68.592C178.217 68.2347 178.046 67.72 178.046 67.048V62.088H177.07C176.985 62.088 176.913 62.064 176.854 62.016C176.795 61.9627 176.766 61.8827 176.766 61.776V61.208L178.094 61.032L178.422 58.536C178.438 58.456 178.473 58.392 178.526 58.344C178.585 58.2907 178.659 58.264 178.75 58.264H179.47V61.056H185.07V69ZM185.422 58.296C185.422 58.4347 185.393 58.5653 185.334 58.688C185.281 58.8053 185.206 58.9093 185.11 59C185.019 59.0907 184.913 59.1627 184.79 59.216C184.667 59.2693 184.537 59.296 184.398 59.296C184.259 59.296 184.129 59.2693 184.006 59.216C183.889 59.1627 183.785 59.0907 183.694 59C183.603 58.9093 183.531 58.8053 183.478 58.688C183.425 58.5653 183.398 58.4347 183.398 58.296C183.398 58.1573 183.425 58.0267 183.478 57.904C183.531 57.776 183.603 57.6667 183.694 57.576C183.785 57.48 183.889 57.4053 184.006 57.352C184.129 57.2987 184.259 57.272 184.398 57.272C184.537 57.272 184.667 57.2987 184.79 57.352C184.913 57.4053 185.019 57.48 185.11 57.576C185.206 57.6667 185.281 57.776 185.334 57.904C185.393 58.0267 185.422 58.1573 185.422 58.296ZM187.409 69V60.896H188.265C188.468 60.896 188.593 60.9947 188.641 61.192L188.745 62.024C189.044 61.656 189.38 61.3547 189.753 61.12C190.127 60.8853 190.559 60.768 191.049 60.768C191.593 60.768 192.033 60.92 192.369 61.224C192.711 61.528 192.956 61.9387 193.105 62.456C193.223 62.1627 193.372 61.9093 193.553 61.696C193.74 61.4827 193.948 61.3067 194.177 61.168C194.407 61.0293 194.649 60.928 194.905 60.864C195.167 60.8 195.431 60.768 195.697 60.768C196.124 60.768 196.503 60.8373 196.833 60.976C197.169 61.1093 197.452 61.3067 197.681 61.568C197.916 61.8293 198.095 62.152 198.217 62.536C198.34 62.9147 198.401 63.3493 198.401 63.84V69H196.969V63.84C196.969 63.2053 196.831 62.7253 196.553 62.4C196.276 62.0693 195.876 61.904 195.353 61.904C195.119 61.904 194.895 61.9467 194.681 62.032C194.473 62.112 194.289 62.232 194.129 62.392C193.969 62.552 193.841 62.7547 193.745 63C193.655 63.24 193.609 63.52 193.609 63.84V69H192.177V63.84C192.177 63.1893 192.047 62.704 191.785 62.384C191.524 62.064 191.143 61.904 190.641 61.904C190.289 61.904 189.964 62 189.665 62.192C189.367 62.3787 189.092 62.6347 188.841 62.96V69H187.409ZM205.99 64.064C205.99 63.7333 205.942 63.432 205.846 63.16C205.755 62.8827 205.619 62.6453 205.438 62.448C205.262 62.2453 205.046 62.0907 204.79 61.984C204.534 61.872 204.243 61.816 203.918 61.816C203.235 61.816 202.694 62.016 202.294 62.416C201.899 62.8107 201.654 63.36 201.558 64.064H205.99ZM207.142 67.864C206.966 68.0773 206.755 68.264 206.51 68.424C206.264 68.5787 206 68.7067 205.718 68.808C205.44 68.9093 205.152 68.984 204.854 69.032C204.555 69.0853 204.259 69.112 203.966 69.112C203.406 69.112 202.888 69.0187 202.414 68.832C201.944 68.64 201.536 68.3627 201.19 68C200.848 67.632 200.582 67.1787 200.39 66.64C200.198 66.1013 200.102 65.4827 200.102 64.784C200.102 64.2187 200.187 63.6907 200.358 63.2C200.534 62.7093 200.784 62.2853 201.11 61.928C201.435 61.5653 201.832 61.2827 202.302 61.08C202.771 60.872 203.299 60.768 203.886 60.768C204.371 60.768 204.819 60.8507 205.23 61.016C205.646 61.176 206.003 61.4107 206.302 61.72C206.606 62.024 206.843 62.4027 207.014 62.856C207.184 63.304 207.27 63.816 207.27 64.392C207.27 64.616 207.246 64.7653 207.198 64.84C207.15 64.9147 207.059 64.952 206.926 64.952H201.51C201.526 65.464 201.595 65.9093 201.718 66.288C201.846 66.6667 202.022 66.984 202.246 67.24C202.47 67.4907 202.736 67.68 203.046 67.808C203.355 67.9307 203.702 67.992 204.086 67.992C204.443 67.992 204.75 67.952 205.006 67.872C205.267 67.7867 205.491 67.696 205.678 67.6C205.864 67.504 206.019 67.416 206.142 67.336C206.27 67.2507 206.379 67.208 206.47 67.208C206.587 67.208 206.678 67.2533 206.742 67.344L207.142 67.864ZM206.246 57.408L204.382 59.472C204.307 59.552 204.232 59.6107 204.158 59.648C204.088 59.68 203.998 59.696 203.886 59.696H203.038L204.222 57.76C204.296 57.6373 204.376 57.5493 204.462 57.496C204.552 57.4373 204.683 57.408 204.854 57.408H206.246ZM214.299 62.824C214.032 62.4667 213.744 62.2187 213.435 62.08C213.125 61.936 212.779 61.864 212.395 61.864C211.643 61.864 211.064 62.1333 210.659 62.672C210.253 63.2107 210.051 63.9787 210.051 64.976C210.051 65.504 210.096 65.9573 210.187 66.336C210.277 66.7093 210.411 67.0187 210.587 67.264C210.763 67.504 210.979 67.68 211.235 67.792C211.491 67.904 211.781 67.96 212.107 67.96C212.576 67.96 212.984 67.8533 213.331 67.64C213.683 67.4267 214.005 67.1253 214.299 66.736V62.824ZM215.723 57.216V69H214.875C214.672 69 214.544 68.9013 214.491 68.704L214.363 67.72C214.016 68.136 213.621 68.472 213.179 68.728C212.736 68.984 212.224 69.112 211.643 69.112C211.179 69.112 210.757 69.024 210.379 68.848C210 68.6667 209.677 68.4027 209.411 68.056C209.144 67.7093 208.939 67.2773 208.795 66.76C208.651 66.2427 208.579 65.648 208.579 64.976C208.579 64.3787 208.659 63.824 208.819 63.312C208.979 62.7947 209.208 62.3467 209.507 61.968C209.805 61.5893 210.171 61.2933 210.603 61.08C211.04 60.8613 211.531 60.752 212.075 60.752C212.571 60.752 212.995 60.8373 213.347 61.008C213.704 61.1733 214.021 61.4053 214.299 61.704V57.216H215.723ZM219.476 60.896V69H218.052V60.896H219.476ZM219.78 58.352C219.78 58.4907 219.75 58.6213 219.692 58.744C219.638 58.8613 219.564 58.968 219.468 59.064C219.377 59.1547 219.268 59.2267 219.14 59.28C219.017 59.3333 218.886 59.36 218.748 59.36C218.609 59.36 218.478 59.3333 218.356 59.28C218.238 59.2267 218.134 59.1547 218.044 59.064C217.953 58.968 217.881 58.8613 217.828 58.744C217.774 58.6213 217.748 58.4907 217.748 58.352C217.748 58.2133 217.774 58.0827 217.828 57.96C217.881 57.832 217.953 57.7227 218.044 57.632C218.134 57.536 218.238 57.4613 218.356 57.408C218.478 57.3547 218.609 57.328 218.748 57.328C218.886 57.328 219.017 57.3547 219.14 57.408C219.268 57.4613 219.377 57.536 219.468 57.632C219.564 57.7227 219.638 57.832 219.692 57.96C219.75 58.0827 219.78 58.2133 219.78 58.352ZM226.208 65.352C225.552 65.3733 224.992 65.4267 224.528 65.512C224.069 65.592 223.693 65.6987 223.4 65.832C223.112 65.9653 222.901 66.1227 222.768 66.304C222.64 66.4853 222.576 66.688 222.576 66.912C222.576 67.1253 222.61 67.3093 222.68 67.464C222.749 67.6187 222.842 67.7467 222.96 67.848C223.082 67.944 223.224 68.016 223.384 68.064C223.549 68.1067 223.725 68.128 223.912 68.128C224.162 68.128 224.392 68.104 224.6 68.056C224.808 68.0027 225.002 67.928 225.184 67.832C225.37 67.736 225.546 67.6213 225.712 67.488C225.882 67.3547 226.048 67.2027 226.208 67.032V65.352ZM221.608 62.04C222.056 61.608 222.538 61.2853 223.056 61.072C223.573 60.8587 224.146 60.752 224.776 60.752C225.229 60.752 225.632 60.8267 225.984 60.976C226.336 61.1253 226.632 61.3333 226.872 61.6C227.112 61.8667 227.293 62.1893 227.416 62.568C227.538 62.9467 227.6 63.3627 227.6 63.816V69H226.968C226.829 69 226.722 68.9787 226.648 68.936C226.573 68.888 226.514 68.7973 226.472 68.664L226.312 67.896C226.098 68.0933 225.89 68.2693 225.688 68.424C225.485 68.5733 225.272 68.7013 225.048 68.808C224.824 68.9093 224.584 68.9867 224.328 69.04C224.077 69.0987 223.797 69.128 223.488 69.128C223.173 69.128 222.877 69.0853 222.6 69C222.322 68.9093 222.08 68.776 221.872 68.6C221.669 68.424 221.506 68.2027 221.384 67.936C221.266 67.664 221.208 67.344 221.208 66.976C221.208 66.656 221.296 66.3493 221.472 66.056C221.648 65.7573 221.933 65.4933 222.328 65.264C222.722 65.0347 223.237 64.848 223.872 64.704C224.506 64.5547 225.285 64.4693 226.208 64.448V63.816C226.208 63.1867 226.072 62.712 225.8 62.392C225.528 62.0667 225.13 61.904 224.608 61.904C224.256 61.904 223.96 61.9493 223.72 62.04C223.485 62.1253 223.28 62.224 223.104 62.336C222.933 62.4427 222.784 62.5413 222.656 62.632C222.533 62.7173 222.41 62.76 222.288 62.76C222.192 62.76 222.109 62.736 222.04 62.688C221.97 62.6347 221.912 62.5707 221.863 62.496L221.608 62.04Z" fill="white"/>
<line x1="137" y1="19" x2="137" y2="71" stroke="#00FFC2" stroke-width="2"/>
</svg>
